# This file uses centimeters as units for non-parametric coordinates.

g default
v 12.419824 1.340537 2.572230
v 12.419824 3.223540 4.455233
v 12.419824 5.795770 5.144460
v 12.419824 8.368000 4.455233
v 12.419824 10.251003 2.572230
v 12.419824 10.940229 0.000000
v 12.419824 0.651310 0.000000
v 9.505722 -2.436426 4.752861
v 9.505722 1.042909 8.232196
v 9.505722 5.795770 9.505722
v 9.505722 10.548632 8.232196
v 9.505722 14.027966 4.752861
v 9.505722 15.301493 0.000000
v 9.505722 -3.709952 -0.000000
v 5.144460 -4.960113 6.209912
v 5.144460 -0.414142 10.755883
v 5.144460 5.795770 12.419824
v 5.144460 12.005682 10.755883
v 5.144460 16.551653 6.209912
v 5.144460 18.215593 0.000000
v 5.144460 -6.624053 -0.000000
v -0.000000 -5.846314 6.721560
v -0.000000 -0.925790 11.642084
v 0.000000 5.795770 13.443121
v 0.000000 12.517330 11.642084
v 0.000000 17.437855 6.721560
v 0.000000 19.238892 0.000000
v -0.000000 -7.647351 -0.000000
v -5.144460 -4.960113 6.209912
v -5.144460 -0.414142 10.755883
v -5.144460 5.795770 12.419824
v -5.144460 12.005682 10.755883
v -5.144460 16.551653 6.209912
v -5.144460 18.215593 0.000000
v -5.144460 -6.624053 -0.000000
v -9.505722 -2.436426 4.752861
v -9.505722 1.042909 8.232196
v -9.505722 5.795770 9.505722
v -9.505722 10.548632 8.232196
v -9.505722 14.027966 4.752861
v -9.505722 15.301493 0.000000
v -9.505722 -3.709952 -0.000000
v -12.419824 1.340537 2.572230
v -12.419824 3.223540 4.455233
v -12.419824 5.795770 5.144460
v -12.419824 8.368000 4.455233
v -12.419824 10.251003 2.572230
v -12.419824 10.940230 0.000000
v -12.419824 0.651310 0.000000
v 13.443121 5.795770 0.000000
v -13.443121 5.795770 0.000000
v 10.031898 23.027395 6.635353
v -9.492249 23.027395 6.635353
v 10.031898 10.478296 6.635353
v -9.492249 10.478296 6.635353
v -13.104433 8.816429 3.684778
v -18.989000 10.538990 -0.001922
v -13.104433 2.737903 3.684778
v -18.989002 0.064896 -0.001924
v -12.951463 -18.021154 3.780614
v -13.976892 -18.024658 3.138180
v -12.989944 18.997969 3.756505
v -13.951540 18.985043 3.154063
v 13.574188 8.816429 3.684779
v 20.127846 10.538990 -0.001931
v 13.574188 2.737903 3.684779
v 20.127848 0.064896 -0.001933
v 13.403826 -18.021154 3.780615
v 14.545849 -18.024658 3.138179
v 13.446683 18.997969 3.756506
v 14.517614 18.985043 3.154062
v 14.563368 6.754780 2.510051
v -14.563368 6.754780 2.510051
v 14.563368 4.315890 2.510051
v -14.563368 4.315890 2.510051
v 5.538707 -4.119744 3.358365
v 4.949818 -4.119744 3.358365
v 5.538707 -12.517337 3.358365
v 4.949818 -12.517337 3.358365
v 5.251949 -12.517337 3.606737
v 5.251949 -4.119744 3.606737
v -4.978972 -3.392408 3.358365
v -5.999714 -3.392408 3.358365
v -4.978972 -9.518507 3.358365
v -5.999714 -9.518507 3.358365
v -5.511971 -9.518507 3.358365
v -5.511971 -3.392408 3.358365
v -4.978972 -16.520374 3.358365
v -5.511971 -16.520374 3.358365
v -5.254370 -16.520374 3.596507
v -5.254370 -9.518507 3.596507
v -5.254370 -3.392408 3.596507
vt 0.305941 0.478023
vt 0.305941 0.448558
vt 0.351424 0.537125
vt 0.351424 0.482680
vt 0.305941 0.408308
vt 0.351424 0.408308
vt 0.305941 0.368058
vt 0.351424 0.333936
vt 0.305941 0.338593
vt 0.351424 0.279492
vt 0.305941 0.327808
vt 0.351424 0.259564
vt 0.305941 0.488808
vt 0.351424 0.557052
vt 0.419494 0.576615
vt 0.419494 0.505480
vt 0.419494 0.408308
vt 0.419494 0.311136
vt 0.419494 0.240002
vt 0.419494 0.213965
vt 0.419494 0.602652
vt 0.499788 0.590482
vt 0.499788 0.513486
vt 0.499788 0.408308
vt 0.499788 0.303130
vt 0.499788 0.226135
vt 0.499788 0.197952
vt 0.499788 0.618664
vt 0.580082 0.576615
vt 0.580082 0.505480
vt 0.580082 0.408308
vt 0.580082 0.311136
vt 0.580082 0.240002
vt 0.580082 0.213965
vt 0.580082 0.602652
vt 0.648152 0.537125
vt 0.648152 0.482680
vt 0.648152 0.408308
vt 0.648152 0.333936
vt 0.648152 0.279492
vt 0.648152 0.259564
vt 0.648152 0.557052
vt 0.693635 0.478023
vt 0.693635 0.448558
vt 0.693635 0.408308
vt 0.693635 0.368058
vt 0.693635 0.338593
vt 0.693635 0.327808
vt 0.693635 0.488808
vt 0.289969 0.408308
vt 0.709606 0.408308
vt 0.343211 0.138670
vt 0.647942 0.138670
vt 0.343211 0.335037
vt 0.647942 0.335037
vt 0.704320 0.361041
vt 0.796166 0.334087
vt 0.704320 0.456157
vt 0.796166 0.497984
vt 0.701933 0.780992
vt 0.717937 0.781047
vt 0.717542 0.201924
vt 0.702533 0.201722
vt 0.287923 0.361041
vt 0.287923 0.456157
vt 0.185635 0.334087
vt 0.185635 0.497984
vt 0.290582 0.780992
vt 0.272758 0.781047
vt 0.273199 0.201924
vt 0.289914 0.201722
vt 0.272484 0.393302
vt 0.727091 0.393302
vt 0.272484 0.431465
vt 0.727091 0.431465
vt 0.417816 0.563465
vt 0.422532 0.563465
vt 0.417816 0.694869
vt 0.422532 0.694869
vt 0.413340 0.563465
vt 0.413340 0.694869
vt 0.585818 0.552084
vt 0.593431 0.552084
vt 0.585818 0.647944
vt 0.593431 0.647944
vt 0.581797 0.552084
vt 0.581797 0.647944
vt 0.581797 0.757508
vt 0.585818 0.757508
vt 0.577499 0.647944
vt 0.577499 0.757508
vt 0.577499 0.552084
vn 0.822407 -0.402273 0.402273
vn 0.822407 -0.402273 0.402273
vn 0.822407 -0.402273 0.402273
vn 0.822407 -0.402273 0.402273
vn 0.822407 -0.402273 0.402273
vn 0.822407 -0.402273 0.402273
vn 0.822407 -0.147242 0.549515
vn 0.822407 -0.147242 0.549515
vn 0.822407 -0.147242 0.549515
vn 0.822407 -0.147242 0.549515
vn 0.822407 -0.147242 0.549515
vn 0.822407 -0.147242 0.549515
vn 0.822407 0.147242 0.549515
vn 0.822407 0.147242 0.549515
vn 0.822407 0.147242 0.549515
vn 0.822407 0.147242 0.549515
vn 0.822407 0.147242 0.549515
vn 0.822407 0.147242 0.549515
vn 0.822407 0.402273 0.402273
vn 0.822407 0.402273 0.402273
vn 0.822407 0.402273 0.402273
vn 0.822407 0.402273 0.402273
vn 0.822407 0.402273 0.402273
vn 0.822407 0.402273 0.402273
vn 0.822407 0.549515 0.147241
vn 0.822407 0.549515 0.147242
vn 0.822407 0.549515 0.147242
vn 0.822407 0.549515 0.147242
vn 0.822407 0.549515 0.147242
vn 0.822407 0.549515 0.147242
vn 0.822407 -0.549515 0.147242
vn 0.822407 -0.549515 0.147242
vn 0.822407 -0.549515 0.147242
vn 0.822407 -0.549515 0.147242
vn 0.822407 -0.549515 0.147242
vn 0.822407 -0.549515 0.147242
vn 0.542275 -0.594112 0.594112
vn 0.542275 -0.594112 0.594112
vn 0.542275 -0.594112 0.594112
vn 0.542275 -0.594112 0.594112
vn 0.542275 -0.594112 0.594112
vn 0.542275 -0.594112 0.594112
vn 0.542275 -0.217460 0.811572
vn 0.542275 -0.217460 0.811572
vn 0.542275 -0.217460 0.811572
vn 0.542275 -0.217460 0.811572
vn 0.542275 -0.217460 0.811572
vn 0.542275 -0.217460 0.811572
vn 0.542275 0.217460 0.811572
vn 0.542275 0.217460 0.811572
vn 0.542275 0.217460 0.811572
vn 0.542275 0.217460 0.811572
vn 0.542275 0.217460 0.811572
vn 0.542275 0.217460 0.811572
vn 0.542275 0.594112 0.594112
vn 0.542275 0.594112 0.594112
vn 0.542275 0.594112 0.594112
vn 0.542275 0.594112 0.594112
vn 0.542275 0.594112 0.594112
vn 0.542275 0.594112 0.594112
vn 0.542275 0.811572 0.217460
vn 0.542275 0.811572 0.217460
vn 0.542275 0.811572 0.217460
vn 0.542275 0.811572 0.217460
vn 0.542275 0.811572 0.217460
vn 0.542275 0.811572 0.217460
vn 0.542275 -0.811572 0.217460
vn 0.542275 -0.811572 0.217460
vn 0.542275 -0.811572 0.217460
vn 0.542275 -0.811572 0.217460
vn 0.542275 -0.811572 0.217460
vn 0.542275 -0.811572 0.217460
vn 0.188684 -0.694406 0.694406
vn 0.188684 -0.694406 0.694406
vn 0.188684 -0.694406 0.694406
vn 0.188684 -0.694406 0.694406
vn 0.188684 -0.694406 0.694406
vn 0.188684 -0.694406 0.694406
vn 0.188683 -0.254170 0.948576
vn 0.188684 -0.254170 0.948576
vn 0.188684 -0.254170 0.948576
vn 0.188684 -0.254170 0.948576
vn 0.188684 -0.254170 0.948576
vn 0.188684 -0.254170 0.948576
vn 0.188684 0.254170 0.948576
vn 0.188684 0.254170 0.948576
vn 0.188684 0.254170 0.948576
vn 0.188684 0.254170 0.948576
vn 0.188684 0.254170 0.948576
vn 0.188684 0.254170 0.948576
vn 0.188683 0.694406 0.694406
vn 0.188684 0.694406 0.694406
vn 0.188684 0.694406 0.694406
vn 0.188684 0.694406 0.694406
vn 0.188684 0.694406 0.694406
vn 0.188684 0.694405 0.694406
vn 0.188684 0.948576 0.254170
vn 0.188684 0.948576 0.254170
vn 0.188684 0.948576 0.254170
vn 0.188684 0.948576 0.254170
vn 0.188684 0.948576 0.254170
vn 0.188683 0.948576 0.254170
vn 0.188684 -0.948576 0.254170
vn 0.188684 -0.948576 0.254170
vn 0.188684 -0.948576 0.254170
vn 0.188684 -0.948576 0.254170
vn 0.188684 -0.948576 0.254170
vn 0.188684 -0.948576 0.254170
vn -0.188684 -0.694406 0.694406
vn -0.188684 -0.694406 0.694406
vn -0.188684 -0.694406 0.694406
vn -0.188684 -0.694406 0.694406
vn -0.188684 -0.694406 0.694406
vn -0.188684 -0.694406 0.694406
vn -0.188684 -0.254170 0.948576
vn -0.188684 -0.254170 0.948576
vn -0.188683 -0.254170 0.948576
vn -0.188683 -0.254170 0.948576
vn -0.188684 -0.254170 0.948576
vn -0.188684 -0.254170 0.948576
vn -0.188684 0.254170 0.948576
vn -0.188684 0.254170 0.948576
vn -0.188684 0.254170 0.948576
vn -0.188684 0.254170 0.948576
vn -0.188684 0.254170 0.948576
vn -0.188683 0.254170 0.948576
vn -0.188684 0.694406 0.694406
vn -0.188684 0.694406 0.694406
vn -0.188684 0.694406 0.694406
vn -0.188684 0.694406 0.694406
vn -0.188684 0.694406 0.694406
vn -0.188684 0.694406 0.694406
vn -0.188684 0.948576 0.254170
vn -0.188684 0.948576 0.254170
vn -0.188684 0.948576 0.254170
vn -0.188684 0.948576 0.254170
vn -0.188684 0.948576 0.254170
vn -0.188684 0.948576 0.254170
vn -0.188684 -0.948576 0.254170
vn -0.188684 -0.948576 0.254170
vn -0.188684 -0.948576 0.254170
vn -0.188684 -0.948576 0.254170
vn -0.188684 -0.948576 0.254170
vn -0.188683 -0.948576 0.254170
vn -0.542275 -0.594112 0.594112
vn -0.542275 -0.594112 0.594112
vn -0.542275 -0.594112 0.594112
vn -0.542275 -0.594112 0.594112
vn -0.542275 -0.594112 0.594112
vn -0.542275 -0.594112 0.594112
vn -0.542275 -0.217460 0.811572
vn -0.542275 -0.217460 0.811572
vn -0.542275 -0.217460 0.811572
vn -0.542275 -0.217460 0.811572
vn -0.542275 -0.217460 0.811572
vn -0.542275 -0.217460 0.811572
vn -0.542275 0.217460 0.811572
vn -0.542275 0.217460 0.811572
vn -0.542275 0.217460 0.811572
vn -0.542275 0.217460 0.811572
vn -0.542275 0.217460 0.811572
vn -0.542275 0.217460 0.811572
vn -0.542275 0.594112 0.594112
vn -0.542275 0.594112 0.594112
vn -0.542275 0.594112 0.594112
vn -0.542275 0.594112 0.594112
vn -0.542275 0.594112 0.594112
vn -0.542275 0.594112 0.594112
vn -0.542275 0.811572 0.217460
vn -0.542275 0.811572 0.217460
vn -0.542275 0.811572 0.217460
vn -0.542275 0.811572 0.217460
vn -0.542275 0.811572 0.217460
vn -0.542275 0.811572 0.217460
vn -0.542275 -0.811572 0.217460
vn -0.542275 -0.811572 0.217460
vn -0.542275 -0.811572 0.217460
vn -0.542275 -0.811572 0.217460
vn -0.542275 -0.811572 0.217460
vn -0.542275 -0.811572 0.217460
vn -0.822407 -0.402273 0.402273
vn -0.822407 -0.402273 0.402273
vn -0.822407 -0.402273 0.402273
vn -0.822407 -0.402273 0.402273
vn -0.822407 -0.402273 0.402273
vn -0.822407 -0.402273 0.402273
vn -0.822407 -0.147242 0.549515
vn -0.822407 -0.147242 0.549515
vn -0.822407 -0.147242 0.549515
vn -0.822407 -0.147242 0.549515
vn -0.822407 -0.147242 0.549515
vn -0.822407 -0.147242 0.549515
vn -0.822407 0.147242 0.549515
vn -0.822407 0.147242 0.549515
vn -0.822407 0.147242 0.549515
vn -0.822407 0.147242 0.549515
vn -0.822407 0.147242 0.549515
vn -0.822407 0.147242 0.549515
vn -0.822407 0.402273 0.402272
vn -0.822407 0.402273 0.402273
vn -0.822407 0.402273 0.402273
vn -0.822407 0.402273 0.402273
vn -0.822407 0.402273 0.402273
vn -0.822407 0.402273 0.402273
vn -0.822407 0.549515 0.147242
vn -0.822407 0.549515 0.147242
vn -0.822407 0.549515 0.147242
vn -0.822407 0.549515 0.147242
vn -0.822407 0.549515 0.147242
vn -0.822407 0.549515 0.147242
vn -0.822407 -0.549515 0.147242
vn -0.822407 -0.549515 0.147242
vn -0.822407 -0.549515 0.147242
vn -0.822407 -0.549515 0.147242
vn -0.822407 -0.549515 0.147242
vn -0.822407 -0.549515 0.147242
vn 0.979448 -0.142621 0.142621
vn 0.979448 -0.142621 0.142621
vn 0.979448 -0.142621 0.142621
vn 0.979448 -0.052203 0.194825
vn 0.979448 -0.052203 0.194825
vn 0.979448 -0.052203 0.194825
vn 0.979448 0.052203 0.194825
vn 0.979448 0.052203 0.194825
vn 0.979448 0.052203 0.194825
vn 0.979448 0.142621 0.142621
vn 0.979448 0.142621 0.142621
vn 0.979448 0.142621 0.142621
vn 0.979448 0.194824 0.052204
vn 0.979448 0.194824 0.052204
vn 0.979448 0.194824 0.052204
vn 0.979448 -0.194824 0.052203
vn 0.979448 -0.194824 0.052203
vn 0.979448 -0.194824 0.052203
vn -0.979448 -0.142621 0.142622
vn -0.979448 -0.142621 0.142622
vn -0.979448 -0.142621 0.142622
vn -0.979448 -0.052203 0.194824
vn -0.979448 -0.052203 0.194824
vn -0.979448 -0.052203 0.194824
vn -0.979448 0.052203 0.194825
vn -0.979448 0.052203 0.194825
vn -0.979448 0.052203 0.194825
vn -0.979448 0.142621 0.142621
vn -0.979448 0.142621 0.142621
vn -0.979448 0.142621 0.142621
vn -0.979448 0.194824 0.052203
vn -0.979448 0.194824 0.052203
vn -0.979448 0.194824 0.052203
vn -0.979448 -0.194824 0.052202
vn -0.979448 -0.194824 0.052202
vn -0.979448 -0.194824 0.052202
vn -0.000000 -0.000000 1.000000
vn -0.000000 -0.000000 1.000000
vn -0.000000 -0.000000 1.000000
vn -0.000000 -0.000000 1.000000
vn -0.000000 -0.000000 1.000000
vn -0.000000 -0.000000 1.000000
vn -0.530915 -0.000000 0.847425
vn -0.530915 -0.000000 0.847425
vn -0.530914 -0.000000 0.847426
vn -0.530914 -0.000000 0.847426
vn -0.530915 -0.000000 0.847425
vn -0.530914 -0.000000 0.847426
vn -0.530915 -0.000000 0.847425
vn -0.530915 -0.000000 0.847425
vn -0.530914 -0.000000 0.847426
vn -0.530914 -0.000000 0.847426
vn -0.530915 -0.000000 0.847425
vn -0.530913 -0.000000 0.847426
vn -0.530915 -0.000000 0.847425
vn -0.530915 -0.000000 0.847425
vn -0.530915 -0.000000 0.847425
vn -0.530915 -0.000000 0.847425
vn -0.530915 -0.000000 0.847425
vn -0.530914 -0.000000 0.847426
vn 0.490289 -0.000000 0.871560
vn 0.490289 -0.000000 0.871560
vn 0.490289 -0.000000 0.871560
vn 0.490289 -0.000000 0.871560
vn 0.490289 -0.000000 0.871560
vn 0.490289 -0.000000 0.871560
vn 0.490289 -0.000000 0.871560
vn 0.490289 -0.000000 0.871560
vn 0.490289 -0.000000 0.871560
vn 0.490289 -0.000000 0.871560
vn 0.490289 -0.000000 0.871560
vn 0.490287 -0.000000 0.871561
vn 0.490289 -0.000000 0.871560
vn 0.490289 -0.000000 0.871560
vn 0.490289 -0.000000 0.871560
vn 0.490289 -0.000000 0.871560
vn 0.490289 -0.000000 0.871560
vn 0.490287 -0.000000 0.871561
vn -0.000000 -0.000000 1.000000
vn -0.000000 -0.000000 1.000000
vn -0.000000 -0.000000 1.000000
vn -0.000000 -0.000000 1.000000
vn -0.000000 -0.000000 1.000000
vn -0.000000 -0.000000 1.000000
vn -0.000000 -0.000000 1.000000
vn -0.635035 -0.000000 0.772484
vn -0.000000 -0.000000 1.000000
vn -0.000000 -0.000000 1.000000
vn -0.635035 -0.000000 0.772484
vn -0.635034 -0.000000 0.772484
vn 0.654702 -0.000000 0.755887
vn -0.000000 -0.000000 1.000000
vn 0.654703 -0.000000 0.755886
vn 0.654703 -0.000000 0.755886
vn -0.000000 -0.000000 1.000000
vn -0.000000 -0.000000 1.000000
vn -0.304349 -0.000000 0.952561
vn -0.000000 -0.000000 1.000000
vn -0.304350 -0.000000 0.952560
vn -0.304350 -0.000000 0.952560
vn -0.000000 -0.000000 1.000000
vn -0.000000 -0.000000 1.000000
vn -0.000000 -0.000000 1.000000
vn -0.304349 -0.000000 0.952561
vn -0.000000 -0.000000 1.000000
vn -0.000000 -0.000000 1.000000
vn -0.304349 -0.000000 0.952561
vn -0.304350 -0.000000 0.952560
vn -0.000000 -0.000000 1.000000
vn -0.678828 -0.000000 0.734297
vn -0.000001 -0.000000 1.000000
vn -0.000001 -0.000000 1.000000
vn -0.678828 -0.000000 0.734297
vn -0.678830 -0.000000 0.734296
vn 0.654089 -0.000000 0.756418
vn -0.000000 -0.000000 1.000000
vn 0.654092 -0.000000 0.756415
vn 0.654092 -0.000000 0.756415
vn -0.000000 -0.000000 1.000000
vn -0.000001 -0.000000 1.000000
vn 0.654089 -0.000000 0.756417
vn -0.000000 -0.000000 1.000000
vn 0.654091 -0.000000 0.756416
vn 0.654091 -0.000000 0.756416
vn -0.000000 -0.000000 1.000000
vn -0.000000 -0.000000 1.000000
s off
g initialShadingGroup pSphere2
f 1/1/1 2/2/2 8/3/3
f 8/3/4 2/2/5 9/4/6
f 2/2/7 3/5/8 9/4/9
f 9/4/10 3/5/11 10/6/12
f 3/5/13 4/7/14 10/6/15
f 10/6/16 4/7/17 11/8/18
f 4/7/19 5/9/20 11/8/21
f 11/8/22 5/9/23 12/10/24
f 5/9/25 6/11/26 12/10/27
f 12/10/28 6/11/29 13/12/30
f 7/13/31 1/1/32 14/14/33
f 14/14/34 1/1/35 8/3/36
f 8/3/37 9/4/38 15/15/39
f 15/15/40 9/4/41 16/16/42
f 9/4/43 10/6/44 16/16/45
f 16/16/46 10/6/47 17/17/48
f 10/6/49 11/8/50 17/17/51
f 17/17/52 11/8/53 18/18/54
f 11/8/55 12/10/56 18/18/57
f 18/18/58 12/10/59 19/19/60
f 12/10/61 13/12/62 19/19/63
f 19/19/64 13/12/65 20/20/66
f 14/14/67 8/3/68 21/21/69
f 21/21/70 8/3/71 15/15/72
f 15/15/73 16/16/74 22/22/75
f 22/22/76 16/16/77 23/23/78
f 16/16/79 17/17/80 23/23/81
f 23/23/82 17/17/83 24/24/84
f 17/17/85 18/18/86 24/24/87
f 24/24/88 18/18/89 25/25/90
f 18/18/91 19/19/92 25/25/93
f 25/25/94 19/19/95 26/26/96
f 19/19/97 20/20/98 26/26/99
f 26/26/100 20/20/101 27/27/102
f 21/21/103 15/15/104 28/28/105
f 28/28/106 15/15/107 22/22/108
f 22/22/109 23/23/110 29/29/111
f 29/29/112 23/23/113 30/30/114
f 23/23/115 24/24/116 30/30/117
f 30/30/118 24/24/119 31/31/120
f 24/24/121 25/25/122 31/31/123
f 31/31/124 25/25/125 32/32/126
f 25/25/127 26/26/128 32/32/129
f 32/32/130 26/26/131 33/33/132
f 26/26/133 27/27/134 33/33/135
f 33/33/136 27/27/137 34/34/138
f 28/28/139 22/22/140 35/35/141
f 35/35/142 22/22/143 29/29/144
f 29/29/145 30/30/146 36/36/147
f 36/36/148 30/30/149 37/37/150
f 30/30/151 31/31/152 37/37/153
f 37/37/154 31/31/155 38/38/156
f 31/31/157 32/32/158 38/38/159
f 38/38/160 32/32/161 39/39/162
f 32/32/163 33/33/164 39/39/165
f 39/39/166 33/33/167 40/40/168
f 33/33/169 34/34/170 40/40/171
f 40/40/172 34/34/173 41/41/174
f 35/35/175 29/29/176 42/42/177
f 42/42/178 29/29/179 36/36/180
f 36/36/181 37/37/182 43/43/183
f 43/43/184 37/37/185 44/44/186
f 37/37/187 38/38/188 44/44/189
f 44/44/190 38/38/191 45/45/192
f 38/38/193 39/39/194 45/45/195
f 45/45/196 39/39/197 46/46/198
f 39/39/199 40/40/200 46/46/201
f 46/46/202 40/40/203 47/47/204
f 40/40/205 41/41/206 47/47/207
f 47/47/208 41/41/209 48/48/210
f 42/42/211 36/36/212 49/49/213
f 49/49/214 36/36/215 43/43/216
f 2/2/217 1/1/218 50/50/219
f 3/5/220 2/2/221 50/50/222
f 4/7/223 3/5/224 50/50/225
f 5/9/226 4/7/227 50/50/228
f 6/11/229 5/9/230 50/50/231
f 1/1/232 7/13/233 50/50/234
f 43/43/235 44/44/236 51/51/237
f 44/44/238 45/45/239 51/51/240
f 45/45/241 46/46/242 51/51/243
f 46/46/244 47/47/245 51/51/246
f 47/47/247 48/48/248 51/51/249
f 49/49/250 43/43/251 51/51/252
f 52/52/253 53/53/254 54/54/255
f 54/54/256 53/53/257 55/55/258
f 56/56/259 57/57/260 58/58/261
f 58/58/262 57/57/263 59/59/264
f 58/58/265 59/59/266 60/60/267
f 60/60/268 59/59/269 61/61/270
f 57/57/271 56/56/272 63/62/273
f 63/62/274 56/56/275 62/63/276
f 64/64/277 66/65/278 65/66/279
f 65/66/280 66/65/281 67/67/282
f 66/65/283 68/68/284 67/67/285
f 67/67/286 68/68/287 69/69/288
f 65/66/289 71/70/290 64/64/291
f 64/64/292 71/70/293 70/71/294
f 72/72/295 73/73/296 74/74/297
f 74/74/298 73/73/299 75/75/300
f 81/76/301 77/77/302 80/78/303
f 80/78/304 77/77/305 79/79/306
f 76/80/307 81/76/308 78/81/309
f 78/81/310 81/76/311 80/78/312
f 87/82/313 83/83/314 86/84/315
f 86/84/316 83/83/317 85/85/318
f 92/86/319 87/82/320 91/87/321
f 91/87/322 87/82/323 86/84/324
f 91/87/325 86/84/326 90/88/327
f 90/88/328 86/84/329 89/89/330
f 84/90/331 91/87/332 88/91/333
f 88/91/334 91/87/335 90/88/336
f 82/92/337 92/86/338 84/90/339
f 84/90/340 92/86/341 91/87/342
