# This file uses centimeters as units for non-parametric coordinates.

mtllib resource_iron_rock.mtl
g default
v -5.913967 -0.000000 6.203744
v -3.012544 -0.000000 6.494949
v 3.065214 -0.000000 5.444006
v 5.356790 -0.000000 4.289510
v -6.132194 -0.000000 2.433191
v 5.631343 -0.000000 1.298108
v -6.648745 0.000000 -3.459927
v 4.364379 0.000000 -3.192901
v -5.160549 0.000000 -5.200488
v -2.866381 0.000000 -6.278771
v 2.475716 0.000000 -6.688272
v 4.345313 0.000000 -5.927115
v 3.968647 -0.000000 -1.488190
v -6.775592 -0.000000 0.056756
v 0.458229 -0.000000 5.130983
v 0.035358 0.000000 -6.925398
v -4.652542 0.939159 3.856013
v -2.452486 1.143521 4.597332
v -2.678303 3.031433 1.980065
v -5.138993 0.978026 1.937219
v 0.296170 1.253328 4.162107
v 0.022219 3.031433 2.549287
v 2.446167 1.392798 4.420258
v 4.336045 1.049939 3.468137
v 4.562469 1.318648 1.001109
v 2.178041 2.939921 1.664700
v -3.230510 3.031433 -0.367665
v -5.389669 1.105239 0.082335
v -0.474326 3.626637 -0.384575
v 3.191234 1.501447 -1.296769
v 1.745497 3.031433 -0.758000
v -5.495010 1.080399 -3.074506
v -2.899842 3.217074 -2.608916
v -2.329016 1.231860 -5.084293
v -4.326008 1.073003 -4.078384
v -0.542752 3.183763 -3.021007
v -0.169216 1.305124 -5.652563
v 1.391600 2.833106 -3.119283
v 3.517597 1.353781 -2.702655
v 2.893425 1.064507 -5.237236
v 1.411791 1.268301 -5.410347
v 1.918725 2.733277 -4.479980
v 2.519530 3.013650 -2.255116
v 3.707561 1.258324 -2.250357
v 3.285767 5.393094 -5.098876
v 4.116384 5.311201 -4.001274
v 5.390499 5.174794 -3.834613
v 1.202275 2.600983 -3.686479
v 1.455782 2.871522 -2.619602
v 2.070926 1.295362 -5.384374
v 3.660648 5.376700 -6.203540
v 4.999325 7.542610 -6.195608
v 5.497829 7.474904 -5.473852
v 6.486948 7.134267 -5.089516
v 5.091033 7.244699 -7.001141
v 6.140769 7.700424 -6.971940
v 6.778206 7.705425 -6.416377
v 6.895692 7.482439 -5.736945
v 5.661449 7.465054 -7.232002
v -4.740512 0.803715 -4.283346
v -3.525662 1.446415 -4.169542
v -2.525775 1.861043 -4.308636
v -1.740851 1.955337 -4.333926
v -4.651998 1.287773 -4.979756
v -3.677401 1.792019 -5.093560
v -2.121139 2.011296 -5.207364
v -0.451073 1.178083 -5.725804
v -4.740512 1.291340 -5.461204
v -3.677401 1.807521 -5.979644
v -2.462551 1.937617 -6.232541
v -1.184476 1.346215 -6.472794
v -5.183083 1.064595 -5.892071
v -4.082037 1.181600 -6.612829
v -2.841897 1.187920 -6.941596
v -1.829365 1.174783 -7.004820
v -3.622467 2.661473 1.030597
v -2.783951 3.074425 1.229784
v -1.720268 3.310483 1.004617
v -0.717207 3.506721 0.502319
v -4.150744 2.308023 0.200742
v -2.991798 4.111136 0.174761
v -1.625005 4.153231 0.088159
v -0.500700 3.620017 0.105479
v -4.280649 2.318887 -0.568491
v -3.043760 4.035857 -1.053467
v -1.486440 4.153231 -1.261314
v -0.483379 3.620017 -0.958204
v -3.709070 2.755895 -1.407006
v -2.792612 3.283698 -2.039207
v -1.763570 3.369165 -2.368299
v -0.985676 3.499207 -1.701456
v 4.250085 1.442643 1.884213
v 4.901973 0.913079 1.675723
v 5.650661 1.170300 1.150431
v 6.170546 1.240985 0.730739
v 3.548792 2.083090 1.505128
v 4.752904 3.128153 0.737560
v 5.688755 2.672623 0.328710
v 6.252459 1.470001 -0.193950
v 3.014699 2.083090 0.518839
v 4.280069 3.053885 -0.422237
v 5.327893 2.605913 -0.815091
v 5.832767 1.413041 -1.039438
v 3.061412 2.083090 -0.326650
v 3.537297 1.533497 -0.939943
v 4.321185 1.583845 -1.254034
v 5.025873 1.321872 -1.321722
v -6.671706 0.196228 5.902070
v -6.577540 0.244110 6.543293
v -5.888889 0.277265 7.110205
v -5.210854 0.253914 7.178174
v -6.338342 0.226258 5.404504
v -6.338347 1.319218 6.158022
v -5.629657 1.319218 6.871428
v -4.580246 0.357199 6.680607
v -5.951898 0.097679 4.938785
v -5.763816 1.794807 5.455148
v -5.081015 1.802906 6.045529
v -3.688288 0.359453 6.301071
v -5.476863 0.448438 4.725195
v -4.628631 0.663568 4.528337
v -3.734220 0.663568 4.877238
v -3.209245 0.663568 5.528405
v 0.005862 1.848216 4.656893
v 0.485545 1.893896 5.187451
v 0.945433 1.963937 5.605838
v 1.616467 1.763166 6.162789
v 2.406270 1.819180 6.383226
v -0.446727 1.878758 3.695534
v 0.310085 2.582123 4.193100
v 0.974520 2.666096 4.967795
v 2.048050 2.610742 5.570935
v 2.943426 1.994650 6.134484
v -0.397845 2.742676 2.879338
v 0.312778 2.898604 3.449485
v 1.128975 2.898604 3.801889
v 2.420249 2.898604 4.411627
v 3.427796 1.808280 5.404066
v -0.005851 2.898604 2.637193
v 0.493626 2.612546 3.029187
v 1.421994 2.317125 3.223232
v 2.218395 1.990259 3.476661
v 3.404097 1.215728 4.158980
v -7.536657 -0.540289 0.782352
v -6.888002 -0.400289 1.126222
v -6.074288 -0.327407 1.250016
v -7.742980 -0.615727 0.076001
v -7.039305 -0.044653 0.186040
v -6.280611 -0.000000 0.076001
v -7.729225 -0.601186 -0.754143
v -7.094324 -0.044653 -0.754143
v -6.390649 0.000000 -0.822917
v -7.454129 -0.538459 -1.240417
v -6.956776 -0.346015 -1.818118
v -6.253101 -0.212207 -1.969421
vt 0.346720 0.212667
vt 0.332606 0.376246
vt 0.209216 0.258999
vt 0.178813 0.378924
vt 0.518511 0.239868
vt 0.501389 0.340670
vt 0.652885 0.223734
vt 0.771003 0.283241
vt 0.636128 0.395956
vt 0.785154 0.437431
vt 0.298093 0.522979
vt 0.163146 0.494854
vt 0.470355 0.524036
vt 0.699452 0.581048
vt 0.609094 0.547375
vt 0.156562 0.692157
vt 0.318760 0.663057
vt 0.229625 0.754899
vt 0.354437 0.817768
vt 0.466078 0.688813
vt 0.489424 0.853285
vt 0.719850 0.668916
vt 0.680839 0.827327
vt 0.586975 0.694955
vt 0.588237 0.838147
vt 0.130377 0.112266
vt 0.311716 0.094066
vt 0.116738 0.347926
vt 0.528639 0.179314
vt 0.834799 0.231906
vt 0.691576 0.159750
vt 0.851959 0.418868
vt 0.076525 0.496453
vt 0.748040 0.593012
vt 0.177466 0.825030
vt 0.320851 0.892423
vt 0.084453 0.716245
vt 0.502210 0.932837
vt 0.771582 0.870445
vt 0.772774 0.699556
vt 0.654732 0.918017
vt 0.657471 0.640945
vt 0.757274 0.750080
vt 0.619920 0.779999
vt 0.705360 0.818680
vt 0.731723 0.640647
vt 0.836906 0.739663
vt 0.590986 0.663725
vt 0.575142 0.730405
vt 0.728791 0.887721
vt 0.629433 0.836523
vt 0.843614 0.842116
vt 0.812458 0.887226
vt 0.905434 0.818095
vt 0.818190 0.937571
vt 0.883798 0.935746
vt 0.923638 0.901024
vt 0.930981 0.858559
vt 0.853841 0.952000
vt 0.203718 0.767709
vt 0.279646 0.760596
vt 0.209250 0.811235
vt 0.270162 0.818347
vt 0.342139 0.769290
vt 0.367429 0.825460
vt 0.391197 0.770870
vt 0.471808 0.857863
vt 0.203718 0.841325
vt 0.270162 0.873728
vt 0.346091 0.889534
vt 0.425970 0.904550
vt 0.244873 0.913302
vt 0.176057 0.868254
vt 0.322381 0.933850
vt 0.385665 0.937801
vt 0.326003 0.423138
vt 0.313013 0.489077
vt 0.273596 0.435588
vt 0.240578 0.487454
vt 0.392483 0.437211
vt 0.398437 0.494490
vt 0.455175 0.468605
vt 0.468706 0.493408
vt 0.232459 0.535531
vt 0.309765 0.565842
vt 0.407097 0.578832
vt 0.469789 0.559888
vt 0.268183 0.587938
vt 0.325462 0.627450
vt 0.389777 0.648019
vt 0.438395 0.606341
vt 0.765630 0.382237
vt 0.806373 0.395267
vt 0.721799 0.405930
vt 0.797056 0.453902
vt 0.853166 0.428098
vt 0.855547 0.479456
vt 0.885659 0.454329
vt 0.890779 0.512122
vt 0.688419 0.467573
vt 0.767504 0.526390
vt 0.832993 0.550943
vt 0.864548 0.564965
vt 0.691338 0.520416
vt 0.721081 0.558746
vt 0.770074 0.578377
vt 0.814117 0.582608
vt 0.083018 0.131121
vt 0.088904 0.091044
vt 0.103854 0.162219
vt 0.103853 0.115124
vt 0.131944 0.055612
vt 0.148146 0.070536
vt 0.174322 0.051364
vt 0.213735 0.082462
vt 0.139761 0.159053
vt 0.128006 0.191326
vt 0.182437 0.122154
vt 0.269482 0.106183
vt 0.210711 0.216979
vt 0.157696 0.204675
vt 0.266611 0.195173
vt 0.299422 0.154475
vt 0.530347 0.175784
vt 0.519380 0.237931
vt 0.500366 0.208944
vt 0.472080 0.269029
vt 0.559090 0.149635
vt 0.560907 0.189513
vt 0.601029 0.114826
vt 0.628003 0.151817
vt 0.650392 0.101048
vt 0.683964 0.116595
vt 0.519549 0.284407
vt 0.475135 0.320041
vt 0.570561 0.262382
vt 0.651266 0.224273
vt 0.714237 0.162246
vt 0.499634 0.335175
vt 0.530852 0.310676
vt 0.588875 0.298548
vt 0.638650 0.282709
vt 0.712756 0.240064
vt 0.069500 0.429611
vt 0.060043 0.488373
vt 0.028959 0.451103
vt 0.016064 0.495250
vt 0.120357 0.421874
vt 0.107462 0.495250
vt 0.056605 0.547134
vt 0.016923 0.547134
vt 0.100584 0.551432
vt 0.034117 0.577526
vt 0.065202 0.613632
vt 0.109181 0.623089
vn -0.056739 0.804311 0.591493
vn -0.315437 0.891409 0.325407
vn -0.401345 0.865774 0.298927
vn -0.637139 0.753619 0.161595
vn -0.006696 0.649074 0.760696
vn 0.033105 0.894238 0.446365
vn 0.180326 0.751028 0.635169
vn 0.530188 0.784972 0.320501
vn 0.379273 0.910375 0.165437
vn 0.668779 0.730568 -0.137864
vn -0.485475 0.872499 0.055310
vn -0.643773 0.762472 0.064756
vn 0.031612 0.999404 0.013886
vn 0.690139 0.703291 -0.170557
vn 0.468639 0.877167 -0.104667
vn -0.616240 0.767617 -0.176104
vn -0.342654 0.890771 -0.298523
vn -0.382793 0.727310 -0.569639
vn -0.245110 0.742440 -0.623461
vn 0.024143 0.910758 -0.412233
vn -0.055506 0.765538 -0.640993
vn 0.708552 0.699614 -0.092167
vn 0.460956 0.809544 -0.363536
vn 0.346421 0.883325 -0.315799
vn 0.126244 0.785292 -0.606118
vn -0.203248 0.941859 0.267566
vn 0.017722 0.886914 0.461595
vn -0.612751 0.781180 0.119557
vn 0.044770 0.671005 0.740100
vn 0.523963 0.778939 0.344553
vn 0.172379 0.659510 0.731664
vn 0.768774 0.626380 -0.128976
vn -0.638912 0.767270 0.055576
vn 0.843956 0.489199 -0.220050
vn -0.350834 0.778896 -0.519842
vn -0.248155 0.731159 -0.635472
vn -0.636708 0.747487 -0.189382
vn -0.044078 0.704651 -0.708184
vn 0.502619 0.833718 -0.228667
vn 0.766912 0.638825 -0.061226
vn 0.147733 0.747574 -0.647540
vn -0.154298 0.628255 0.762554
vn -0.425889 0.661585 0.617190
vn -0.847001 0.498299 -0.185169
vn -0.804121 0.563554 0.189200
vn 0.332369 0.227434 0.915317
vn 0.061656 0.505923 0.860372
vn -0.129792 0.985906 -0.105561
vn -0.341667 0.927132 -0.153917
vn -0.844262 0.419034 -0.334113
vn -0.836477 0.225577 -0.499422
vn -0.284408 0.763181 0.580231
vn -0.622952 0.779734 0.062811
vn -0.063629 0.659917 0.748639
vn -0.691010 0.651639 -0.312845
vn -0.160244 0.987064 0.005203
vn -0.041975 0.982179 0.183199
vn 0.066194 0.923378 0.378143
vn -0.393821 0.913619 -0.101023
vn -0.446446 0.760350 0.471757
vn -0.364444 0.841351 0.399136
vn -0.438300 0.830364 0.344077
vn -0.286159 0.944861 0.159218
vn -0.172343 0.969448 0.174553
vn 0.168203 0.983224 -0.070560
vn 0.276796 0.959112 -0.059067
vn 0.399193 0.902102 -0.163885
vn -0.418611 0.892875 -0.165949
vn -0.302654 0.899137 -0.316154
vn 0.042578 0.933849 -0.355124
vn 0.364782 0.888732 -0.277651
vn -0.342826 0.795663 -0.499390
vn -0.253009 0.938710 -0.234117
vn -0.136562 0.724576 -0.675529
vn 0.139929 0.759406 -0.635391
vn -0.234399 0.669914 0.704466
vn -0.468134 0.839823 0.274860
vn -0.714290 0.559191 0.420827
vn -0.821863 0.531215 0.205796
vn 0.059660 0.722579 0.688709
vn 0.132979 0.946272 0.294765
vn 0.269293 0.758382 0.593580
vn 0.424049 0.897951 0.117759
vn -0.833266 0.552862 -0.003457
vn -0.504647 0.822431 -0.262562
vn 0.127912 0.954716 -0.268619
vn 0.473641 0.876915 -0.081762
vn -0.773931 0.507064 -0.379364
vn -0.368787 0.714180 -0.594931
vn -0.091929 0.823296 -0.560118
vn 0.450209 0.709532 -0.542104
vn 0.645015 0.758970 0.088990
vn 0.348011 0.405124 0.845436
vn -0.059199 0.653963 0.754207
vn 0.081615 0.833443 0.546545
vn 0.596258 0.371654 0.711583
vn 0.736343 0.615348 0.281330
vn 0.066636 0.967122 0.245428
vn 0.914032 0.402011 0.054158
vn -0.554430 0.816487 0.161113
vn -0.276470 0.892648 -0.356010
vn 0.387223 0.679449 -0.623223
vn 0.614771 0.389212 -0.685981
vn -0.580682 0.685732 -0.438839
vn -0.395716 0.463324 -0.792931
vn -0.179830 0.443948 -0.877822
vn 0.155615 0.330666 -0.930830
vn -0.162890 0.985394 -0.049661
vn -0.162890 0.985394 -0.049661
vn -0.162890 0.985394 -0.049661
vn -0.842845 0.250094 -0.476513
vn -0.909276 0.287548 0.300889
vn -0.834250 0.545400 0.081029
vn -0.425920 0.301457 0.853063
vn -0.012690 0.651144 0.758848
vn 0.317371 0.375505 0.870788
vn 0.433917 0.470389 0.768408
vn -0.185806 0.688323 -0.701205
vn -0.643062 0.287257 -0.709898
vn -0.313226 0.890789 0.329217
vn -0.309727 0.885612 0.346065
vn 0.591063 0.802073 0.085577
vn 0.585176 0.729143 0.354852
vn 0.105248 0.740160 -0.664143
vn -0.418808 0.362204 -0.832711
vn 0.495376 0.859280 -0.127438
vn -0.260114 0.942531 0.209706
vn -0.633685 0.563096 0.530440
vn -0.575388 0.742279 0.343439
vn -0.692774 0.567986 0.444360
vn -0.696697 0.582485 0.418718
vn -0.416960 0.625846 0.659136
vn -0.314625 0.865058 0.390751
vn -0.309666 0.645320 0.698333
vn 0.109478 0.883227 0.455987
vn -0.089193 0.693386 0.715025
vn 0.389886 0.862277 0.323213
vn -0.357477 0.904586 0.232237
vn -0.532526 0.702931 0.471491
vn 0.093934 0.973680 -0.207664
vn 0.485966 0.852600 -0.192119
vn 0.726060 0.686683 -0.036095
vn -0.302786 0.945629 0.118771
vn 0.618457 0.747434 -0.242596
vn 0.411288 0.792857 -0.449689
vn 0.418975 0.737807 -0.529245
vn 0.534058 0.559786 -0.633579
vn 0.767217 0.507427 -0.392295
vn -0.179727 0.925613 0.333075
vn -0.316644 0.932689 0.172705
vn -0.507206 0.821692 0.259930
vn -0.642029 0.764933 0.051735
vn -0.128723 0.949146 0.287318
vn -0.062712 0.980893 0.184166
vn -0.369472 0.921132 -0.122496
vn -0.657150 0.749687 -0.078251
vn -0.107710 0.983557 -0.144959
vn -0.623919 0.729811 -0.279466
vn -0.293812 0.922878 -0.248939
vn -0.224929 0.952917 -0.203361
s 1
g pPlane9
usemtl initialShadingGroup
f 18/1/1 19/2/2 17/3/3
f 17/3/3 19/2/2 20/4/4
f 21/5/5 22/6/6 18/1/1
f 18/1/1 22/6/6 19/2/2
f 23/7/7 24/8/8 26/9/9
f 26/9/9 24/8/8 25/10/10
f 19/2/2 27/11/11 20/4/4
f 20/4/4 27/11/11 28/12/12
f 22/6/6 29/13/13 19/2/2
f 19/2/2 29/13/13 27/11/11
f 25/10/10 30/14/14 26/9/9
f 26/9/9 30/14/14 31/15/15
f 32/16/16 33/17/17 35/18/18
f 35/18/18 33/17/17 34/19/19
f 33/17/17 36/20/20 34/19/19
f 34/19/19 36/20/20 37/21/21
f 39/22/22 40/23/23 38/24/24
f 38/24/24 40/23/23 41/25/25
f 31/15/15 30/14/14 38/24/24
f 38/24/24 30/14/14 39/22/22
f 27/11/11 29/13/13 33/17/17
f 33/17/17 29/13/13 36/20/20
f 28/12/12 27/11/11 32/16/16
f 32/16/16 27/11/11 33/17/17
f 21/5/5 23/7/7 22/6/6
f 22/6/6 23/7/7 26/9/9
f 22/6/6 26/9/9 29/13/13
f 29/13/13 26/9/9 31/15/15
f 29/13/13 31/15/15 36/20/20
f 36/20/20 31/15/15 38/24/24
f 36/20/20 38/24/24 37/21/21
f 37/21/21 38/24/24 41/25/25
f 1/26/26 2/27/27 17/3/3
f 17/3/3 2/27/27 18/1/1
f 1/26/26 17/3/3 5/28/28
f 5/28/28 17/3/3 20/4/4
f 2/27/27 15/29/29 18/1/1
f 18/1/1 15/29/29 21/5/5
f 4/30/30 24/8/8 3/31/31
f 3/31/31 24/8/8 23/7/7
f 4/30/30 6/32/32 24/8/8
f 24/8/8 6/32/32 25/10/10
f 5/28/28 20/4/4 14/33/33
f 14/33/33 20/4/4 28/12/12
f 6/32/32 13/34/34 25/10/10
f 25/10/10 13/34/34 30/14/14
f 9/35/35 35/18/18 10/36/36
f 10/36/36 35/18/18 34/19/19
f 7/37/37 32/16/16 9/35/35
f 9/35/35 32/16/16 35/18/18
f 16/38/38 10/36/36 37/21/21
f 37/21/21 10/36/36 34/19/19
f 12/39/39 40/23/23 8/40/40
f 8/40/40 40/23/23 39/22/22
f 12/39/39 11/41/41 40/23/23
f 40/23/23 11/41/41 41/25/25
f 8/40/40 39/22/22 13/34/34
f 13/34/34 39/22/22 30/14/14
f 7/37/37 14/33/33 32/16/16
f 32/16/16 14/33/33 28/12/12
f 3/31/31 23/7/7 15/29/29
f 15/29/29 23/7/7 21/5/5
f 11/41/41 16/38/38 41/25/25
f 41/25/25 16/38/38 37/21/21
s 9
f 43/42/42 46/43/43 42/44/44
f 42/44/44 46/43/43 45/45/45
f 44/46/46 47/47/47 43/42/42
f 43/42/42 47/47/47 46/43/43
f 43/42/42 42/44/44 49/48/48
f 49/48/48 42/44/44 48/49/49
f 45/45/45 51/50/50 42/44/44
f 42/44/44 51/50/50 50/51/51
f 46/43/43 53/52/52 45/45/45
f 45/45/45 53/52/52 52/53/53
f 46/43/43 47/47/47 53/52/52
f 53/52/52 47/47/47 54/54/54
f 45/45/45 52/53/53 51/50/50
f 51/50/50 52/53/53 55/55/55
f 52/53/53 53/52/52 56/56/56
f 56/56/56 53/52/52 57/57/57
f 54/54/54 58/58/58 53/52/52
f 53/52/52 58/58/58 57/57/57
f 52/53/53 56/56/56 55/55/55
f 55/55/55 56/56/56 59/59/59
s 10
f 60/60/60 61/61/61 64/62/62
f 64/62/62 61/61/61 65/63/63
f 61/61/61 62/64/64 65/63/63
f 65/63/63 62/64/64 66/65/65
f 62/64/64 63/66/66 66/65/65
f 66/65/65 63/66/66 67/67/67
f 64/62/62 65/63/63 68/68/68
f 68/68/68 65/63/63 69/69/69
f 66/65/65 70/70/70 65/63/63
f 65/63/63 70/70/70 69/69/69
f 67/67/67 71/71/71 66/65/65
f 66/65/65 71/71/71 70/70/70
f 69/69/69 73/72/72 68/68/68
f 68/68/68 73/72/72 72/73/73
f 70/70/70 74/74/74 69/69/69
f 69/69/69 74/74/74 73/72/72
f 71/71/71 75/75/75 70/70/70
f 70/70/70 75/75/75 74/74/74
s 11
f 77/76/76 81/77/77 76/78/78
f 76/78/78 81/77/77 80/79/79
f 77/76/76 78/80/80 81/77/77
f 81/77/77 78/80/80 82/81/81
f 78/80/80 79/82/82 82/81/81
f 82/81/81 79/82/82 83/83/83
f 80/79/79 81/77/77 84/84/84
f 84/84/84 81/77/77 85/85/85
f 81/77/77 82/81/81 85/85/85
f 85/85/85 82/81/81 86/86/86
f 83/83/83 87/87/87 82/81/81
f 82/81/81 87/87/87 86/86/86
f 84/84/84 85/85/85 88/88/88
f 88/88/88 85/85/85 89/89/89
f 85/85/85 86/86/86 89/89/89
f 89/89/89 86/86/86 90/90/90
f 87/87/87 91/91/91 86/86/86
f 86/86/86 91/91/91 90/90/90
s 12
f 92/92/92 93/93/93 96/94/94
f 96/94/94 93/93/93 97/95/95
f 93/93/93 94/96/96 97/95/95
f 97/95/95 94/96/96 98/97/97
f 95/98/98 99/99/99 94/96/96
f 94/96/96 99/99/99 98/97/97
f 96/94/94 97/95/95 100/100/100
f 100/100/100 97/95/95 101/101/101
f 97/95/95 98/97/97 101/101/101
f 101/101/101 98/97/97 102/102/102
f 98/97/97 99/99/99 102/102/102
f 102/102/102 99/99/99 103/103/103
f 100/100/100 101/101/101 104/104/104
f 104/104/104 101/101/101 105/105/105
f 102/102/102 106/106/106 101/101/101
f 101/101/101 106/106/106 105/105/105
f 103/103/103 107/107/107 102/102/102
f 102/102/102 107/107/107 106/106/106
s off
f 108/108/108 109/109/109 112/110/110
s 13
f 112/110/111 109/109/112 113/111/113
f 110/112/114 114/113/115 109/109/112
f 109/109/112 114/113/115 113/111/113
f 110/112/114 111/114/116 114/113/115
f 114/113/115 111/114/116 115/115/117
f 113/111/113 117/116/118 112/110/111
f 112/110/111 117/116/118 116/117/119
f 114/113/115 118/118/120 113/111/113
f 113/111/113 118/118/120 117/116/121
f 114/113/115 115/115/117 118/118/122
f 118/118/122 115/115/117 119/119/123
f 121/120/124 120/121/125 117/116/118
f 116/117/119 117/116/118 120/121/125
f 117/116/118 118/118/122 121/120/124
f 121/120/124 118/118/122 122/122/126
f 118/118/122 119/119/123 122/122/126
f 122/122/126 119/119/123 123/123/127
s 15
f 125/124/128 130/125/129 124/126/130
f 124/126/130 130/125/129 129/127/131
f 126/128/132 131/129/133 125/124/128
f 125/124/128 131/129/133 130/125/129
f 127/130/134 132/131/135 126/128/132
f 126/128/132 132/131/135 131/129/133
f 127/130/134 128/132/136 132/131/135
f 132/131/135 128/132/136 133/133/137
f 130/125/129 135/134/138 129/127/131
f 129/127/131 135/134/138 134/135/139
f 131/129/133 136/136/140 130/125/129
f 130/125/129 136/136/140 135/134/138
f 132/131/135 137/137/141 131/129/133
f 131/129/133 137/137/141 136/136/140
f 133/133/137 138/138/142 132/131/135
f 132/131/135 138/138/142 137/137/141
f 134/135/139 135/134/138 139/139/143
f 139/139/144 135/134/138 140/140/145
f 135/134/138 136/136/140 140/140/145
f 140/140/145 136/136/140 141/141/146
f 137/137/141 142/142/147 136/136/140
f 136/136/140 142/142/147 141/141/146
f 138/138/142 143/143/148 137/137/141
f 137/137/141 143/143/148 142/142/147
s 19
f 145/144/149 148/145/150 144/146/151
f 144/146/151 148/145/150 147/147/152
f 146/148/153 149/149/154 145/144/149
f 145/144/149 149/149/154 148/145/150
f 148/145/150 151/150/155 147/147/152
f 147/147/152 151/150/155 150/151/156
f 148/145/150 149/149/154 151/150/155
f 151/150/155 149/149/154 152/152/157
f 150/151/156 151/150/155 153/153/158
f 153/153/158 151/150/155 154/154/159
f 151/150/155 152/152/157 154/154/159
f 154/154/159 152/152/157 155/155/160
