# This file uses centimeters as units for non-parametric coordinates.

mtllib barracks_1.mtl
g default
v -143.253342 -9.553540 347.510040
v -136.242020 -9.553540 391.777832
v -115.894379 -9.553540 431.712311
v -84.202187 -9.553540 463.404480
v -44.267712 -9.553540 483.752075
v -0.000008 -9.553540 490.763458
v 44.267696 -9.553540 483.752075
v 84.202164 -9.553540 463.404480
v 115.894341 -9.553540 431.712311
v 136.241974 -9.553540 391.777832
v 143.253296 -9.553540 347.510040
v -0.000004 -9.553540 347.510040
v 207.929993 83.849007 -360.145111
v -207.929840 83.849007 -360.145203
v -415.859802 83.849007 -0.000062
v -207.929947 83.849007 360.145142
v 207.929886 83.849007 360.145172
v 415.859802 83.849007 0.000000
v 0.000000 232.998367 0.000000
v 229.325867 -9.553540 297.816040
v 271.168579 -9.553540 313.877960
v 315.926666 -9.553540 316.223633
v 359.218994 -9.553540 304.623474
v 396.807739 -9.553540 280.213013
v 425.013641 -9.553540 245.381744
v 441.075439 -9.553540 203.539078
v 443.421143 -9.553540 158.781021
v 431.821014 -9.553540 115.488716
v 407.410553 -9.553540 77.899902
v 372.579193 -9.553540 49.694031
v 300.952545 -9.553540 173.755020
v 372.579224 -9.553540 -49.693985
v 407.410583 -9.553540 -77.899872
v 431.821045 -9.553540 -115.488686
v 443.421173 -9.553540 -158.781006
v 441.075470 -9.553540 -203.539078
v 425.013641 -9.553540 -245.381714
v 396.807739 -9.553540 -280.212982
v 359.218994 -9.553540 -304.623444
v 315.926697 -9.553540 -316.223602
v 271.168579 -9.553540 -313.877930
v 229.325897 -9.553540 -297.816010
v 300.952545 -9.553540 -173.755005
v 143.253342 -9.553540 -347.510040
v 136.242020 -9.553540 -391.777832
v 115.894379 -9.553540 -431.712311
v 84.202187 -9.553540 -463.404480
v 44.267712 -9.553540 -483.752075
v 0.000008 -9.553540 -490.763458
v -44.267696 -9.553540 -483.752075
v -84.202164 -9.553540 -463.404480
v -115.894341 -9.553540 -431.712311
v -136.241974 -9.553540 -391.777832
v -143.253296 -9.553540 -347.510040
v 0.000004 -9.553540 -347.510040
v -229.325867 -9.553540 -297.816040
v -271.168579 -9.553540 -313.877960
v -315.926666 -9.553540 -316.223633
v -359.218994 -9.553540 -304.623474
v -396.807739 -9.553540 -280.213013
v -425.013641 -9.553540 -245.381744
v -441.075439 -9.553540 -203.539078
v -443.421143 -9.553540 -158.781021
v -431.821014 -9.553540 -115.488716
v -407.410553 -9.553540 -77.899902
v -372.579193 -9.553540 -49.694031
v -300.952545 -9.553540 -173.755020
v -372.579224 -9.553540 49.693985
v -407.410583 -9.553540 77.899872
v -431.821045 -9.553540 115.488686
v -443.421173 -9.553540 158.781006
v -441.075470 -9.553540 203.539078
v -425.013641 -9.553540 245.381714
v -396.807739 -9.553540 280.212982
v -359.218994 -9.553540 304.623444
v -315.926697 -9.553540 316.223602
v -271.168579 -9.553540 313.877930
v -229.325897 -9.553540 297.816010
v -300.952545 -9.553540 173.755005
vt 0.360104 0.160635
vt 0.366951 0.117404
vt 0.500000 0.160635
vt 0.386822 0.078406
vt 0.417771 0.047457
vt 0.456770 0.027586
vt 0.500000 0.020739
vt 0.543230 0.027586
vt 0.582229 0.047457
vt 0.613178 0.078406
vt 0.633049 0.117404
vt 0.639896 0.160635
vt 0.703057 0.851704
vt 0.296944 0.851704
vt 0.500000 0.500000
vt 0.093887 0.500000
vt 0.296943 0.148296
vt 0.703057 0.148296
vt 0.906113 0.500000
vt 0.723951 0.209164
vt 0.764813 0.193479
vt 0.793899 0.330317
vt 0.808522 0.191188
vt 0.850800 0.202516
vt 0.887508 0.226354
vt 0.915052 0.260369
vt 0.930738 0.301231
vt 0.933028 0.344940
vt 0.921700 0.387218
vt 0.897862 0.423926
vt 0.863847 0.451471
vt 0.863847 0.548529
vt 0.897862 0.576074
vt 0.793899 0.669683
vt 0.921700 0.612782
vt 0.933028 0.655060
vt 0.930738 0.698769
vt 0.915052 0.739631
vt 0.887508 0.773646
vt 0.850800 0.797484
vt 0.808522 0.808812
vt 0.764813 0.806521
vt 0.723951 0.790836
vt 0.639896 0.839365
vt 0.633049 0.882596
vt 0.500000 0.839365
vt 0.613178 0.921594
vt 0.582229 0.952543
vt 0.543230 0.972414
vt 0.500000 0.979261
vt 0.456770 0.972414
vt 0.417771 0.952543
vt 0.386822 0.921594
vt 0.366951 0.882596
vt 0.360104 0.839365
vt 0.276049 0.790836
vt 0.235187 0.806521
vt 0.206101 0.669683
vt 0.191478 0.808812
vt 0.149200 0.797484
vt 0.112492 0.773646
vt 0.084948 0.739631
vt 0.069262 0.698769
vt 0.066972 0.655060
vt 0.078300 0.612782
vt 0.102138 0.576074
vt 0.136153 0.548529
vt 0.136153 0.451471
vt 0.102138 0.423926
vt 0.206101 0.330317
vt 0.078300 0.387218
vt 0.066972 0.344940
vt 0.069262 0.301231
vt 0.084948 0.260369
vt 0.112492 0.226354
vt 0.149200 0.202516
vt 0.191478 0.191188
vt 0.235187 0.193479
vt 0.276049 0.209164
vn 0.000000 1.000000 0.000000
vn 0.000000 1.000000 -0.000000
vn 0.000000 1.000000 -0.000000
vn 0.000000 1.000000 -0.000000
vn 0.000000 1.000000 0.000000
vn 0.000000 1.000000 0.000000
vn 0.000000 1.000000 -0.000000
vn 0.000000 1.000000 -0.000000
vn 0.000000 1.000000 -0.000000
vn 0.000000 1.000000 0.000000
vn 0.000000 1.000000 0.000000
vn 0.000000 1.000000 -0.000000
vn 0.168798 0.941291 -0.292367
vn -0.168798 0.941291 -0.292367
vn -0.000000 1.000000 -0.000000
vn -0.337597 0.941291 -0.000000
vn -0.168798 0.941291 0.292367
vn 0.168798 0.941291 0.292367
vn 0.337597 0.941291 0.000000
vn 0.000000 1.000000 0.000000
vn 0.000000 1.000000 -0.000000
vn 0.000000 1.000000 -0.000000
vn 0.000000 1.000000 -0.000000
vn 0.000000 1.000000 -0.000000
vn 0.000000 1.000000 0.000000
vn 0.000000 1.000000 0.000000
vn 0.000000 1.000000 0.000000
vn 0.000000 1.000000 0.000000
vn 0.000000 1.000000 0.000000
vn 0.000000 1.000000 -0.000000
vn 0.000000 1.000000 -0.000000
vn 0.000000 1.000000 0.000000
vn 0.000000 1.000000 0.000000
vn 0.000000 1.000000 -0.000000
vn 0.000000 1.000000 0.000000
vn 0.000000 1.000000 -0.000000
vn 0.000000 1.000000 0.000000
vn 0.000000 1.000000 0.000000
vn 0.000000 1.000000 0.000000
vn 0.000000 1.000000 0.000000
vn 0.000000 1.000000 0.000000
vn 0.000000 1.000000 0.000000
vn 0.000000 1.000000 0.000000
vn 0.000000 1.000000 0.000000
vn 0.000000 1.000000 0.000000
vn 0.000000 1.000000 0.000000
vn 0.000000 1.000000 0.000000
vn 0.000000 1.000000 -0.000000
vn 0.000000 1.000000 -0.000000
vn 0.000000 1.000000 0.000000
vn 0.000000 1.000000 0.000000
vn 0.000000 1.000000 0.000000
vn 0.000000 1.000000 -0.000000
vn 0.000000 1.000000 -0.000000
vn 0.000000 1.000000 0.000000
vn 0.000000 1.000000 0.000000
vn 0.000000 1.000000 0.000000
vn 0.000000 1.000000 0.000000
vn 0.000000 1.000000 0.000000
vn 0.000000 1.000000 0.000000
vn 0.000000 1.000000 0.000000
vn 0.000000 1.000000 0.000000
vn 0.000000 1.000000 0.000000
vn 0.000000 1.000000 0.000000
vn 0.000000 1.000000 0.000000
vn 0.000000 1.000000 0.000000
vn 0.000000 1.000000 0.000000
vn 0.000000 1.000000 0.000000
vn 0.000000 1.000000 0.000000
vn 0.000000 1.000000 0.000000
vn 0.000000 1.000000 0.000000
vn 0.000000 1.000000 0.000000
vn 0.000000 1.000000 -0.000000
vn 0.000000 1.000000 -0.000000
vn 0.000000 1.000000 0.000000
vn 0.000000 1.000000 0.000000
vn 0.000000 1.000000 0.000000
vn 0.000000 1.000000 0.000000
vn 0.000000 1.000000 0.000000
s 1
g pCylinder13
usemtl initialShadingGroup
f 1/1/1 2/2/2 12/3/3
f 2/2/2 3/4/4 12/3/3
f 3/4/4 4/5/5 12/3/3
f 4/5/5 5/6/6 12/3/3
f 5/6/6 6/7/7 12/3/3
f 6/7/7 7/8/8 12/3/3
f 7/8/8 8/9/9 12/3/3
f 8/9/9 9/10/10 12/3/3
f 9/10/10 10/11/11 12/3/3
f 10/11/11 11/12/12 12/3/3
s 2
f 13/13/13 14/14/14 19/15/15
f 14/14/14 15/16/16 19/15/15
f 15/16/16 16/17/17 19/15/15
f 16/17/17 17/18/18 19/15/15
f 17/18/18 18/19/19 19/15/15
f 18/19/19 13/13/13 19/15/15
s 3
f 20/20/20 21/21/21 31/22/22
f 21/21/21 22/23/23 31/22/22
f 22/23/23 23/24/24 31/22/22
f 23/24/24 24/25/25 31/22/22
f 24/25/25 25/26/26 31/22/22
f 25/26/26 26/27/27 31/22/22
f 26/27/27 27/28/28 31/22/22
f 27/28/28 28/29/29 31/22/22
f 28/29/29 29/30/30 31/22/22
f 29/30/30 30/31/31 31/22/22
s 4
f 32/32/32 33/33/33 43/34/34
f 33/33/33 34/35/35 43/34/34
f 34/35/35 35/36/36 43/34/34
f 35/36/36 36/37/37 43/34/34
f 36/37/37 37/38/38 43/34/34
f 37/38/38 38/39/39 43/34/34
f 38/39/39 39/40/40 43/34/34
f 39/40/40 40/41/41 43/34/34
f 40/41/41 41/42/42 43/34/34
f 41/42/42 42/43/43 43/34/34
s 5
f 44/44/44 45/45/45 55/46/46
f 45/45/45 46/47/47 55/46/46
f 46/47/47 47/48/48 55/46/46
f 47/48/48 48/49/49 55/46/46
f 48/49/49 49/50/50 55/46/46
f 49/50/50 50/51/51 55/46/46
f 50/51/51 51/52/52 55/46/46
f 51/52/52 52/53/53 55/46/46
f 52/53/53 53/54/54 55/46/46
f 53/54/54 54/55/55 55/46/46
s 6
f 56/56/56 57/57/57 67/58/58
f 57/57/57 58/59/59 67/58/58
f 58/59/59 59/60/60 67/58/58
f 59/60/60 60/61/61 67/58/58
f 60/61/61 61/62/62 67/58/58
f 61/62/62 62/63/63 67/58/58
f 62/63/63 63/64/64 67/58/58
f 63/64/64 64/65/65 67/58/58
f 64/65/65 65/66/66 67/58/58
f 65/66/66 66/67/67 67/58/58
s 7
f 68/68/68 69/69/69 79/70/70
f 69/69/69 70/71/71 79/70/70
f 70/71/71 71/72/72 79/70/70
f 71/72/72 72/73/73 79/70/70
f 72/73/73 73/74/74 79/70/70
f 73/74/74 74/75/75 79/70/70
f 74/75/75 75/76/76 79/70/70
f 75/76/76 76/77/77 79/70/70
f 76/77/77 77/78/78 79/70/70
f 77/78/78 78/79/79 79/70/70
