# This file uses centimeters as units for non-parametric coordinates.

mtllib neutral_4.mtl
g default
v -33.536865 -4.199429 53.417145
v -8.988779 0.000000 -52.774239
v -8.991151 -0.000000 84.000496
v -86.352020 -13.198205 84.002663
v 33.536865 -4.199429 53.417145
v 8.988779 0.000000 -52.774239
v 8.991151 -0.000000 84.000496
v 86.352020 -13.198205 84.002663
v 9.199772 2.441492 -48.988255
v 7.041203 4.511292 -48.988255
v 3.810674 5.894290 -48.988255
v 0.000005 6.379934 -48.988255
v -3.810665 5.894293 -48.988255
v -7.041197 4.511297 -48.988255
v -9.199769 2.441498 -48.988255
v -9.957760 0.000002 -48.988255
v 9.957760 -0.000000 -48.988255
v 9.199772 2.441492 84.990593
v 7.041203 4.511292 84.990593
v 3.810674 5.894290 84.990593
v 0.000005 6.379934 84.990593
v -3.810665 5.894293 84.990593
v -7.041197 4.511297 84.990593
v -9.199769 2.441498 84.990593
v -9.957760 0.000002 84.990593
v 9.957760 0.000000 84.990593
v 2.050558 6.196382 53.739094
v 1.183890 6.934510 53.739094
v 0.000000 7.204683 53.739094
v -1.183890 6.934510 53.739094
v -2.050558 6.196382 53.739094
v -2.367780 5.188081 53.739094
v 2.367780 5.188081 53.739094
v 3.788937 7.051178 55.933109
v 2.187544 8.415060 55.933109
v 0.000000 8.914276 55.933109
v -2.187544 8.415060 55.933109
v -3.788937 7.051178 55.933109
v -4.375088 5.188081 55.933109
v 4.375088 5.188081 55.933109
v 4.950485 7.622335 59.216740
v 2.858164 9.404332 59.216740
v 0.000000 10.056589 59.216740
v -2.858164 9.404332 59.216740
v -4.950485 7.622335 59.216740
v -5.716328 5.188081 59.216740
v 5.716328 5.188081 59.216740
v 5.358366 7.822898 63.090019
v 3.093654 9.751719 63.090019
v 0.000000 10.457716 63.090019
v -3.093654 9.751719 63.090019
v -5.358366 7.822898 63.090019
v -6.187308 5.188081 63.090019
v 6.187308 5.188081 63.090019
v 4.950485 7.622335 66.963295
v 2.858164 9.404332 66.963295
v 0.000000 10.056589 66.963295
v -2.858164 9.404332 66.963295
v -4.950485 7.622335 66.963295
v -5.716328 5.188081 66.963295
v 5.716328 5.188081 66.963295
v 3.788937 7.051178 70.246925
v 2.187544 8.415060 70.246925
v 0.000000 8.914276 70.246925
v -2.187544 8.415060 70.246925
v -3.788937 7.051178 70.246925
v -4.375088 5.188081 70.246925
v 4.375088 5.188081 70.246925
v 2.050558 6.196382 72.440941
v 1.183890 6.934510 72.440941
v 0.000000 7.204683 72.440941
v -1.183890 6.934510 72.440941
v -2.050558 6.196382 72.440941
v -2.367780 5.188081 72.440941
v 2.367780 5.188081 72.440941
v 0.000000 5.188081 52.968643
v 0.000000 5.188081 73.211395
v 0.000000 0.000000 -90.664703
vt 0.313684 0.203238
vt 0.450049 0.033331
vt 0.450062 0.793190
vt 0.020267 0.033319
vt 0.686316 0.203238
vt 0.549938 0.793190
vt 0.549951 0.033331
vt 0.979733 0.033319
vt 0.551110 0.772157
vt 0.539118 0.772157
vt 0.551110 0.027830
vt 0.539118 0.027830
vt 0.521170 0.772157
vt 0.521170 0.027830
vt 0.500000 0.772157
vt 0.500000 0.027830
vt 0.478830 0.772157
vt 0.478830 0.027830
vt 0.460882 0.772157
vt 0.460882 0.027830
vt 0.448890 0.772157
vt 0.448890 0.027830
vt 0.444679 0.772157
vt 0.444679 0.027830
vt 0.555321 0.772157
vt 0.555321 0.027830
vt 0.511392 0.201450
vt 0.506577 0.201450
vt 0.521050 0.189260
vt 0.512153 0.189260
vt 0.500000 0.201450
vt 0.500000 0.189260
vt 0.493423 0.201450
vt 0.487847 0.189260
vt 0.488608 0.201450
vt 0.478950 0.189260
vt 0.486846 0.201450
vt 0.475694 0.189260
vt 0.513154 0.201450
vt 0.524306 0.189260
vt 0.527503 0.171018
vt 0.515879 0.171018
vt 0.500000 0.171018
vt 0.484121 0.171018
vt 0.472497 0.171018
vt 0.468243 0.171018
vt 0.531757 0.171018
vt 0.529769 0.149500
vt 0.517187 0.149500
vt 0.500000 0.149500
vt 0.482813 0.149500
vt 0.470231 0.149500
vt 0.465626 0.149500
vt 0.534374 0.149500
vt 0.527503 0.127982
vt 0.515879 0.127982
vt 0.500000 0.127982
vt 0.484121 0.127982
vt 0.472497 0.127982
vt 0.468243 0.127982
vt 0.531757 0.127982
vt 0.521050 0.109739
vt 0.512153 0.109739
vt 0.500000 0.109739
vt 0.487847 0.109739
vt 0.478950 0.109739
vt 0.475694 0.109739
vt 0.524306 0.109739
vt 0.511392 0.097550
vt 0.506577 0.097550
vt 0.500000 0.097550
vt 0.493423 0.097550
vt 0.488608 0.097550
vt 0.486846 0.097550
vt 0.513154 0.097550
vt 0.500000 0.205730
vt 0.500000 0.093270
vt 0.500000 1.003693
vn -0.168632 0.985679 -0.000003
vn -0.168632 0.985679 -0.000003
vn -0.168632 0.985679 -0.000003
vn -0.168176 0.985757 -0.000380
vn -0.168176 0.985757 -0.000380
vn -0.168176 0.985757 -0.000380
vn 0.168632 0.985679 -0.000003
vn 0.168632 0.985679 -0.000003
vn 0.168632 0.985679 -0.000003
vn 0.168176 0.985757 -0.000380
vn 0.168176 0.985757 -0.000380
vn 0.168176 0.985757 -0.000380
vn 0.839784 0.542922 0.000000
vn 0.539472 0.842004 0.000000
vn 0.839784 0.542921 0.000000
vn 0.539472 0.842003 0.000000
vn 0.256508 0.966542 0.000000
vn 0.256508 0.966542 0.000000
vn 0.000000 1.000000 0.000000
vn 0.000000 1.000000 0.000000
vn -0.256507 0.966542 0.000000
vn -0.256507 0.966542 0.000000
vn -0.539471 0.842004 0.000000
vn -0.539471 0.842004 0.000000
vn -0.839783 0.542922 0.000000
vn -0.839783 0.542922 0.000000
vn -0.955033 0.296501 0.000000
vn -0.955032 0.296502 0.000000
vn 0.955033 0.296501 0.000000
vn 0.955033 0.296501 0.000000
vn 0.523207 0.335270 -0.783485
vn 0.300003 0.574632 -0.761444
vn 0.733070 0.478626 -0.483245
vn 0.405316 0.792375 -0.455917
vn 0.018781 0.662185 -0.749105
vn 0.013211 0.896533 -0.442779
vn -0.267709 0.595887 -0.757133
vn -0.381303 0.805372 -0.453855
vn -0.504795 0.371475 -0.779223
vn -0.717590 0.503683 -0.481007
vn -0.608375 0.191401 -0.770224
vn -0.836824 0.263274 -0.480013
vn 0.584668 0.183943 -0.790144
vn 0.836739 0.263247 -0.480177
vn 0.811678 0.538349 -0.226626
vn 0.439168 0.873314 -0.210842
vn 0.006564 0.978990 -0.203805
vn -0.426947 0.879459 -0.210398
vn -0.803375 0.550868 -0.226124
vn -0.929064 0.292293 -0.226728
vn 0.929716 0.292499 -0.223769
vn 0.829305 0.558796 0.000035
vn 0.443288 0.896379 0.000027
vn -0.000000 1.000000 0.000000
vn -0.443288 0.896379 -0.000027
vn -0.829305 0.558796 -0.000035
vn -0.953904 0.300108 -0.001658
vn 0.953904 0.300109 0.001658
vn 0.803375 0.550868 0.226125
vn 0.426947 0.879459 0.210399
vn -0.006564 0.978990 0.203805
vn -0.439167 0.873314 0.210842
vn -0.811678 0.538349 0.226626
vn -0.929716 0.292499 0.223769
vn 0.929063 0.292294 0.226728
vn 0.717590 0.503683 0.481007
vn 0.381303 0.805372 0.453855
vn -0.013211 0.896533 0.442779
vn -0.405316 0.792375 0.455917
vn -0.733070 0.478625 0.483245
vn -0.836738 0.263247 0.480177
vn 0.836824 0.263274 0.480013
vn 0.504797 0.371475 0.779222
vn 0.267710 0.595887 0.757133
vn -0.018781 0.662186 0.749104
vn -0.300002 0.574632 0.761444
vn -0.523208 0.335270 0.783485
vn -0.584668 0.183943 0.790145
vn 0.608376 0.191401 0.770223
vn 0.000002 0.257312 -0.966329
vn -0.000001 0.257313 0.966328
vn -0.931099 0.289071 -0.222468
vn -0.826118 0.521721 -0.212923
vn -0.000000 0.976970 -0.213378
vn -0.538293 0.823297 -0.180063
vn -0.257566 0.953196 -0.158361
vn 0.000000 0.988485 -0.151320
vn 0.257567 0.953195 -0.158361
vn 0.538294 0.823296 -0.180063
vn 0.826119 0.521720 -0.212923
vn 0.931100 0.289070 -0.222468
s off
g pPlane8
usemtl initialShadingGroup
f 1/1/1 3/2/2 2/3/3
f 3/2/4 1/1/5 4/4/6
f 5/5/7 6/6/8 7/7/9
f 7/7/10 8/8/11 5/5/12
s 1
f 9/9/13 10/10/14 18/11/15
f 18/11/15 10/10/14 19/12/16
f 10/10/14 11/13/17 19/12/16
f 19/12/16 11/13/17 20/14/18
f 11/13/17 12/15/19 20/14/18
f 20/14/18 12/15/19 21/16/20
f 12/15/19 13/17/21 21/16/20
f 21/16/20 13/17/21 22/18/22
f 13/17/21 14/19/23 22/18/22
f 22/18/22 14/19/23 23/20/24
f 14/19/23 15/21/25 23/20/24
f 23/20/24 15/21/25 24/22/26
f 15/21/25 16/23/27 24/22/26
f 24/22/26 16/23/27 25/24/28
f 17/25/29 9/9/13 26/26/30
f 26/26/30 9/9/13 18/11/15
s 2
f 27/27/31 28/28/32 34/29/33
f 34/29/33 28/28/32 35/30/34
f 28/28/32 29/31/35 35/30/34
f 35/30/34 29/31/35 36/32/36
f 29/31/35 30/33/37 36/32/36
f 36/32/36 30/33/37 37/34/38
f 30/33/37 31/35/39 37/34/38
f 37/34/38 31/35/39 38/36/40
f 31/35/39 32/37/41 38/36/40
f 38/36/40 32/37/41 39/38/42
f 33/39/43 27/27/31 40/40/44
f 40/40/44 27/27/31 34/29/33
f 34/29/33 35/30/34 41/41/45
f 41/41/45 35/30/34 42/42/46
f 35/30/34 36/32/36 42/42/46
f 42/42/46 36/32/36 43/43/47
f 36/32/36 37/34/38 43/43/47
f 43/43/47 37/34/38 44/44/48
f 37/34/38 38/36/40 44/44/48
f 44/44/48 38/36/40 45/45/49
f 38/36/40 39/38/42 45/45/49
f 45/45/49 39/38/42 46/46/50
f 40/40/44 34/29/33 47/47/51
f 47/47/51 34/29/33 41/41/45
f 41/41/45 42/42/46 48/48/52
f 48/48/52 42/42/46 49/49/53
f 42/42/46 43/43/47 49/49/53
f 49/49/53 43/43/47 50/50/54
f 43/43/47 44/44/48 50/50/54
f 50/50/54 44/44/48 51/51/55
f 44/44/48 45/45/49 51/51/55
f 51/51/55 45/45/49 52/52/56
f 45/45/49 46/46/50 52/52/56
f 52/52/56 46/46/50 53/53/57
f 47/47/51 41/41/45 54/54/58
f 54/54/58 41/41/45 48/48/52
f 48/48/52 49/49/53 55/55/59
f 55/55/59 49/49/53 56/56/60
f 49/49/53 50/50/54 56/56/60
f 56/56/60 50/50/54 57/57/61
f 50/50/54 51/51/55 57/57/61
f 57/57/61 51/51/55 58/58/62
f 51/51/55 52/52/56 58/58/62
f 58/58/62 52/52/56 59/59/63
f 52/52/56 53/53/57 59/59/63
f 59/59/63 53/53/57 60/60/64
f 54/54/58 48/48/52 61/61/65
f 61/61/65 48/48/52 55/55/59
f 55/55/59 56/56/60 62/62/66
f 62/62/66 56/56/60 63/63/67
f 56/56/60 57/57/61 63/63/67
f 63/63/67 57/57/61 64/64/68
f 57/57/61 58/58/62 64/64/68
f 64/64/68 58/58/62 65/65/69
f 58/58/62 59/59/63 65/65/69
f 65/65/69 59/59/63 66/66/70
f 59/59/63 60/60/64 66/66/70
f 66/66/70 60/60/64 67/67/71
f 61/61/65 55/55/59 68/68/72
f 68/68/72 55/55/59 62/62/66
f 62/62/66 63/63/67 69/69/73
f 69/69/73 63/63/67 70/70/74
f 63/63/67 64/64/68 70/70/74
f 70/70/74 64/64/68 71/71/75
f 64/64/68 65/65/69 71/71/75
f 71/71/75 65/65/69 72/72/76
f 65/65/69 66/66/70 72/72/76
f 72/72/76 66/66/70 73/73/77
f 66/66/70 67/67/71 73/73/77
f 73/73/77 67/67/71 74/74/78
f 68/68/72 62/62/66 75/75/79
f 75/75/79 62/62/66 69/69/73
f 28/28/32 27/27/31 76/76/80
f 29/31/35 28/28/32 76/76/80
f 30/33/37 29/31/35 76/76/80
f 31/35/39 30/33/37 76/76/80
f 32/37/41 31/35/39 76/76/80
f 27/27/31 33/39/43 76/76/80
f 69/69/73 70/70/74 77/77/81
f 70/70/74 71/71/75 77/77/81
f 71/71/75 72/72/76 77/77/81
f 72/72/76 73/73/77 77/77/81
f 73/73/77 74/74/78 77/77/81
f 75/75/79 69/69/73 77/77/81
s 4
f 16/23/82 15/21/83 78/78/84
f 15/21/83 14/19/85 78/78/84
f 14/19/85 13/17/86 78/78/84
f 13/17/86 12/15/87 78/78/84
f 12/15/87 11/13/88 78/78/84
f 11/13/88 10/10/89 78/78/84
f 10/10/89 9/9/90 78/78/84
f 9/9/90 17/25/91 78/78/84
