# This file uses centimeters as units for non-parametric coordinates.

g default1
v -0.238937 -7.586287 0.402537
v 0.259774 -7.650029 0.655882
v 0.758485 -7.586287 0.402537
v 0.965058 -7.522544 -0.000000
v -0.445510 -7.522544 -0.000000
v -0.987004 6.613336 0.707107
v 0.259774 6.613336 1.000000
v 1.506551 6.613336 0.707107
v 2.022983 6.613336 0.000000
v -1.503436 6.613336 0.000000
v 0.259774 -7.586287 -0.000000
v 0.259774 6.613336 0.000000
v 1.174077 -6.803158 0.613674
v 0.259774 -6.803158 0.965774
v -0.654530 -6.803158 0.613674
v -1.033247 -6.803158 -0.000000
v 1.552794 -6.803158 -0.000000
v 1.401100 -6.099213 0.707107
v 0.259774 -6.099213 1.000000
v -0.881552 -6.099213 0.707107
v -1.454458 -6.099213 -0.000000
v 1.974005 -6.099213 -0.000000
v 1.506551 -5.491260 0.707107
v 0.259774 -5.491260 1.000000
v -0.987004 -5.491260 0.707107
v -1.503436 -5.491260 -0.000000
v 2.022983 -5.491260 -0.000000
v -1.456784 -0.971631 -0.000000
v -3.200686 -0.971631 -0.000000
v -1.456784 -3.507949 -0.000000
v -2.052490 -3.507949 -0.000000
v -1.456784 6.518178 0.000000
v -3.200686 7.087777 0.000000
v -1.456784 3.434168 0.000000
v -2.052490 3.434168 0.000000
v 1.916845 -0.971631 -0.000000
v 3.660747 -0.971631 -0.000000
v 1.916845 -3.507949 -0.000000
v 2.512551 -3.507949 -0.000000
v 1.916845 6.518178 0.000000
v 3.660747 7.087777 0.000000
v 1.916845 3.434168 0.000000
v 2.512551 3.434168 0.000000
v 0.507651 -1.014823 1.622051
v -0.025682 -1.014823 1.622051
v 0.507651 -3.498156 0.993361
v -0.025682 -3.498156 0.993361
v 0.507651 7.512482 1.622051
v -0.025682 7.512482 1.622051
v 0.507651 3.441351 0.993361
v -0.025682 3.441351 0.993361
vt 0.495941 0.619532
vt 0.495941 0.606299
vt 0.503733 0.618536
vt 0.510227 0.606299
vt 0.488149 0.618536
vt 0.481655 0.606299
vt 0.484921 0.617540
vt 0.475738 0.606299
vt 0.506961 0.617540
vt 0.516145 0.606299
vt 0.495941 0.618536
vt 0.515422 0.396667
vt 0.495941 0.396667
vt 0.495941 0.396667
vt 0.476460 0.396667
vt 0.468391 0.396667
vt 0.523491 0.396667
vt 0.495941 0.595300
vt 0.478108 0.595300
vt 0.513774 0.595300
vt 0.522726 0.595300
vt 0.469156 0.595300
vt 0.495941 0.585801
vt 0.476460 0.585801
vt 0.515422 0.585801
vt 0.523491 0.585801
vt 0.468391 0.585801
vt 0.550011 0.515182
vt 0.532070 0.554812
vt 0.522762 0.515182
vt 0.522762 0.554812
vt 0.550011 0.389253
vt 0.532070 0.446341
vt 0.522762 0.398153
vt 0.522762 0.446341
vt 0.470049 0.554812
vt 0.460741 0.554812
vt 0.470049 0.515182
vt 0.442801 0.515182
vt 0.470049 0.446341
vt 0.460741 0.446341
vt 0.470049 0.398153
vt 0.442801 0.389253
vt 0.492068 0.515857
vt 0.500401 0.515857
vt 0.492068 0.554659
vt 0.500401 0.554659
vt 0.492068 0.382617
vt 0.500401 0.382617
vt 0.492068 0.446229
vt 0.500401 0.446229
vn -0.462040 -0.304761 0.832851
vn -0.367440 -0.210517 0.905909
vn -0.379102 -0.368928 0.848631
vn -0.379102 -0.368928 0.848631
vn -0.367440 -0.210517 0.905909
vn -0.302005 -0.262794 0.916369
vn 0.462040 -0.304761 0.832850
vn 0.379102 -0.368928 0.848631
vn 0.367440 -0.210517 0.905909
vn 0.367440 -0.210517 0.905909
vn 0.379102 -0.368928 0.848631
vn 0.302005 -0.262794 0.916369
vn 0.795281 -0.510287 0.327314
vn 0.749537 -0.541988 0.380056
vn 0.767279 -0.452655 0.454297
vn 0.767279 -0.452655 0.454297
vn 0.749537 -0.541988 0.380056
vn 0.730725 -0.462824 0.501831
vn -0.795281 -0.510287 0.327314
vn -0.767280 -0.452655 0.454297
vn -0.749537 -0.541988 0.380056
vn -0.749537 -0.541988 0.380056
vn -0.767280 -0.452655 0.454297
vn -0.730726 -0.462824 0.501831
vn -0.000001 -0.995311 -0.096730
vn -0.083747 -0.991071 -0.103755
vn -0.000000 -0.994729 -0.102537
vn 0.083746 -0.991071 -0.103755
vn -0.000001 -0.995311 -0.096730
vn -0.000000 -0.994729 -0.102537
vn 0.089458 -0.989805 -0.110830
vn 0.083746 -0.991071 -0.103755
vn -0.000000 -0.994729 -0.102537
vn -0.083747 -0.991071 -0.103755
vn -0.089458 -0.989805 -0.110830
vn -0.000000 -0.994729 -0.102537
vn 0.000000 1.000000 0.000000
vn 0.000000 1.000000 0.000000
vn 0.000000 1.000000 0.000000
vn 0.000000 1.000000 0.000000
vn 0.000000 1.000000 0.000000
vn 0.000000 1.000000 0.000000
vn 0.000000 1.000000 0.000000
vn 0.000000 1.000000 0.000000
vn 0.000000 1.000000 0.000000
vn 0.000000 1.000000 0.000000
vn 0.000000 1.000000 0.000000
vn 0.000000 1.000000 0.000000
vn 0.367440 -0.210517 0.905909
vn 0.302005 -0.262794 0.916369
vn 0.279600 -0.060425 0.958213
vn 0.279600 -0.060425 0.958213
vn 0.302005 -0.262794 0.916369
vn 0.239022 -0.109415 0.964830
vn -0.367440 -0.210517 0.905909
vn -0.279600 -0.060426 0.958213
vn -0.302005 -0.262794 0.916369
vn -0.302005 -0.262794 0.916369
vn -0.279600 -0.060426 0.958213
vn -0.239022 -0.109415 0.964830
vn -0.767280 -0.452655 0.454297
vn -0.764030 -0.276158 0.583091
vn -0.730726 -0.462824 0.501831
vn -0.730726 -0.462824 0.501831
vn -0.764030 -0.276158 0.583091
vn -0.759712 -0.260469 0.595814
vn 0.767279 -0.452655 0.454297
vn 0.730725 -0.462824 0.501831
vn 0.764030 -0.276158 0.583091
vn 0.764030 -0.276158 0.583091
vn 0.730725 -0.462824 0.501831
vn 0.759712 -0.260469 0.595814
vn 0.279600 -0.060425 0.958213
vn 0.239022 -0.109415 0.964830
vn 0.229307 -0.000577 0.973354
vn 0.229307 -0.000577 0.973354
vn 0.239022 -0.109415 0.964830
vn 0.228694 -0.001704 0.973497
vn -0.279600 -0.060426 0.958213
vn -0.229307 -0.000577 0.973354
vn -0.239022 -0.109415 0.964830
vn -0.239022 -0.109415 0.964830
vn -0.229307 -0.000577 0.973354
vn -0.228694 -0.001704 0.973497
vn -0.764030 -0.276158 0.583091
vn -0.806562 -0.005688 0.591122
vn -0.759712 -0.260469 0.595814
vn -0.759712 -0.260469 0.595814
vn -0.806562 -0.005688 0.591122
vn -0.807550 -0.003022 0.589791
vn 0.764030 -0.276158 0.583091
vn 0.759712 -0.260469 0.595814
vn 0.806562 -0.005688 0.591122
vn 0.806562 -0.005688 0.591122
vn 0.759712 -0.260469 0.595814
vn 0.807551 -0.003022 0.589791
vn 0.229307 -0.000577 0.973354
vn 0.228694 -0.001704 0.973497
vn 0.228694 -0.000000 0.973498
vn 0.228694 -0.000000 0.973498
vn 0.228694 -0.001704 0.973497
vn 0.228694 -0.000000 0.973498
vn -0.228694 -0.001704 0.973497
vn -0.229307 -0.000577 0.973354
vn -0.228694 -0.000000 0.973498
vn -0.228694 -0.000000 0.973498
vn -0.229307 -0.000577 0.973354
vn -0.228694 -0.000000 0.973498
vn -0.807550 -0.003022 0.589791
vn -0.806562 -0.005688 0.591122
vn -0.807554 -0.000000 0.589794
vn -0.807554 -0.000000 0.589794
vn -0.806562 -0.005688 0.591122
vn -0.807554 -0.000000 0.589794
vn 0.806562 -0.005688 0.591122
vn 0.807551 -0.003022 0.589791
vn 0.807554 -0.000000 0.589793
vn 0.807554 -0.000000 0.589793
vn 0.807551 -0.003022 0.589791
vn 0.807554 -0.000000 0.589793
vn -0.000000 -0.000000 1.000000
vn -0.000000 -0.000000 1.000000
vn -0.000000 -0.000000 1.000000
vn -0.000000 -0.000000 1.000000
vn -0.000000 -0.000000 1.000000
vn -0.000000 -0.000000 1.000000
vn -0.000000 -0.000000 1.000000
vn -0.000000 -0.000000 1.000000
vn -0.000000 -0.000000 1.000000
vn -0.000000 -0.000000 1.000000
vn -0.000000 -0.000000 1.000000
vn -0.000000 -0.000000 1.000000
vn -0.000000 -0.000000 1.000000
vn -0.000000 -0.000000 1.000000
vn -0.000000 -0.000000 1.000000
vn -0.000000 -0.000000 1.000000
vn -0.000000 -0.000000 1.000000
vn -0.000000 -0.000000 1.000000
vn -0.000000 -0.000000 1.000000
vn -0.000000 -0.000000 1.000000
vn -0.000000 -0.000000 1.000000
vn -0.000000 -0.000000 1.000000
vn -0.000000 -0.000000 1.000000
vn -0.000000 -0.000000 1.000000
vn -0.000000 -0.245421 0.969417
vn -0.000000 -0.245421 0.969417
vn -0.000000 -0.245421 0.969417
vn -0.000000 -0.245421 0.969417
vn -0.000000 -0.245421 0.969417
vn -0.000000 -0.245421 0.969417
vn -0.000000 -0.152617 0.988285
vn -0.000000 -0.152617 0.988285
vn -0.000000 -0.152617 0.988285
vn -0.000000 -0.152617 0.988285
vn -0.000000 -0.152617 0.988285
vn -0.000000 -0.152617 0.988285
s off
g initialShadingGroup initialShadingGroup1 pCylinder2 polySurface1
f 2/1/1 14/2/2 1/3/3
f 1/3/4 14/2/5 15/4/6
f 2/1/7 3/5/8 14/2/9
f 14/2/10 3/5/11 13/6/12
f 3/5/13 4/7/14 13/6/15
f 13/6/16 4/7/17 17/8/18
f 1/3/19 15/4/20 5/9/21
f 5/9/22 15/4/23 16/10/24
f 2/1/25 1/3/26 11/11/27
f 3/5/28 2/1/29 11/11/30
f 4/7/31 3/5/32 11/11/33
f 1/3/34 5/9/35 11/11/36
f 6/12/37 7/13/38 12/14/39
f 7/13/40 8/15/41 12/14/42
f 8/15/43 9/16/44 12/14/45
f 10/17/46 6/12/47 12/14/48
f 14/2/49 13/6/50 19/18/51
f 19/18/52 13/6/53 18/19/54
f 14/2/55 19/18/56 15/4/57
f 15/4/58 19/18/59 20/20/60
f 15/4/61 20/20/62 16/10/63
f 16/10/64 20/20/65 21/21/66
f 13/6/67 17/8/68 18/19/69
f 18/19/70 17/8/71 22/22/72
f 19/18/73 18/19/74 24/23/75
f 24/23/76 18/19/77 23/24/78
f 19/18/79 24/23/80 20/20/81
f 20/20/82 24/23/83 25/25/84
f 20/20/85 25/25/86 21/21/87
f 21/21/88 25/25/89 26/26/90
f 18/19/91 22/22/92 23/24/93
f 23/24/94 22/22/95 27/27/96
f 24/23/97 23/24/98 7/13/99
f 7/13/100 23/24/101 8/15/102
f 25/25/103 24/23/104 6/12/105
f 6/12/106 24/23/107 7/13/108
f 26/26/109 25/25/110 10/17/111
f 10/17/112 25/25/113 6/12/114
f 23/24/115 27/27/116 8/15/117
f 8/15/118 27/27/119 9/16/120
f 29/28/121 31/29/122 28/30/123
f 28/30/124 31/29/125 30/31/126
f 33/32/127 35/33/128 32/34/129
f 32/34/130 35/33/131 34/35/132
f 38/36/133 39/37/134 36/38/135
f 36/38/136 39/37/137 37/39/138
f 42/40/139 43/41/140 40/42/141
f 40/42/142 43/41/143 41/43/144
f 44/44/145 45/45/146 46/46/147
f 46/46/148 45/45/149 47/47/150
f 48/48/151 49/49/152 50/50/153
f 50/50/154 49/49/155 51/51/156
