# This file uses centimeters as units for non-parametric coordinates.

g default
v -6.983142 30.487190 0.000000
v -30.412407 30.487190 -9.226465
v -6.983141 13.568611 0.000000
v 6.983142 30.487190 0.000000
v 30.412407 30.487190 -9.226465
v 6.983141 13.568611 0.000000
v -6.946476 -9.055718 1.692718
v -5.316604 -9.055718 3.127738
v -2.877327 -9.055718 4.086588
v -0.000004 -9.055718 4.423292
v 2.877320 -9.055718 4.086590
v 5.316599 -9.055718 3.127742
v 6.946473 -9.055718 1.692722
v 7.518809 -9.055718 0.000002
v -7.518809 -9.055718 -0.000000
v -6.946476 30.489437 1.692718
v -5.316604 30.489437 3.127738
v -2.877327 30.489437 4.086588
v -0.000004 30.489437 4.423292
v 2.877320 30.489437 4.086590
v 5.316599 30.489437 3.127742
v 6.946473 30.489437 1.692722
v 7.518809 30.489437 0.000002
v -7.518809 30.489437 0.000000
v -1.210822 -2.410708 4.296033
v -0.699068 -2.410708 4.807786
v -0.000000 -2.410708 4.995101
v 0.699068 -2.410708 4.807786
v 1.210822 -2.410708 4.296033
v 1.398137 -2.410708 3.596964
v -1.398137 -2.410708 3.596964
v -2.237307 -0.663028 4.888674
v -1.291710 -0.663028 5.834271
v -0.000000 -0.663028 6.180384
v 1.291710 -0.663028 5.834271
v 2.237307 -0.663028 4.888674
v 2.583420 -0.663028 3.596964
v -2.583420 -0.663028 3.596964
v -2.923182 1.952562 5.284665
v -1.687700 1.952562 6.520147
v 0.000000 1.952562 6.972365
v 1.687700 1.952562 6.520147
v 2.923182 1.952562 5.284665
v 3.375401 1.952562 3.596964
v -3.375401 1.952562 3.596964
v -3.164030 5.037859 5.423718
v -1.826754 5.037859 6.760994
v 0.000000 5.037859 7.250472
v 1.826754 5.037859 6.760994
v 3.164030 5.037859 5.423718
v 3.653507 5.037859 3.596964
v -3.653507 5.037859 3.596964
v -2.923182 8.123158 5.284665
v -1.687700 8.123158 6.520147
v 0.000000 8.123158 6.972365
v 1.687700 8.123158 6.520147
v 2.923182 8.123158 5.284665
v 3.375401 8.123158 3.596964
v -3.375401 8.123158 3.596964
v -2.237307 10.738747 4.888674
v -1.291710 10.738747 5.834271
v 0.000000 10.738747 6.180384
v 1.291710 10.738747 5.834271
v 2.237307 10.738747 4.888674
v 2.583420 10.738747 3.596964
v -2.583420 10.738747 3.596964
v -1.210822 12.486427 4.296033
v -0.699068 12.486427 4.807786
v 0.000000 12.486427 4.995101
v 0.699068 12.486427 4.807786
v 1.210822 12.486427 4.296033
v 1.398137 12.486427 3.596964
v -1.398137 12.486427 3.596964
v -0.000000 -3.024413 3.596964
v 0.000000 13.100132 3.596964
v 5.374071 -8.288415 -0.000001
v 4.964995 -8.288415 0.884172
v 3.800043 -8.288415 1.633738
v 2.056569 -8.288415 2.134582
v 0.000001 -8.288415 2.310455
v -2.056567 -8.288415 2.134582
v -3.800042 -8.288415 1.633739
v -4.964994 -8.288415 0.884173
v -5.374071 -8.288415 -0.000000
v -0.000000 -32.179676 -0.000000
vt 0.609112 0.023638
vt 0.975194 0.023638
vt 0.609112 0.287990
vt 0.390888 0.023638
vt 0.390888 0.287990
vt 0.024806 0.023638
vt 0.608539 0.641496
vt 0.583072 0.641496
vt 0.608539 0.023603
vt 0.583072 0.023603
vt 0.544958 0.641496
vt 0.544958 0.023603
vt 0.500000 0.641496
vt 0.500000 0.023603
vt 0.455042 0.641496
vt 0.455042 0.023603
vt 0.416928 0.641496
vt 0.416928 0.023603
vt 0.391461 0.641496
vt 0.391461 0.023603
vt 0.382519 0.641496
vt 0.382519 0.023603
vt 0.617481 0.641496
vt 0.617481 0.023603
vt 0.518919 0.537667
vt 0.510923 0.537667
vt 0.534958 0.510360
vt 0.520183 0.510360
vt 0.500000 0.537667
vt 0.500000 0.510360
vt 0.489077 0.537667
vt 0.479817 0.510360
vt 0.481081 0.537667
vt 0.465042 0.510360
vt 0.478154 0.537667
vt 0.459634 0.510360
vt 0.521846 0.537667
vt 0.540366 0.510360
vt 0.545675 0.469491
vt 0.526370 0.469491
vt 0.500000 0.469491
vt 0.473630 0.469491
vt 0.454325 0.469491
vt 0.447259 0.469491
vt 0.552741 0.469491
vt 0.549438 0.421283
vt 0.528543 0.421283
vt 0.500000 0.421283
vt 0.471457 0.421283
vt 0.450562 0.421283
vt 0.442914 0.421283
vt 0.557086 0.421283
vt 0.545675 0.373076
vt 0.526370 0.373076
vt 0.500000 0.373076
vt 0.473630 0.373076
vt 0.454325 0.373076
vt 0.447259 0.373076
vt 0.552741 0.373076
vt 0.534958 0.332207
vt 0.520183 0.332207
vt 0.500000 0.332207
vt 0.479817 0.332207
vt 0.465042 0.332207
vt 0.459634 0.332207
vt 0.540366 0.332207
vt 0.518919 0.304900
vt 0.510923 0.304900
vt 0.500000 0.304900
vt 0.489077 0.304900
vt 0.481081 0.304900
vt 0.478154 0.304900
vt 0.521846 0.304900
vt 0.500000 0.547256
vt 0.500000 0.295310
vt 0.416030 0.629506
vt 0.422422 0.629506
vt 0.500000 1.002807
vt 0.440624 0.629506
vt 0.467866 0.629506
vt 0.500000 0.629506
vt 0.532134 0.629506
vt 0.559376 0.629506
vt 0.577578 0.629506
vt 0.583970 0.629506
vn -0.366413 -0.000000 0.930452
vn -0.366413 -0.000000 0.930452
vn -0.366413 -0.000000 0.930452
vn 0.366413 -0.000000 0.930452
vn 0.366413 -0.000000 0.930452
vn 0.366413 -0.000000 0.930452
vn -0.817658 -0.000000 0.575704
vn -0.507060 -0.000000 0.861911
vn -0.817658 -0.000000 0.575704
vn -0.817658 -0.000000 0.575704
vn -0.507060 -0.000000 0.861911
vn -0.507060 -0.000000 0.861911
vn -0.507060 -0.000000 0.861911
vn -0.236753 -0.000000 0.971570
vn -0.507060 -0.000000 0.861911
vn -0.507060 -0.000000 0.861911
vn -0.236753 -0.000000 0.971570
vn -0.236753 -0.000000 0.971570
vn -0.236753 -0.000000 0.971570
vn -0.000000 -0.000000 1.000000
vn -0.236753 -0.000000 0.971570
vn -0.236753 -0.000000 0.971570
vn -0.000000 -0.000000 1.000000
vn -0.000000 -0.000000 1.000000
vn -0.000000 -0.000000 1.000000
vn 0.236752 -0.000000 0.971570
vn -0.000000 -0.000000 1.000000
vn -0.000000 -0.000000 1.000000
vn 0.236752 -0.000000 0.971570
vn 0.236752 -0.000000 0.971570
vn 0.236752 -0.000000 0.971570
vn 0.507059 -0.000000 0.861911
vn 0.236752 -0.000000 0.971570
vn 0.236752 -0.000000 0.971570
vn 0.507059 -0.000000 0.861911
vn 0.507059 -0.000000 0.861911
vn 0.507059 -0.000000 0.861911
vn 0.817658 -0.000000 0.575705
vn 0.507059 -0.000000 0.861911
vn 0.507059 -0.000000 0.861911
vn 0.817658 -0.000000 0.575705
vn 0.817658 -0.000000 0.575705
vn 0.817658 -0.000000 0.575705
vn 0.947315 -0.000000 0.320303
vn 0.817658 -0.000000 0.575705
vn 0.817658 -0.000000 0.575705
vn 0.947315 -0.000000 0.320303
vn 0.947315 -0.000000 0.320303
vn -0.947316 0.000000 0.320302
vn -0.817658 -0.000000 0.575704
vn -0.947316 0.000000 0.320302
vn -0.947316 0.000000 0.320302
vn -0.817658 -0.000000 0.575704
vn -0.817658 -0.000000 0.575704
vn -0.626939 -0.701524 0.338838
vn -0.373526 -0.701524 0.606912
vn -0.801578 -0.396042 0.447909
vn -0.801578 -0.396042 0.447909
vn -0.373526 -0.701524 0.606912
vn -0.470233 -0.396042 0.788690
vn -0.373526 -0.701524 0.606912
vn -0.020027 -0.701524 0.712364
vn -0.470233 -0.396042 0.788690
vn -0.470233 -0.396042 0.788690
vn -0.020027 -0.701524 0.712364
vn -0.012888 -0.396042 0.918142
vn -0.020027 -0.701524 0.712364
vn 0.338838 -0.701524 0.626939
vn -0.012888 -0.396042 0.918142
vn -0.012888 -0.396042 0.918142
vn 0.338838 -0.701524 0.626939
vn 0.447909 -0.396042 0.801578
vn 0.338838 -0.701524 0.626939
vn 0.606912 -0.701524 0.373526
vn 0.447909 -0.396042 0.801578
vn 0.447909 -0.396042 0.801578
vn 0.606912 -0.701524 0.373526
vn 0.788690 -0.396042 0.470233
vn 0.606912 -0.701524 0.373526
vn 0.709755 -0.678292 0.190178
vn 0.788690 -0.396042 0.470233
vn 0.788690 -0.396042 0.470233
vn 0.709755 -0.678292 0.190178
vn 0.891607 -0.384658 0.238905
vn -0.687831 -0.702083 0.184304
vn -0.626939 -0.701524 0.338838
vn -0.891652 -0.384547 0.238917
vn -0.891652 -0.384547 0.238917
vn -0.626939 -0.701524 0.338838
vn -0.801578 -0.396042 0.447909
vn -0.801578 -0.396042 0.447909
vn -0.470233 -0.396042 0.788690
vn -0.855136 -0.178839 0.486579
vn -0.855136 -0.178839 0.486579
vn -0.470233 -0.396042 0.788690
vn -0.497281 -0.178839 0.848957
vn -0.470233 -0.396042 0.788690
vn -0.012888 -0.396042 0.918142
vn -0.497281 -0.178839 0.848957
vn -0.497281 -0.178839 0.848957
vn -0.012888 -0.396042 0.918142
vn -0.006179 -0.178839 0.983859
vn -0.012888 -0.396042 0.918142
vn 0.447909 -0.396042 0.801578
vn -0.006179 -0.178839 0.983859
vn -0.006179 -0.178839 0.983859
vn 0.447909 -0.396042 0.801578
vn 0.486579 -0.178839 0.855136
vn 0.447909 -0.396042 0.801578
vn 0.788690 -0.396042 0.470233
vn 0.486579 -0.178839 0.855136
vn 0.486579 -0.178839 0.855136
vn 0.788690 -0.396042 0.470233
vn 0.848958 -0.178839 0.497280
vn 0.788690 -0.396042 0.470233
vn 0.891607 -0.384658 0.238905
vn 0.848958 -0.178839 0.497280
vn 0.848958 -0.178839 0.497280
vn 0.891607 -0.384658 0.238905
vn 0.951200 -0.173950 0.254873
vn -0.891652 -0.384547 0.238917
vn -0.801578 -0.396042 0.447909
vn -0.951553 -0.171868 0.254968
vn -0.951553 -0.171868 0.254968
vn -0.801578 -0.396042 0.447909
vn -0.855136 -0.178839 0.486579
vn -0.855136 -0.178839 0.486579
vn -0.497281 -0.178839 0.848957
vn -0.866025 -0.000000 0.500000
vn -0.866025 -0.000000 0.500000
vn -0.497281 -0.178839 0.848957
vn -0.500000 -0.000000 0.866025
vn -0.497281 -0.178839 0.848957
vn -0.006179 -0.178839 0.983859
vn -0.500000 -0.000000 0.866025
vn -0.500000 -0.000000 0.866025
vn -0.006179 -0.178839 0.983859
vn -0.000000 -0.000000 1.000000
vn -0.006179 -0.178839 0.983859
vn 0.486579 -0.178839 0.855136
vn -0.000000 -0.000000 1.000000
vn -0.000000 -0.000000 1.000000
vn 0.486579 -0.178839 0.855136
vn 0.500000 -0.000000 0.866025
vn 0.486579 -0.178839 0.855136
vn 0.848958 -0.178839 0.497280
vn 0.500000 -0.000000 0.866025
vn 0.500000 -0.000000 0.866025
vn 0.848958 -0.178839 0.497280
vn 0.866025 -0.000000 0.500000
vn 0.848958 -0.178839 0.497280
vn 0.951200 -0.173950 0.254873
vn 0.866025 -0.000000 0.500000
vn 0.866025 -0.000000 0.500000
vn 0.951200 -0.173950 0.254873
vn 0.965925 -0.001101 0.258819
vn -0.951553 -0.171868 0.254968
vn -0.855136 -0.178839 0.486579
vn -0.965925 0.001101 0.258819
vn -0.965925 0.001101 0.258819
vn -0.855136 -0.178839 0.486579
vn -0.866025 -0.000000 0.500000
vn -0.866025 -0.000000 0.500000
vn -0.500000 -0.000000 0.866025
vn -0.848958 0.178839 0.497280
vn -0.848958 0.178839 0.497280
vn -0.500000 -0.000000 0.866025
vn -0.486579 0.178839 0.855136
vn -0.500000 -0.000000 0.866025
vn -0.000000 -0.000000 1.000000
vn -0.486579 0.178839 0.855136
vn -0.486579 0.178839 0.855136
vn -0.000000 -0.000000 1.000000
vn 0.006179 0.178839 0.983859
vn -0.000000 -0.000000 1.000000
vn 0.500000 -0.000000 0.866025
vn 0.006179 0.178839 0.983859
vn 0.006179 0.178839 0.983859
vn 0.500000 -0.000000 0.866025
vn 0.497281 0.178839 0.848957
vn 0.500000 -0.000000 0.866025
vn 0.866025 -0.000000 0.500000
vn 0.497281 0.178839 0.848957
vn 0.497281 0.178839 0.848957
vn 0.866025 -0.000000 0.500000
vn 0.855136 0.178839 0.486579
vn 0.866025 -0.000000 0.500000
vn 0.965925 -0.001101 0.258819
vn 0.855136 0.178839 0.486579
vn 0.855136 0.178839 0.486579
vn 0.965925 -0.001101 0.258819
vn 0.951553 0.171868 0.254968
vn -0.965925 0.001101 0.258819
vn -0.866025 -0.000000 0.500000
vn -0.951200 0.173950 0.254873
vn -0.951200 0.173950 0.254873
vn -0.866025 -0.000000 0.500000
vn -0.848958 0.178839 0.497280
vn -0.848958 0.178839 0.497280
vn -0.486579 0.178839 0.855136
vn -0.788690 0.396042 0.470233
vn -0.788690 0.396042 0.470233
vn -0.486579 0.178839 0.855136
vn -0.447909 0.396042 0.801578
vn -0.486579 0.178839 0.855136
vn 0.006179 0.178839 0.983859
vn -0.447909 0.396042 0.801578
vn -0.447909 0.396042 0.801578
vn 0.006179 0.178839 0.983859
vn 0.012888 0.396042 0.918142
vn 0.006179 0.178839 0.983859
vn 0.497281 0.178839 0.848957
vn 0.012888 0.396042 0.918142
vn 0.012888 0.396042 0.918142
vn 0.497281 0.178839 0.848957
vn 0.470233 0.396042 0.788690
vn 0.497281 0.178839 0.848957
vn 0.855136 0.178839 0.486579
vn 0.470233 0.396042 0.788690
vn 0.470233 0.396042 0.788690
vn 0.855136 0.178839 0.486579
vn 0.801578 0.396042 0.447909
vn 0.855136 0.178839 0.486579
vn 0.951553 0.171868 0.254968
vn 0.801578 0.396042 0.447909
vn 0.801578 0.396042 0.447909
vn 0.951553 0.171868 0.254968
vn 0.891651 0.384547 0.238917
vn -0.951200 0.173950 0.254873
vn -0.848958 0.178839 0.497280
vn -0.891607 0.384659 0.238905
vn -0.891607 0.384659 0.238905
vn -0.848958 0.178839 0.497280
vn -0.788690 0.396042 0.470233
vn -0.788690 0.396042 0.470233
vn -0.447909 0.396042 0.801578
vn -0.606912 0.701524 0.373526
vn -0.606912 0.701524 0.373526
vn -0.447909 0.396042 0.801578
vn -0.338838 0.701524 0.626939
vn -0.447909 0.396042 0.801578
vn 0.012888 0.396042 0.918142
vn -0.338838 0.701524 0.626939
vn -0.338838 0.701524 0.626939
vn 0.012888 0.396042 0.918142
vn 0.020027 0.701524 0.712365
vn 0.012888 0.396042 0.918142
vn 0.470233 0.396042 0.788690
vn 0.020027 0.701524 0.712365
vn 0.020027 0.701524 0.712365
vn 0.470233 0.396042 0.788690
vn 0.373526 0.701524 0.606912
vn 0.470233 0.396042 0.788690
vn 0.801578 0.396042 0.447909
vn 0.373526 0.701524 0.606912
vn 0.373526 0.701524 0.606912
vn 0.801578 0.396042 0.447909
vn 0.626939 0.701524 0.338838
vn 0.801578 0.396042 0.447909
vn 0.891651 0.384547 0.238917
vn 0.626939 0.701524 0.338838
vn 0.626939 0.701524 0.338838
vn 0.891651 0.384547 0.238917
vn 0.687832 0.702083 0.184304
vn -0.891607 0.384659 0.238905
vn -0.788690 0.396042 0.470233
vn -0.709755 0.678292 0.190178
vn -0.709755 0.678292 0.190178
vn -0.788690 0.396042 0.470233
vn -0.606912 0.701524 0.373526
vn -0.373526 -0.701524 0.606912
vn -0.626939 -0.701524 0.338838
vn -0.000000 -0.959751 0.280852
vn -0.020027 -0.701524 0.712364
vn -0.373526 -0.701524 0.606912
vn -0.000000 -0.959751 0.280852
vn 0.338838 -0.701524 0.626939
vn -0.020027 -0.701524 0.712364
vn -0.000000 -0.959751 0.280852
vn 0.606912 -0.701524 0.373526
vn 0.338838 -0.701524 0.626939
vn -0.000000 -0.959751 0.280852
vn 0.709755 -0.678292 0.190178
vn 0.606912 -0.701524 0.373526
vn -0.000000 -0.959751 0.280852
vn -0.626939 -0.701524 0.338838
vn -0.687831 -0.702083 0.184304
vn -0.000000 -0.959751 0.280852
vn -0.606912 0.701524 0.373526
vn -0.338838 0.701524 0.626939
vn 0.000000 0.959751 0.280852
vn -0.338838 0.701524 0.626939
vn 0.020027 0.701524 0.712365
vn 0.000000 0.959751 0.280852
vn 0.020027 0.701524 0.712365
vn 0.373526 0.701524 0.606912
vn 0.000000 0.959751 0.280852
vn 0.373526 0.701524 0.606912
vn 0.626939 0.701524 0.338838
vn 0.000000 0.959751 0.280852
vn 0.626939 0.701524 0.338838
vn 0.687832 0.702083 0.184304
vn 0.000000 0.959751 0.280852
vn -0.709755 0.678292 0.190178
vn -0.606912 0.701524 0.373526
vn 0.000000 0.959751 0.280852
vn 0.889229 -0.200022 0.411415
vn 0.721999 -0.174818 0.669444
vn -0.000000 -0.130213 0.991486
vn 0.721999 -0.174818 0.669444
vn 0.401560 -0.125903 0.907137
vn -0.000000 -0.130213 0.991486
vn 0.401560 -0.125903 0.907137
vn 0.178526 -0.102797 0.978551
vn -0.000000 -0.130213 0.991486
vn 0.178526 -0.102797 0.978551
vn -0.000000 -0.096258 0.995356
vn -0.000000 -0.130213 0.991486
vn -0.000000 -0.096258 0.995356
vn -0.178526 -0.102797 0.978551
vn -0.000000 -0.130213 0.991486
vn -0.178526 -0.102797 0.978551
vn -0.401560 -0.125903 0.907137
vn -0.000000 -0.130213 0.991486
vn -0.401560 -0.125903 0.907137
vn -0.721999 -0.174818 0.669445
vn -0.000000 -0.130213 0.991486
vn -0.721999 -0.174818 0.669445
vn -0.889229 -0.200022 0.411416
vn -0.000000 -0.130213 0.991486
s off
g pPlane3
f 1/1/1 2/2/2 3/3/3
f 4/4/4 6/5/5 5/6/6
f 7/7/7 8/8/8 16/9/9
f 16/9/10 8/8/11 17/10/12
f 8/8/13 9/11/14 17/10/15
f 17/10/16 9/11/17 18/12/18
f 9/11/19 10/13/20 18/12/21
f 18/12/22 10/13/23 19/14/24
f 10/13/25 11/15/26 19/14/27
f 19/14/28 11/15/29 20/16/30
f 11/15/31 12/17/32 20/16/33
f 20/16/34 12/17/35 21/18/36
f 12/17/37 13/19/38 21/18/39
f 21/18/40 13/19/41 22/20/42
f 13/19/43 14/21/44 22/20/45
f 22/20/46 14/21/47 23/22/48
f 15/23/49 7/7/50 24/24/51
f 24/24/52 7/7/53 16/9/54
f 25/25/55 26/26/56 32/27/57
f 32/27/58 26/26/59 33/28/60
f 26/26/61 27/29/62 33/28/63
f 33/28/64 27/29/65 34/30/66
f 27/29/67 28/31/68 34/30/69
f 34/30/70 28/31/71 35/32/72
f 28/31/73 29/33/74 35/32/75
f 35/32/76 29/33/77 36/34/78
f 29/33/79 30/35/80 36/34/81
f 36/34/82 30/35/83 37/36/84
f 31/37/85 25/25/86 38/38/87
f 38/38/88 25/25/89 32/27/90
f 32/27/91 33/28/92 39/39/93
f 39/39/94 33/28/95 40/40/96
f 33/28/97 34/30/98 40/40/99
f 40/40/100 34/30/101 41/41/102
f 34/30/103 35/32/104 41/41/105
f 41/41/106 35/32/107 42/42/108
f 35/32/109 36/34/110 42/42/111
f 42/42/112 36/34/113 43/43/114
f 36/34/115 37/36/116 43/43/117
f 43/43/118 37/36/119 44/44/120
f 38/38/121 32/27/122 45/45/123
f 45/45/124 32/27/125 39/39/126
f 39/39/127 40/40/128 46/46/129
f 46/46/130 40/40/131 47/47/132
f 40/40/133 41/41/134 47/47/135
f 47/47/136 41/41/137 48/48/138
f 41/41/139 42/42/140 48/48/141
f 48/48/142 42/42/143 49/49/144
f 42/42/145 43/43/146 49/49/147
f 49/49/148 43/43/149 50/50/150
f 43/43/151 44/44/152 50/50/153
f 50/50/154 44/44/155 51/51/156
f 45/45/157 39/39/158 52/52/159
f 52/52/160 39/39/161 46/46/162
f 46/46/163 47/47/164 53/53/165
f 53/53/166 47/47/167 54/54/168
f 47/47/169 48/48/170 54/54/171
f 54/54/172 48/48/173 55/55/174
f 48/48/175 49/49/176 55/55/177
f 55/55/178 49/49/179 56/56/180
f 49/49/181 50/50/182 56/56/183
f 56/56/184 50/50/185 57/57/186
f 50/50/187 51/51/188 57/57/189
f 57/57/190 51/51/191 58/58/192
f 52/52/193 46/46/194 59/59/195
f 59/59/196 46/46/197 53/53/198
f 53/53/199 54/54/200 60/60/201
f 60/60/202 54/54/203 61/61/204
f 54/54/205 55/55/206 61/61/207
f 61/61/208 55/55/209 62/62/210
f 55/55/211 56/56/212 62/62/213
f 62/62/214 56/56/215 63/63/216
f 56/56/217 57/57/218 63/63/219
f 63/63/220 57/57/221 64/64/222
f 57/57/223 58/58/224 64/64/225
f 64/64/226 58/58/227 65/65/228
f 59/59/229 53/53/230 66/66/231
f 66/66/232 53/53/233 60/60/234
f 60/60/235 61/61/236 67/67/237
f 67/67/238 61/61/239 68/68/240
f 61/61/241 62/62/242 68/68/243
f 68/68/244 62/62/245 69/69/246
f 62/62/247 63/63/248 69/69/249
f 69/69/250 63/63/251 70/70/252
f 63/63/253 64/64/254 70/70/255
f 70/70/256 64/64/257 71/71/258
f 64/64/259 65/65/260 71/71/261
f 71/71/262 65/65/263 72/72/264
f 66/66/265 60/60/266 73/73/267
f 73/73/268 60/60/269 67/67/270
f 26/26/271 25/25/272 74/74/273
f 27/29/274 26/26/275 74/74/276
f 28/31/277 27/29/278 74/74/279
f 29/33/280 28/31/281 74/74/282
f 30/35/283 29/33/284 74/74/285
f 25/25/286 31/37/287 74/74/288
f 67/67/289 68/68/290 75/75/291
f 68/68/292 69/69/293 75/75/294
f 69/69/295 70/70/296 75/75/297
f 70/70/298 71/71/299 75/75/300
f 71/71/301 72/72/302 75/75/303
f 73/73/304 67/67/305 75/75/306
f 76/76/307 77/77/308 85/78/309
f 77/77/310 78/79/311 85/78/312
f 78/79/313 79/80/314 85/78/315
f 79/80/316 80/81/317 85/78/318
f 80/81/319 81/82/320 85/78/321
f 81/82/322 82/83/323 85/78/324
f 82/83/325 83/84/326 85/78/327
f 83/84/328 84/85/329 85/78/330
