# This file uses centimeters as units for non-parametric coordinates.

g default
v 11.157102 -10.025723 0.577151
v -2.512471 14.690465 0.577151
v 2.252321 -14.950614 0.577151
v -11.417251 9.765574 0.577151
v -14.122209 -5.087967 0.577151
v 14.122209 -5.087967 0.577151
v -14.122209 5.087967 0.577151
v 14.122209 5.087967 0.577151
v -2.437917 -14.811507 0.577151
v 11.324179 9.853282 0.577151
v -11.324179 -9.853282 0.577151
v 2.437917 14.811507 0.577151
v 5.832219 10.101696 1.000000
v -5.832215 10.101703 1.000000
v -11.664434 0.000002 1.000000
v -5.832219 -10.101696 1.000000
v 5.832216 -10.101696 1.000000
v 11.664434 0.000000 1.000000
v 0.000000 0.000000 2.242803
vt 0.848659 0.186696
vt 0.421485 0.959077
vt 0.570385 0.032793
vt 0.143211 0.805174
vt 0.058681 0.341001
vt 0.941319 0.341001
vt 0.058681 0.658999
vt 0.941319 0.658999
vt 0.423815 0.037140
vt 0.853881 0.807915
vt 0.146119 0.192085
vt 0.576185 0.962860
vt 0.682257 0.815678
vt 0.317743 0.815678
vt 0.500000 0.500000
vt 0.135486 0.500000
vt 0.317743 0.184322
vt 0.682257 0.184322
vt 0.864514 0.500000
vn 0.000000 0.000000 1.000000
vn 0.000000 0.000000 1.000000
vn 0.000000 0.000000 1.000000
vn 0.000000 0.000000 1.000000
vn 0.000000 0.000000 1.000000
vn 0.000000 0.000000 1.000000
vn 0.000000 0.000000 1.000000
vn 0.000000 0.000000 1.000000
vn 0.000000 0.000000 1.000000
vn 0.000000 0.000000 1.000000
vn 0.000000 0.000000 1.000000
vn 0.000000 0.000000 1.000000
vn 0.000000 0.000000 1.000000
vn 0.000000 0.000000 1.000000
vn 0.000000 0.000000 1.000000
vn 0.000000 0.000000 1.000000
vn 0.000000 0.000000 1.000000
vn 0.000000 0.000000 1.000000
vn 0.052973 0.091752 0.994372
vn -0.052973 0.091752 0.994372
vn 0.000000 0.000000 1.000000
vn -0.052973 0.091752 0.994372
vn -0.105947 0.000000 0.994372
vn 0.000000 0.000000 1.000000
vn -0.105947 0.000000 0.994372
vn -0.052973 -0.091752 0.994372
vn 0.000000 0.000000 1.000000
vn -0.052973 -0.091752 0.994372
vn 0.052973 -0.091753 0.994372
vn 0.000000 0.000000 1.000000
vn 0.052973 -0.091753 0.994372
vn 0.105947 0.000000 0.994372
vn 0.000000 0.000000 1.000000
vn 0.105947 0.000000 0.994372
vn 0.052973 0.091752 0.994372
vn 0.000000 0.000000 1.000000
s off
g initialShadingGroup pPlane63
f 1/1/1 2/2/2 3/3/3
f 3/3/4 2/2/5 4/4/6
f 5/5/7 6/6/8 7/7/9
f 7/7/10 6/6/11 8/8/12
f 9/9/13 10/10/14 11/11/15
f 11/11/16 10/10/17 12/12/18
f 13/13/19 14/14/20 19/15/21
f 14/14/22 15/16/23 19/15/24
f 15/16/25 16/17/26 19/15/27
f 16/17/28 17/18/29 19/15/30
f 17/18/31 18/19/32 19/15/33
f 18/19/34 13/13/35 19/15/36
