# This file uses centimeters as units for non-parametric coordinates.

mtllib miner_1.mtl
g default
v 3.009423 3.009423 -7.371551
v 0.000000 4.255967 -7.371551
v -3.009423 3.009423 -7.371551
v -4.255967 -0.000000 -7.371551
v 4.255967 -0.000000 -7.371551
v 5.212473 5.212473 -4.255967
v 0.000000 7.371551 -4.255967
v -5.212473 5.212473 -4.255967
v -7.371551 -0.000000 -4.255967
v 7.371552 -0.000000 -4.255967
v 6.018846 6.018846 -0.000000
v 0.000000 8.511933 -0.000000
v -6.018846 6.018846 -0.000000
v -8.511933 0.000000 0.000000
v 8.511934 0.000000 0.000000
v 5.212473 5.212473 4.255967
v 0.000000 7.371551 4.255967
v -5.212473 5.212473 4.255967
v -7.371551 0.000000 4.255967
v 7.371552 0.000000 4.255967
v 3.009423 3.009423 7.371551
v 0.000000 4.255967 7.371551
v -3.009423 3.009423 7.371551
v -4.255967 0.000000 7.371551
v 4.255967 0.000000 7.371551
v 0.000000 -0.000000 -8.511934
v 0.000000 0.000000 8.511934
v -15.029452 -0.000000 3.043274
v 15.029452 -0.000000 3.043274
v -15.029452 0.000000 -2.050823
v 15.029452 0.000000 -2.050823
vt 0.000000 0.166667
vt 0.125000 0.166667
vt 0.250000 0.166667
vt 0.375000 0.166667
vt 0.875000 0.166667
vt 1.000000 0.166667
vt 0.000000 0.333333
vt 0.125000 0.333333
vt 0.250000 0.333333
vt 0.375000 0.333333
vt 0.875000 0.333333
vt 1.000000 0.333333
vt 0.000000 0.500000
vt 0.125000 0.500000
vt 0.250000 0.500000
vt 0.375000 0.500000
vt 0.875000 0.500000
vt 1.000000 0.500000
vt 0.000000 0.666667
vt 0.125000 0.666667
vt 0.250000 0.666667
vt 0.375000 0.666667
vt 0.875000 0.666667
vt 1.000000 0.666667
vt 0.000000 0.833333
vt 0.125000 0.833333
vt 0.250000 0.833333
vt 0.375000 0.833333
vt 0.875000 0.833333
vt 1.000000 0.833333
vt 0.062500 0.000000
vt 0.187500 0.000000
vt 0.312500 0.000000
vt 0.937500 0.000000
vt 0.062500 1.000000
vt 0.187500 1.000000
vt 0.312500 1.000000
vt 0.937500 1.000000
vt 0.000000 0.000000
vt 1.000000 0.000000
vt 1.000000 1.000000
vt 0.000000 1.000000
vn 0.281085 0.678598 -0.678598
vn 0.281085 0.678598 -0.678598
vn 0.281085 0.678598 -0.678598
vn 0.281085 0.678598 -0.678598
vn -0.281085 0.678598 -0.678598
vn -0.281085 0.678598 -0.678598
vn -0.281085 0.678598 -0.678598
vn -0.281084 0.678598 -0.678598
vn -0.678598 0.281085 -0.678598
vn -0.678598 0.281085 -0.678598
vn -0.678598 0.281085 -0.678598
vn -0.678598 0.281085 -0.678598
vn 0.678598 0.281085 -0.678598
vn 0.678598 0.281085 -0.678598
vn 0.678598 0.281085 -0.678598
vn 0.678598 0.281085 -0.678598
vn 0.371470 0.896809 -0.240299
vn 0.371470 0.896809 -0.240299
vn 0.371470 0.896809 -0.240299
vn 0.371470 0.896809 -0.240299
vn -0.371470 0.896809 -0.240299
vn -0.371470 0.896809 -0.240299
vn -0.371470 0.896809 -0.240299
vn -0.371470 0.896809 -0.240299
vn -0.896809 0.371470 -0.240299
vn -0.896809 0.371470 -0.240299
vn -0.896809 0.371470 -0.240299
vn -0.896809 0.371470 -0.240299
vn 0.896809 0.371471 -0.240299
vn 0.896809 0.371471 -0.240299
vn 0.896809 0.371471 -0.240299
vn 0.896809 0.371470 -0.240299
vn 0.371470 0.896809 0.240299
vn 0.371470 0.896809 0.240299
vn 0.371470 0.896809 0.240299
vn 0.371470 0.896809 0.240299
vn -0.371470 0.896809 0.240299
vn -0.371470 0.896809 0.240299
vn -0.371470 0.896809 0.240299
vn -0.371470 0.896809 0.240299
vn -0.896809 0.371470 0.240299
vn -0.896809 0.371470 0.240299
vn -0.896809 0.371470 0.240299
vn -0.896809 0.371470 0.240299
vn 0.896809 0.371470 0.240299
vn 0.896809 0.371471 0.240299
vn 0.896809 0.371471 0.240299
vn 0.896809 0.371471 0.240299
vn 0.281084 0.678598 0.678599
vn 0.281085 0.678598 0.678598
vn 0.281085 0.678598 0.678598
vn 0.281085 0.678598 0.678598
vn -0.281085 0.678598 0.678598
vn -0.281085 0.678598 0.678598
vn -0.281085 0.678598 0.678598
vn -0.281085 0.678598 0.678598
vn -0.678598 0.281085 0.678598
vn -0.678598 0.281085 0.678598
vn -0.678598 0.281085 0.678598
vn -0.678598 0.281085 0.678598
vn 0.678598 0.281085 0.678598
vn 0.678598 0.281085 0.678598
vn 0.678598 0.281085 0.678598
vn 0.678598 0.281085 0.678598
vn 0.106596 0.257345 -0.960422
vn 0.106596 0.257345 -0.960422
vn 0.106596 0.257345 -0.960422
vn -0.106595 0.257345 -0.960422
vn -0.106595 0.257345 -0.960422
vn -0.106595 0.257345 -0.960422
vn -0.257345 0.106596 -0.960422
vn -0.257345 0.106596 -0.960422
vn -0.257345 0.106596 -0.960422
vn 0.257345 0.106596 -0.960422
vn 0.257345 0.106596 -0.960422
vn 0.257345 0.106596 -0.960422
vn 0.106595 0.257345 0.960422
vn 0.106595 0.257345 0.960422
vn 0.106595 0.257345 0.960422
vn -0.106596 0.257345 0.960422
vn -0.106596 0.257345 0.960422
vn -0.106596 0.257345 0.960422
vn -0.257345 0.106596 0.960422
vn -0.257345 0.106596 0.960422
vn -0.257345 0.106596 0.960422
vn 0.257345 0.106596 0.960422
vn 0.257345 0.106596 0.960422
vn 0.257345 0.106596 0.960422
vn 0.000000 1.000000 0.000000
vn 0.000000 1.000000 0.000000
vn 0.000000 1.000000 0.000000
vn 0.000000 1.000000 0.000000
s 1
g pSphere2
usemtl initialShadingGroup
f 1/1/1 2/2/2 6/7/3
f 6/7/3 2/2/2 7/8/4
s 2
f 2/2/5 3/3/6 7/8/7
f 7/8/7 3/3/6 8/9/8
s 3
f 3/3/9 4/4/10 8/9/11
f 8/9/11 4/4/10 9/10/12
s 4
f 5/5/13 1/6/14 10/11/15
f 10/11/15 1/6/14 6/12/16
s 5
f 6/7/17 7/8/18 11/13/19
f 11/13/19 7/8/18 12/14/20
s 6
f 7/8/21 8/9/22 12/14/23
f 12/14/23 8/9/22 13/15/24
s 7
f 8/9/25 9/10/26 13/15/27
f 13/15/27 9/10/26 14/16/28
s 8
f 10/11/29 6/12/30 15/17/31
f 15/17/31 6/12/30 11/18/32
s 9
f 11/13/33 12/14/34 16/19/35
f 16/19/35 12/14/34 17/20/36
s 10
f 12/14/37 13/15/38 17/20/39
f 17/20/39 13/15/38 18/21/40
s 11
f 13/15/41 14/16/42 18/21/43
f 18/21/43 14/16/42 19/22/44
s 12
f 15/17/45 11/18/46 20/23/47
f 20/23/47 11/18/46 16/24/48
s 13
f 16/19/49 17/20/50 21/25/51
f 21/25/51 17/20/50 22/26/52
s 14
f 17/20/53 18/21/54 22/26/55
f 22/26/55 18/21/54 23/27/56
s 15
f 18/21/57 19/22/58 23/27/59
f 23/27/59 19/22/58 24/28/60
s 16
f 20/23/61 16/24/62 25/29/63
f 25/29/63 16/24/62 21/30/64
s off
f 2/2/65 1/1/66 26/31/67
f 3/3/68 2/2/69 26/32/70
f 4/4/71 3/3/72 26/33/73
f 1/6/74 5/5/75 26/34/76
f 21/25/77 22/26/78 27/35/79
f 22/26/80 23/27/81 27/36/82
f 23/27/83 24/28/84 27/37/85
f 25/29/86 21/30/87 27/38/88
s 17
f 28/39/89 29/40/90 30/42/91
f 30/42/91 29/40/90 31/41/92
g default
v 3.009423 3.009423 -7.371551
v 0.000000 4.255967 -7.371551
v -3.009423 3.009423 -7.371551
v -4.255967 -0.000000 -7.371551
v 4.255967 -0.000000 -7.371551
v 5.212473 5.212473 -4.255967
v 0.000000 7.371551 -4.255967
v -5.212473 5.212473 -4.255967
v -7.371551 -0.000000 -4.255967
v 7.371552 -0.000000 -4.255967
v 6.018846 6.018846 -0.000000
v 0.000000 8.511933 -0.000000
v -6.018846 6.018846 -0.000000
v -8.511933 0.000000 0.000000
v 8.511934 0.000000 0.000000
v 5.212473 5.212473 4.255967
v 0.000000 7.371551 4.255967
v -5.212473 5.212473 4.255967
v -7.371551 0.000000 4.255967
v 7.371552 0.000000 4.255967
v 3.009423 3.009423 7.371551
v 0.000000 4.255967 7.371551
v -3.009423 3.009423 7.371551
v -4.255967 0.000000 7.371551
v 4.255967 0.000000 7.371551
v 0.000000 -0.000000 -8.511934
v 0.000000 0.000000 8.511934
v -15.029452 -0.000000 3.043274
v 15.029452 -0.000000 3.043274
v -15.029452 0.000000 -2.050823
v 15.029452 0.000000 -2.050823
vt 0.000000 0.166667
vt 0.125000 0.166667
vt 0.250000 0.166667
vt 0.375000 0.166667
vt 0.875000 0.166667
vt 1.000000 0.166667
vt 0.000000 0.333333
vt 0.125000 0.333333
vt 0.250000 0.333333
vt 0.375000 0.333333
vt 0.875000 0.333333
vt 1.000000 0.333333
vt 0.000000 0.500000
vt 0.125000 0.500000
vt 0.250000 0.500000
vt 0.375000 0.500000
vt 0.875000 0.500000
vt 1.000000 0.500000
vt 0.000000 0.666667
vt 0.125000 0.666667
vt 0.250000 0.666667
vt 0.375000 0.666667
vt 0.875000 0.666667
vt 1.000000 0.666667
vt 0.000000 0.833333
vt 0.125000 0.833333
vt 0.250000 0.833333
vt 0.375000 0.833333
vt 0.875000 0.833333
vt 1.000000 0.833333
vt 0.062500 0.000000
vt 0.187500 0.000000
vt 0.312500 0.000000
vt 0.937500 0.000000
vt 0.062500 1.000000
vt 0.187500 1.000000
vt 0.312500 1.000000
vt 0.937500 1.000000
vt 0.000000 0.000000
vt 1.000000 0.000000
vt 1.000000 1.000000
vt 0.000000 1.000000
vn 0.281085 0.678598 -0.678598
vn 0.281085 0.678598 -0.678598
vn 0.281085 0.678598 -0.678598
vn 0.281085 0.678598 -0.678598
vn -0.281085 0.678598 -0.678598
vn -0.281085 0.678598 -0.678598
vn -0.281085 0.678598 -0.678598
vn -0.281084 0.678598 -0.678598
vn -0.678598 0.281085 -0.678598
vn -0.678598 0.281085 -0.678598
vn -0.678598 0.281085 -0.678598
vn -0.678598 0.281085 -0.678598
vn 0.678598 0.281085 -0.678598
vn 0.678598 0.281085 -0.678598
vn 0.678598 0.281085 -0.678598
vn 0.678598 0.281085 -0.678598
vn 0.371470 0.896809 -0.240299
vn 0.371470 0.896809 -0.240299
vn 0.371470 0.896809 -0.240299
vn 0.371470 0.896809 -0.240299
vn -0.371470 0.896809 -0.240299
vn -0.371470 0.896809 -0.240299
vn -0.371470 0.896809 -0.240299
vn -0.371470 0.896809 -0.240299
vn -0.896809 0.371470 -0.240299
vn -0.896809 0.371470 -0.240299
vn -0.896809 0.371470 -0.240299
vn -0.896809 0.371470 -0.240299
vn 0.896809 0.371471 -0.240299
vn 0.896809 0.371471 -0.240299
vn 0.896809 0.371471 -0.240299
vn 0.896809 0.371470 -0.240299
vn 0.371470 0.896809 0.240299
vn 0.371470 0.896809 0.240299
vn 0.371470 0.896809 0.240299
vn 0.371470 0.896809 0.240299
vn -0.371470 0.896809 0.240299
vn -0.371470 0.896809 0.240299
vn -0.371470 0.896809 0.240299
vn -0.371470 0.896809 0.240299
vn -0.896809 0.371470 0.240299
vn -0.896809 0.371470 0.240299
vn -0.896809 0.371470 0.240299
vn -0.896809 0.371470 0.240299
vn 0.896809 0.371470 0.240299
vn 0.896809 0.371471 0.240299
vn 0.896809 0.371471 0.240299
vn 0.896809 0.371471 0.240299
vn 0.281084 0.678598 0.678599
vn 0.281085 0.678598 0.678598
vn 0.281085 0.678598 0.678598
vn 0.281085 0.678598 0.678598
vn -0.281085 0.678598 0.678598
vn -0.281085 0.678598 0.678598
vn -0.281085 0.678598 0.678598
vn -0.281085 0.678598 0.678598
vn -0.678598 0.281085 0.678598
vn -0.678598 0.281085 0.678598
vn -0.678598 0.281085 0.678598
vn -0.678598 0.281085 0.678598
vn 0.678598 0.281085 0.678598
vn 0.678598 0.281085 0.678598
vn 0.678598 0.281085 0.678598
vn 0.678598 0.281085 0.678598
vn 0.106596 0.257345 -0.960422
vn 0.106596 0.257345 -0.960422
vn 0.106596 0.257345 -0.960422
vn -0.106595 0.257345 -0.960422
vn -0.106595 0.257345 -0.960422
vn -0.106595 0.257345 -0.960422
vn -0.257345 0.106596 -0.960422
vn -0.257345 0.106596 -0.960422
vn -0.257345 0.106596 -0.960422
vn 0.257345 0.106596 -0.960422
vn 0.257345 0.106596 -0.960422
vn 0.257345 0.106596 -0.960422
vn 0.106595 0.257345 0.960422
vn 0.106595 0.257345 0.960422
vn 0.106595 0.257345 0.960422
vn -0.106596 0.257345 0.960422
vn -0.106596 0.257345 0.960422
vn -0.106596 0.257345 0.960422
vn -0.257345 0.106596 0.960422
vn -0.257345 0.106596 0.960422
vn -0.257345 0.106596 0.960422
vn 0.257345 0.106596 0.960422
vn 0.257345 0.106596 0.960422
vn 0.257345 0.106596 0.960422
vn 0.000000 1.000000 0.000000
vn 0.000000 1.000000 0.000000
vn 0.000000 1.000000 0.000000
vn 0.000000 1.000000 0.000000
s 1
g pSphere2
f 32/43/93 33/44/94 37/49/95
f 37/49/95 33/44/94 38/50/96
s 2
f 33/44/97 34/45/98 38/50/99
f 38/50/99 34/45/98 39/51/100
s 3
f 34/45/101 35/46/102 39/51/103
f 39/51/103 35/46/102 40/52/104
s 4
f 36/47/105 32/48/106 41/53/107
f 41/53/107 32/48/106 37/54/108
s 5
f 37/49/109 38/50/110 42/55/111
f 42/55/111 38/50/110 43/56/112
s 6
f 38/50/113 39/51/114 43/56/115
f 43/56/115 39/51/114 44/57/116
s 7
f 39/51/117 40/52/118 44/57/119
f 44/57/119 40/52/118 45/58/120
s 8
f 41/53/121 37/54/122 46/59/123
f 46/59/123 37/54/122 42/60/124
s 9
f 42/55/125 43/56/126 47/61/127
f 47/61/127 43/56/126 48/62/128
s 10
f 43/56/129 44/57/130 48/62/131
f 48/62/131 44/57/130 49/63/132
s 11
f 44/57/133 45/58/134 49/63/135
f 49/63/135 45/58/134 50/64/136
s 12
f 46/59/137 42/60/138 51/65/139
f 51/65/139 42/60/138 47/66/140
s 13
f 47/61/141 48/62/142 52/67/143
f 52/67/143 48/62/142 53/68/144
s 14
f 48/62/145 49/63/146 53/68/147
f 53/68/147 49/63/146 54/69/148
s 15
f 49/63/149 50/64/150 54/69/151
f 54/69/151 50/64/150 55/70/152
s 16
f 51/65/153 47/66/154 56/71/155
f 56/71/155 47/66/154 52/72/156
s off
f 33/44/157 32/43/158 57/73/159
f 34/45/160 33/44/161 57/74/162
f 35/46/163 34/45/164 57/75/165
f 32/48/166 36/47/167 57/76/168
f 52/67/169 53/68/170 58/77/171
f 53/68/172 54/69/173 58/78/174
f 54/69/175 55/70/176 58/79/177
f 56/71/178 52/72/179 58/80/180
s 17
f 59/81/181 60/82/182 61/84/183
f 61/84/183 60/82/182 62/83/184
