# This file uses centimeters as units for non-parametric coordinates.

mtllib miner_1.mtl
g default1
v 3.009423 3.009423 -7.371551
v 0.000000 4.255967 -7.371551
v -3.009423 3.009423 -7.371551
v -4.255967 0.000000 -7.371551
v 4.255967 0.000000 -7.371551
v 5.212473 5.212473 -4.255967
v 0.000000 7.371551 -4.255967
v -5.212473 5.212473 -4.255967
v -7.371551 0.000000 -4.255967
v 7.371552 0.000000 -4.255967
v 6.018846 6.018846 0.000000
v 0.000000 8.511933 0.000000
v -6.018846 6.018846 0.000000
v -8.511933 0.000000 0.000000
v 8.511934 0.000000 0.000000
v 5.212473 5.212473 4.255967
v 0.000000 7.371551 4.255967
v -5.212473 5.212473 4.255967
v -7.371551 0.000000 4.255967
v 7.371552 0.000000 4.255967
v 3.009423 3.009423 7.371551
v 0.000000 4.255967 7.371551
v -3.009423 3.009423 7.371551
v -4.255967 0.000000 7.371551
v 4.255967 0.000000 7.371551
v 0.000000 0.000000 -8.511934
v 0.000000 0.000000 8.511934
v -15.029452 0.000000 3.043274
v 15.029452 0.000000 3.043274
v -15.029452 0.000000 -2.050823
v 15.029452 0.000000 -2.050823
v 3.009423 3.009423 -7.371551
v 0.000000 4.255967 -7.371551
v -3.009423 3.009423 -7.371551
v -4.255967 0.000000 -7.371551
v 4.255967 0.000000 -7.371551
v 5.212473 5.212473 -4.255967
v 0.000000 7.371551 -4.255967
v -5.212473 5.212473 -4.255967
v -7.371551 0.000000 -4.255967
v 7.371552 0.000000 -4.255967
v 6.018846 6.018846 0.000000
v 0.000000 8.511933 0.000000
v -6.018846 6.018846 0.000000
v -8.511933 0.000000 0.000000
v 8.511934 0.000000 0.000000
v 5.212473 5.212473 4.255967
v 0.000000 7.371551 4.255967
v -5.212473 5.212473 4.255967
v -7.371551 0.000000 4.255967
v 7.371552 0.000000 4.255967
v 3.009423 3.009423 7.371551
v 0.000000 4.255967 7.371551
v -3.009423 3.009423 7.371551
v -4.255967 0.000000 7.371551
v 4.255967 0.000000 7.371551
v 0.000000 0.000000 -8.511934
v 0.000000 0.000000 8.511934
v -15.029452 0.000000 3.043274
v 15.029452 0.000000 3.043274
v -15.029452 0.000000 -2.050823
v 15.029452 0.000000 -2.050823
vt 0.594044 0.730361
vt 0.500000 0.730361
vt 0.662890 0.632999
vt 0.500000 0.632999
vt 0.405956 0.730361
vt 0.337110 0.632999
vt 0.367001 0.730361
vt 0.269639 0.632999
vt 0.632999 0.730361
vt 0.730361 0.632999
vt 0.688089 0.500000
vt 0.500000 0.500000
vt 0.311911 0.500000
vt 0.234002 0.500000
vt 0.765998 0.500000
vt 0.662890 0.367001
vt 0.500000 0.367001
vt 0.337110 0.367001
vt 0.269639 0.367001
vt 0.730361 0.367001
vt 0.594044 0.269639
vt 0.500000 0.269639
vt 0.405956 0.269639
vt 0.367001 0.269639
vt 0.632999 0.269639
vt 0.500000 0.765998
vt 0.500000 0.234002
vt 0.030330 0.404898
vt 0.969670 0.404898
vt 0.030330 0.564088
vt 0.969670 0.564088
vt 0.594044 0.730361
vt 0.500000 0.730361
vt 0.662890 0.632999
vt 0.500000 0.632999
vt 0.405956 0.730361
vt 0.337110 0.632999
vt 0.367001 0.730361
vt 0.269639 0.632999
vt 0.632999 0.730361
vt 0.730361 0.632999
vt 0.688089 0.500000
vt 0.500000 0.500000
vt 0.311911 0.500000
vt 0.234002 0.500000
vt 0.765998 0.500000
vt 0.662890 0.367001
vt 0.500000 0.367001
vt 0.337110 0.367001
vt 0.269639 0.367001
vt 0.730361 0.367001
vt 0.594044 0.269639
vt 0.500000 0.269639
vt 0.405956 0.269639
vt 0.367001 0.269639
vt 0.632999 0.269639
vt 0.500000 0.765998
vt 0.500000 0.234002
vt 0.030330 0.404898
vt 0.969670 0.404898
vt 0.030330 0.564088
vt 0.969670 0.564088
vn 0.281085 0.678598 -0.678598
vn 0.281085 0.678598 -0.678598
vn 0.281085 0.678598 -0.678598
vn 0.281085 0.678598 -0.678598
vn 0.281085 0.678598 -0.678598
vn 0.281085 0.678598 -0.678598
vn -0.281085 0.678598 -0.678598
vn -0.281085 0.678598 -0.678598
vn -0.281085 0.678598 -0.678598
vn -0.281085 0.678598 -0.678598
vn -0.281085 0.678598 -0.678598
vn -0.281084 0.678598 -0.678598
vn -0.678598 0.281085 -0.678598
vn -0.678598 0.281085 -0.678598
vn -0.678598 0.281085 -0.678598
vn -0.678598 0.281085 -0.678598
vn -0.678598 0.281085 -0.678598
vn -0.678598 0.281085 -0.678598
vn 0.678598 0.281085 -0.678598
vn 0.678598 0.281085 -0.678598
vn 0.678598 0.281085 -0.678598
vn 0.678598 0.281085 -0.678598
vn 0.678598 0.281085 -0.678598
vn 0.678598 0.281085 -0.678598
vn 0.371470 0.896809 -0.240299
vn 0.371470 0.896809 -0.240299
vn 0.371470 0.896809 -0.240299
vn 0.371470 0.896809 -0.240299
vn 0.371470 0.896809 -0.240299
vn 0.371470 0.896809 -0.240299
vn -0.371470 0.896809 -0.240299
vn -0.371470 0.896809 -0.240299
vn -0.371470 0.896809 -0.240299
vn -0.371470 0.896809 -0.240299
vn -0.371470 0.896809 -0.240299
vn -0.371470 0.896809 -0.240299
vn -0.896809 0.371470 -0.240299
vn -0.896809 0.371470 -0.240299
vn -0.896809 0.371470 -0.240299
vn -0.896809 0.371470 -0.240299
vn -0.896809 0.371470 -0.240299
vn -0.896809 0.371470 -0.240299
vn 0.896809 0.371471 -0.240299
vn 0.896809 0.371471 -0.240299
vn 0.896809 0.371471 -0.240299
vn 0.896809 0.371471 -0.240299
vn 0.896809 0.371471 -0.240299
vn 0.896809 0.371470 -0.240299
vn 0.371470 0.896809 0.240299
vn 0.371470 0.896809 0.240299
vn 0.371470 0.896809 0.240299
vn 0.371470 0.896809 0.240299
vn 0.371470 0.896809 0.240299
vn 0.371470 0.896809 0.240299
vn -0.371470 0.896809 0.240299
vn -0.371470 0.896809 0.240299
vn -0.371470 0.896809 0.240299
vn -0.371470 0.896809 0.240299
vn -0.371470 0.896809 0.240299
vn -0.371470 0.896809 0.240299
vn -0.896809 0.371470 0.240299
vn -0.896809 0.371470 0.240299
vn -0.896809 0.371470 0.240299
vn -0.896809 0.371470 0.240299
vn -0.896809 0.371470 0.240299
vn -0.896809 0.371470 0.240299
vn 0.896809 0.371470 0.240299
vn 0.896809 0.371471 0.240299
vn 0.896809 0.371471 0.240299
vn 0.896809 0.371471 0.240299
vn 0.896809 0.371471 0.240299
vn 0.896809 0.371471 0.240299
vn 0.281084 0.678598 0.678599
vn 0.281085 0.678598 0.678598
vn 0.281085 0.678598 0.678598
vn 0.281085 0.678598 0.678598
vn 0.281085 0.678598 0.678598
vn 0.281085 0.678598 0.678598
vn -0.281085 0.678598 0.678598
vn -0.281085 0.678598 0.678598
vn -0.281085 0.678598 0.678598
vn -0.281085 0.678598 0.678598
vn -0.281085 0.678598 0.678598
vn -0.281085 0.678598 0.678598
vn -0.678598 0.281085 0.678598
vn -0.678598 0.281085 0.678598
vn -0.678598 0.281085 0.678598
vn -0.678598 0.281085 0.678598
vn -0.678598 0.281085 0.678598
vn -0.678598 0.281085 0.678598
vn 0.678598 0.281085 0.678598
vn 0.678598 0.281085 0.678598
vn 0.678598 0.281085 0.678598
vn 0.678598 0.281085 0.678598
vn 0.678598 0.281085 0.678598
vn 0.678598 0.281085 0.678598
vn 0.106596 0.257345 -0.960422
vn 0.106596 0.257345 -0.960422
vn 0.106596 0.257345 -0.960422
vn -0.106595 0.257345 -0.960422
vn -0.106595 0.257345 -0.960422
vn -0.106595 0.257345 -0.960422
vn -0.257345 0.106596 -0.960422
vn -0.257345 0.106596 -0.960422
vn -0.257345 0.106596 -0.960422
vn 0.257345 0.106596 -0.960422
vn 0.257345 0.106596 -0.960422
vn 0.257345 0.106596 -0.960422
vn 0.106595 0.257345 0.960422
vn 0.106595 0.257345 0.960422
vn 0.106595 0.257345 0.960422
vn -0.106596 0.257345 0.960422
vn -0.106596 0.257345 0.960422
vn -0.106596 0.257345 0.960422
vn -0.257345 0.106596 0.960422
vn -0.257345 0.106596 0.960422
vn -0.257345 0.106596 0.960422
vn 0.257345 0.106596 0.960422
vn 0.257345 0.106596 0.960422
vn 0.257345 0.106596 0.960422
vn 0.000000 1.000000 0.000000
vn 0.000000 1.000000 0.000000
vn 0.000000 1.000000 0.000000
vn 0.000000 1.000000 0.000000
vn 0.000000 1.000000 0.000000
vn 0.000000 1.000000 0.000000
vn 0.281085 0.678598 -0.678598
vn 0.281085 0.678598 -0.678598
vn 0.281085 0.678598 -0.678598
vn 0.281085 0.678598 -0.678598
vn 0.281085 0.678598 -0.678598
vn 0.281085 0.678598 -0.678598
vn -0.281085 0.678598 -0.678598
vn -0.281085 0.678598 -0.678598
vn -0.281085 0.678598 -0.678598
vn -0.281085 0.678598 -0.678598
vn -0.281085 0.678598 -0.678598
vn -0.281084 0.678598 -0.678598
vn -0.678598 0.281085 -0.678598
vn -0.678598 0.281085 -0.678598
vn -0.678598 0.281085 -0.678598
vn -0.678598 0.281085 -0.678598
vn -0.678598 0.281085 -0.678598
vn -0.678598 0.281085 -0.678598
vn 0.678598 0.281085 -0.678598
vn 0.678598 0.281085 -0.678598
vn 0.678598 0.281085 -0.678598
vn 0.678598 0.281085 -0.678598
vn 0.678598 0.281085 -0.678598
vn 0.678598 0.281085 -0.678598
vn 0.371470 0.896809 -0.240299
vn 0.371470 0.896809 -0.240299
vn 0.371470 0.896809 -0.240299
vn 0.371470 0.896809 -0.240299
vn 0.371470 0.896809 -0.240299
vn 0.371470 0.896809 -0.240299
vn -0.371470 0.896809 -0.240299
vn -0.371470 0.896809 -0.240299
vn -0.371470 0.896809 -0.240299
vn -0.371470 0.896809 -0.240299
vn -0.371470 0.896809 -0.240299
vn -0.371470 0.896809 -0.240299
vn -0.896809 0.371470 -0.240299
vn -0.896809 0.371470 -0.240299
vn -0.896809 0.371470 -0.240299
vn -0.896809 0.371470 -0.240299
vn -0.896809 0.371470 -0.240299
vn -0.896809 0.371470 -0.240299
vn 0.896809 0.371471 -0.240299
vn 0.896809 0.371471 -0.240299
vn 0.896809 0.371471 -0.240299
vn 0.896809 0.371471 -0.240299
vn 0.896809 0.371471 -0.240299
vn 0.896809 0.371470 -0.240299
vn 0.371470 0.896809 0.240299
vn 0.371470 0.896809 0.240299
vn 0.371470 0.896809 0.240299
vn 0.371470 0.896809 0.240299
vn 0.371470 0.896809 0.240299
vn 0.371470 0.896809 0.240299
vn -0.371470 0.896809 0.240299
vn -0.371470 0.896809 0.240299
vn -0.371470 0.896809 0.240299
vn -0.371470 0.896809 0.240299
vn -0.371470 0.896809 0.240299
vn -0.371470 0.896809 0.240299
vn -0.896809 0.371470 0.240299
vn -0.896809 0.371470 0.240299
vn -0.896809 0.371470 0.240299
vn -0.896809 0.371470 0.240299
vn -0.896809 0.371470 0.240299
vn -0.896809 0.371470 0.240299
vn 0.896809 0.371470 0.240299
vn 0.896809 0.371471 0.240299
vn 0.896809 0.371471 0.240299
vn 0.896809 0.371471 0.240299
vn 0.896809 0.371471 0.240299
vn 0.896809 0.371471 0.240299
vn 0.281084 0.678598 0.678599
vn 0.281085 0.678598 0.678598
vn 0.281085 0.678598 0.678598
vn 0.281085 0.678598 0.678598
vn 0.281085 0.678598 0.678598
vn 0.281085 0.678598 0.678598
vn -0.281085 0.678598 0.678598
vn -0.281085 0.678598 0.678598
vn -0.281085 0.678598 0.678598
vn -0.281085 0.678598 0.678598
vn -0.281085 0.678598 0.678598
vn -0.281085 0.678598 0.678598
vn -0.678598 0.281085 0.678598
vn -0.678598 0.281085 0.678598
vn -0.678598 0.281085 0.678598
vn -0.678598 0.281085 0.678598
vn -0.678598 0.281085 0.678598
vn -0.678598 0.281085 0.678598
vn 0.678598 0.281085 0.678598
vn 0.678598 0.281085 0.678598
vn 0.678598 0.281085 0.678598
vn 0.678598 0.281085 0.678598
vn 0.678598 0.281085 0.678598
vn 0.678598 0.281085 0.678598
vn 0.106596 0.257345 -0.960422
vn 0.106596 0.257345 -0.960422
vn 0.106596 0.257345 -0.960422
vn -0.106595 0.257345 -0.960422
vn -0.106595 0.257345 -0.960422
vn -0.106595 0.257345 -0.960422
vn -0.257345 0.106596 -0.960422
vn -0.257345 0.106596 -0.960422
vn -0.257345 0.106596 -0.960422
vn 0.257345 0.106596 -0.960422
vn 0.257345 0.106596 -0.960422
vn 0.257345 0.106596 -0.960422
vn 0.106595 0.257345 0.960422
vn 0.106595 0.257345 0.960422
vn 0.106595 0.257345 0.960422
vn -0.106596 0.257345 0.960422
vn -0.106596 0.257345 0.960422
vn -0.106596 0.257345 0.960422
vn -0.257345 0.106596 0.960422
vn -0.257345 0.106596 0.960422
vn -0.257345 0.106596 0.960422
vn 0.257345 0.106596 0.960422
vn 0.257345 0.106596 0.960422
vn 0.257345 0.106596 0.960422
vn 0.000000 1.000000 0.000000
vn 0.000000 1.000000 0.000000
vn 0.000000 1.000000 0.000000
vn 0.000000 1.000000 0.000000
vn 0.000000 1.000000 0.000000
vn 0.000000 1.000000 0.000000
s off
g initialShadingGroup initialShadingGroup1 pSphere2 polySurface1
f 1/1/1 2/2/2 6/3/3
f 6/3/4 2/2/5 7/4/6
f 2/2/7 3/5/8 7/4/9
f 7/4/10 3/5/11 8/6/12
f 3/5/13 4/7/14 8/6/15
f 8/6/16 4/7/17 9/8/18
f 5/9/19 1/1/20 10/10/21
f 10/10/22 1/1/23 6/3/24
f 6/3/25 7/4/26 11/11/27
f 11/11/28 7/4/29 12/12/30
f 7/4/31 8/6/32 12/12/33
f 12/12/34 8/6/35 13/13/36
f 8/6/37 9/8/38 13/13/39
f 13/13/40 9/8/41 14/14/42
f 10/10/43 6/3/44 15/15/45
f 15/15/46 6/3/47 11/11/48
f 11/11/49 12/12/50 16/16/51
f 16/16/52 12/12/53 17/17/54
f 12/12/55 13/13/56 17/17/57
f 17/17/58 13/13/59 18/18/60
f 13/13/61 14/14/62 18/18/63
f 18/18/64 14/14/65 19/19/66
f 15/15/67 11/11/68 20/20/69
f 20/20/70 11/11/71 16/16/72
f 16/16/73 17/17/74 21/21/75
f 21/21/76 17/17/77 22/22/78
f 17/17/79 18/18/80 22/22/81
f 22/22/82 18/18/83 23/23/84
f 18/18/85 19/19/86 23/23/87
f 23/23/88 19/19/89 24/24/90
f 20/20/91 16/16/92 25/25/93
f 25/25/94 16/16/95 21/21/96
f 2/2/97 1/1/98 26/26/99
f 3/5/100 2/2/101 26/26/102
f 4/7/103 3/5/104 26/26/105
f 1/1/106 5/9/107 26/26/108
f 21/21/109 22/22/110 27/27/111
f 22/22/112 23/23/113 27/27/114
f 23/23/115 24/24/116 27/27/117
f 25/25/118 21/21/119 27/27/120
f 28/28/121 29/29/122 30/30/123
f 30/30/124 29/29/125 31/31/126
f 32/32/127 33/33/128 37/34/129
f 37/34/130 33/33/131 38/35/132
f 33/33/133 34/36/134 38/35/135
f 38/35/136 34/36/137 39/37/138
f 34/36/139 35/38/140 39/37/141
f 39/37/142 35/38/143 40/39/144
f 36/40/145 32/32/146 41/41/147
f 41/41/148 32/32/149 37/34/150
f 37/34/151 38/35/152 42/42/153
f 42/42/154 38/35/155 43/43/156
f 38/35/157 39/37/158 43/43/159
f 43/43/160 39/37/161 44/44/162
f 39/37/163 40/39/164 44/44/165
f 44/44/166 40/39/167 45/45/168
f 41/41/169 37/34/170 46/46/171
f 46/46/172 37/34/173 42/42/174
f 42/42/175 43/43/176 47/47/177
f 47/47/178 43/43/179 48/48/180
f 43/43/181 44/44/182 48/48/183
f 48/48/184 44/44/185 49/49/186
f 44/44/187 45/45/188 49/49/189
f 49/49/190 45/45/191 50/50/192
f 46/46/193 42/42/194 51/51/195
f 51/51/196 42/42/197 47/47/198
f 47/47/199 48/48/200 52/52/201
f 52/52/202 48/48/203 53/53/204
f 48/48/205 49/49/206 53/53/207
f 53/53/208 49/49/209 54/54/210
f 49/49/211 50/50/212 54/54/213
f 54/54/214 50/50/215 55/55/216
f 51/51/217 47/47/218 56/56/219
f 56/56/220 47/47/221 52/52/222
f 33/33/223 32/32/224 57/57/225
f 34/36/226 33/33/227 57/57/228
f 35/38/229 34/36/230 57/57/231
f 32/32/232 36/40/233 57/57/234
f 52/52/235 53/53/236 58/58/237
f 53/53/238 54/54/239 58/58/240
f 54/54/241 55/55/242 58/58/243
f 56/56/244 52/52/245 58/58/246
f 59/59/247 60/60/248 61/61/249
f 61/61/250 60/60/251 62/62/252
