# This file uses centimeters as units for non-parametric coordinates.

mtllib pirate_4.mtl
g default
v 9.647954 0.425631 1.008387
v 5.628461 0.425631 -13.627714
v 31.481762 0.425631 -32.977386
v -9.648413 0.425631 1.008387
v -5.628947 0.425631 -13.627714
v -31.482069 0.425631 -32.977386
v 0.000000 0.031585 42.962593
v 20.368460 0.031585 -29.159159
v -20.368460 0.031585 -29.159159
v 0.000000 0.031585 -44.153877
v 0.000000 7.070578 -29.578262
vt 0.605858 0.489439
vt 0.847760 0.867391
vt 0.561325 0.652205
vt 0.392069 0.489439
vt 0.436602 0.652205
vt 0.150169 0.867391
vt 0.498966 0.022870
vt 0.273299 0.824929
vt 0.724633 0.824929
vt 0.498966 0.991683
vt 0.498966 0.829590
vn 0.000000 1.000000 0.000000
vn 0.000000 1.000000 0.000000
vn 0.000000 1.000000 0.000000
vn 0.000000 1.000000 0.000000
vn 0.000000 1.000000 0.000000
vn 0.000000 1.000000 0.000000
vn 0.323582 0.941777 0.091385
vn 0.323582 0.941777 0.091385
vn 0.323582 0.941777 0.091385
vn 0.304899 0.857614 -0.414167
vn 0.304899 0.857614 -0.414167
vn 0.304899 0.857614 -0.414167
vn -0.304899 0.857614 -0.414167
vn -0.304899 0.857614 -0.414167
vn -0.304899 0.857614 -0.414167
vn -0.323582 0.941777 0.091385
vn -0.323582 0.941777 0.091385
vn -0.323582 0.941777 0.091385
s off
g pPlane62
usemtl initialShadingGroup
f 1/1/1 3/2/2 2/3/3
f 4/4/4 5/5/5 6/6/6
f 7/7/7 8/9/8 11/11/9
f 8/9/10 10/10/11 11/11/12
f 10/10/13 9/8/14 11/11/15
f 9/8/16 7/7/17 11/11/18
