# This file uses centimeters as units for non-parametric coordinates.

mtllib missile_1.mtl
g default
v 0.238937 0.402537 -7.586287
v -0.259774 0.655882 -7.650029
v -0.758485 0.402537 -7.586287
v -0.965058 -0.000000 -7.522544
v 0.445510 -0.000000 -7.522544
v 0.987004 0.707107 6.613336
v -0.259774 1.000000 6.613336
v -1.506551 0.707107 6.613336
v -2.022983 0.000000 6.613336
v 1.503436 0.000000 6.613336
v -0.259774 -0.000000 -7.586287
v -0.259774 0.000000 6.613336
v -1.174077 0.613674 -6.803158
v -0.259774 0.965774 -6.803158
v 0.654530 0.613674 -6.803158
v 1.033247 -0.000000 -6.803158
v -1.552794 -0.000000 -6.803158
v -1.401100 0.707107 -6.099213
v -0.259774 1.000000 -6.099213
v 0.881552 0.707107 -6.099213
v 1.454458 -0.000000 -6.099213
v -1.974005 -0.000000 -6.099213
v -1.506551 0.707107 -5.491260
v -0.259774 1.000000 -5.491260
v 0.987004 0.707107 -5.491260
v 1.503436 -0.000000 -5.491260
v -2.022983 -0.000000 -5.491260
v 1.456784 -0.000000 -0.971631
v 3.200686 -0.000000 -0.971631
v 1.456784 0.000000 -3.507949
v 2.052490 0.000000 -3.507949
v 1.456784 -0.000000 6.518178
v 3.200686 -0.000000 7.087777
v 1.456784 0.000000 3.434168
v 2.052490 0.000000 3.434168
v -1.916845 -0.000000 -0.971631
v -3.660747 -0.000000 -0.971631
v -1.916845 0.000000 -3.507949
v -2.512551 0.000000 -3.507949
v -1.916845 -0.000000 6.518178
v -3.660747 -0.000000 7.087777
v -1.916845 0.000000 3.434168
v -2.512551 0.000000 3.434168
v -0.507651 1.622051 -1.014823
v 0.025682 1.622051 -1.014823
v -0.507651 0.993361 -3.498156
v 0.025682 0.993361 -3.498156
v -0.507651 1.622051 7.512482
v 0.025682 1.622051 7.512482
v -0.507651 0.993361 3.441351
v 0.025682 0.993361 3.441351
vt 0.610485 0.045765
vt 0.500000 0.000000
vt 0.389515 0.045765
vt 0.343750 0.156250
vt 0.656250 0.156250
vt 0.375000 0.312500
vt 0.406250 0.312500
vt 0.437500 0.312500
vt 0.468750 0.312500
vt 0.593750 0.312500
vt 0.625000 0.312500
vt 0.375000 0.688440
vt 0.406250 0.688440
vt 0.437500 0.688440
vt 0.468750 0.688440
vt 0.593750 0.688440
vt 0.625000 0.688440
vt 0.343750 0.843750
vt 0.389515 0.954235
vt 0.500000 1.000000
vt 0.610485 0.954235
vt 0.656250 0.843750
vt 0.500000 0.150000
vt 0.500000 0.837500
vt 0.437500 0.331632
vt 0.406250 0.331632
vt 0.625000 0.331632
vt 0.375000 0.331632
vt 0.593750 0.331632
vt 0.468750 0.331632
vt 0.437500 0.350353
vt 0.406250 0.350353
vt 0.625000 0.350353
vt 0.375000 0.350353
vt 0.593750 0.350353
vt 0.468750 0.350353
vt 0.437500 0.366521
vt 0.406250 0.366521
vt 0.625000 0.366521
vt 0.375000 0.366521
vt 0.593750 0.366521
vt 0.468750 0.366521
vt 0.000000 0.000000
vt 1.000000 0.000000
vt 1.000000 1.000000
vt 0.000000 1.000000
vt 0.000000 0.000000
vt 1.000000 0.000000
vt 1.000000 1.000000
vt 0.000000 1.000000
vt 0.000000 0.000000
vt 1.000000 0.000000
vt 1.000000 1.000000
vt 0.000000 1.000000
vt 0.000000 0.000000
vt 1.000000 0.000000
vt 1.000000 1.000000
vt 0.000000 1.000000
vt 0.000000 0.000000
vt 1.000000 0.000000
vt 1.000000 1.000000
vt 0.000000 1.000000
vt 0.000000 0.000000
vt 1.000000 0.000000
vt 1.000000 1.000000
vt 0.000000 1.000000
vn 0.462040 0.832851 -0.304761
vn 0.367440 0.905909 -0.210517
vn 0.379102 0.848631 -0.368928
vn 0.302005 0.916369 -0.262794
vn -0.462040 0.832850 -0.304761
vn -0.379102 0.848631 -0.368928
vn -0.367440 0.905909 -0.210517
vn -0.302005 0.916369 -0.262794
vn -0.795281 0.327314 -0.510287
vn -0.749537 0.380056 -0.541988
vn -0.767279 0.454297 -0.452655
vn -0.730725 0.501831 -0.462824
vn 0.795281 0.327314 -0.510287
vn 0.767280 0.454297 -0.452655
vn 0.749537 0.380056 -0.541988
vn 0.730726 0.501831 -0.462824
vn 0.000001 -0.096730 -0.995311
vn 0.083747 -0.103755 -0.991071
vn 0.000000 -0.102537 -0.994729
vn -0.083746 -0.103755 -0.991071
vn -0.089458 -0.110830 -0.989805
vn 0.089458 -0.110830 -0.989805
vn 0.000000 0.000000 1.000000
vn 0.000000 0.000000 1.000000
vn 0.000000 0.000000 1.000000
vn 0.000000 0.000000 1.000000
vn 0.000000 0.000000 1.000000
vn 0.000000 0.000000 1.000000
vn -0.279600 0.958213 -0.060425
vn -0.239022 0.964830 -0.109415
vn 0.279600 0.958213 -0.060426
vn 0.239022 0.964830 -0.109415
vn 0.764030 0.583091 -0.276158
vn 0.759712 0.595814 -0.260469
vn -0.764030 0.583091 -0.276158
vn -0.759712 0.595814 -0.260469
vn -0.229307 0.973354 -0.000577
vn -0.228694 0.973497 -0.001704
vn 0.229307 0.973354 -0.000577
vn 0.228694 0.973497 -0.001704
vn 0.806562 0.591122 -0.005688
vn 0.807550 0.589791 -0.003022
vn -0.806562 0.591122 -0.005688
vn -0.807551 0.589791 -0.003022
vn -0.228694 0.973498 0.000000
vn -0.228694 0.973498 0.000000
vn 0.228694 0.973498 0.000000
vn 0.228694 0.973498 0.000000
vn 0.807554 0.589794 -0.000000
vn 0.807554 0.589794 0.000000
vn -0.807554 0.589793 0.000000
vn -0.807554 0.589793 0.000000
vn 0.000000 1.000000 0.000000
vn 0.000000 1.000000 0.000000
vn 0.000000 1.000000 0.000000
vn 0.000000 1.000000 0.000000
vn -0.000000 1.000000 0.000000
vn -0.000000 1.000000 0.000000
vn -0.000000 1.000000 0.000000
vn 0.000000 1.000000 0.000000
vn 0.000000 1.000000 0.000000
vn 0.000000 1.000000 0.000000
vn 0.000000 1.000000 0.000000
vn 0.000000 1.000000 0.000000
vn 0.000000 1.000000 0.000000
vn 0.000000 1.000000 0.000000
vn 0.000000 1.000000 0.000000
vn 0.000000 1.000000 0.000000
vn 0.000000 0.969417 -0.245421
vn 0.000000 0.969417 -0.245421
vn 0.000000 0.969417 -0.245421
vn 0.000000 0.969417 -0.245421
vn 0.000000 0.988285 -0.152617
vn 0.000000 0.988285 -0.152617
vn 0.000000 0.988285 -0.152617
vn 0.000000 0.988285 -0.152617
s 1
g pCylinder2
usemtl initialShadingGroup
f 2/7/1 14/26/2 1/6/3
f 1/6/3 14/26/2 15/28/4
s 2
f 2/7/5 3/8/6 14/26/7
f 14/26/7 3/8/6 13/25/8
s 3
f 3/8/9 4/9/10 13/25/11
f 13/25/11 4/9/10 17/30/12
s 4
f 1/11/13 15/27/14 5/10/15
f 5/10/15 15/27/14 16/29/16
s 5
f 2/2/17 1/1/18 11/23/19
f 3/3/20 2/2/17 11/23/19
f 4/4/21 3/3/20 11/23/19
f 1/1/18 5/5/22 11/23/19
s 6
f 6/21/23 7/20/24 12/24/25
f 7/20/24 8/19/26 12/24/25
f 8/19/26 9/18/27 12/24/25
f 10/22/28 6/21/23 12/24/25
s 2
f 14/26/7 13/25/8 19/32/29
f 19/32/29 13/25/8 18/31/30
s 1
f 14/26/2 19/32/31 15/28/4
f 15/28/4 19/32/31 20/34/32
s 4
f 15/27/14 20/33/33 16/29/16
f 16/29/16 20/33/33 21/35/34
s 3
f 13/25/11 17/30/12 18/31/35
f 18/31/35 17/30/12 22/36/36
s 2
f 19/32/29 18/31/30 24/38/37
f 24/38/37 18/31/30 23/37/38
s 1
f 19/32/31 24/38/39 20/34/32
f 20/34/32 24/38/39 25/40/40
s 4
f 20/33/33 25/39/41 21/35/34
f 21/35/34 25/39/41 26/41/42
s 3
f 18/31/35 22/36/36 23/37/43
f 23/37/43 22/36/36 27/42/44
s 2
f 24/38/37 23/37/38 7/13/45
f 7/13/45 23/37/38 8/14/46
s 1
f 25/40/40 24/38/39 6/12/47
f 6/12/47 24/38/39 7/13/48
s 4
f 26/41/42 25/39/41 10/16/49
f 10/16/49 25/39/41 6/17/50
s 3
f 23/37/43 27/42/44 8/14/51
f 8/14/51 27/42/44 9/15/52
s 7
f 29/44/53 31/45/54 28/43/55
f 28/43/55 31/45/54 30/46/56
s 8
f 33/48/57 35/49/58 32/47/59
f 32/47/59 35/49/58 34/50/60
s 9
f 38/54/61 39/53/62 36/51/63
f 36/51/63 39/53/62 37/52/64
s 10
f 42/58/65 43/57/66 40/55/67
f 40/55/67 43/57/66 41/56/68
s 11
f 44/59/69 45/60/70 46/62/71
f 46/62/71 45/60/70 47/61/72
s 12
f 48/63/73 49/64/74 50/66/75
f 50/66/75 49/64/74 51/65/76
