# This file uses centimeters as units for non-parametric coordinates.

mtllib neutral_1.mtl
g default
v 6.983142 -0.000000 30.487190
v 30.412407 -9.226465 30.487190
v 6.983141 0.000000 13.568611
v -6.983142 -0.000000 30.487190
v -30.412407 -9.226465 30.487190
v -6.983141 0.000000 13.568611
v 6.946476 1.692718 -9.055718
v 5.316604 3.127738 -9.055718
v 2.877327 4.086588 -9.055718
v 0.000004 4.423292 -9.055718
v -2.877320 4.086590 -9.055718
v -5.316599 3.127742 -9.055718
v -6.946473 1.692722 -9.055718
v -7.518809 0.000002 -9.055718
v 7.518809 -0.000000 -9.055718
v 6.946476 1.692718 30.489437
v 5.316604 3.127738 30.489437
v 2.877327 4.086588 30.489437
v 0.000004 4.423292 30.489437
v -2.877320 4.086590 30.489437
v -5.316599 3.127742 30.489437
v -6.946473 1.692722 30.489437
v -7.518809 0.000002 30.489437
v 7.518809 0.000000 30.489437
v 1.210822 4.296033 -2.410708
v 0.699068 4.807786 -2.410708
v 0.000000 4.995101 -2.410708
v -0.699068 4.807786 -2.410708
v -1.210822 4.296033 -2.410708
v -1.398137 3.596964 -2.410708
v 1.398137 3.596964 -2.410708
v 2.237307 4.888674 -0.663028
v 1.291710 5.834271 -0.663028
v 0.000000 6.180384 -0.663028
v -1.291710 5.834271 -0.663028
v -2.237307 4.888674 -0.663028
v -2.583420 3.596964 -0.663028
v 2.583420 3.596964 -0.663028
v 2.923182 5.284665 1.952562
v 1.687700 6.520147 1.952562
v 0.000000 6.972365 1.952562
v -1.687700 6.520147 1.952562
v -2.923182 5.284665 1.952562
v -3.375401 3.596964 1.952562
v 3.375401 3.596964 1.952562
v 3.164030 5.423718 5.037859
v 1.826754 6.760994 5.037859
v 0.000000 7.250472 5.037859
v -1.826754 6.760994 5.037859
v -3.164030 5.423718 5.037859
v -3.653507 3.596964 5.037859
v 3.653507 3.596964 5.037859
v 2.923182 5.284665 8.123158
v 1.687700 6.520147 8.123158
v 0.000000 6.972365 8.123158
v -1.687700 6.520147 8.123158
v -2.923182 5.284665 8.123158
v -3.375401 3.596964 8.123158
v 3.375401 3.596964 8.123158
v 2.237307 4.888674 10.738747
v 1.291710 5.834271 10.738747
v 0.000000 6.180384 10.738747
v -1.291710 5.834271 10.738747
v -2.237307 4.888674 10.738747
v -2.583420 3.596964 10.738747
v 2.583420 3.596964 10.738747
v 1.210822 4.296033 12.486427
v 0.699068 4.807786 12.486427
v 0.000000 4.995101 12.486427
v -0.699068 4.807786 12.486427
v -1.210822 4.296033 12.486427
v -1.398137 3.596964 12.486427
v 1.398137 3.596964 12.486427
v 0.000000 3.596964 -3.024413
v 0.000000 3.596964 13.100132
v -5.374071 -0.000001 -8.288415
v -4.964995 0.884172 -8.288415
v -3.800043 1.633738 -8.288415
v -2.056569 2.134582 -8.288415
v -0.000001 2.310455 -8.288415
v 2.056567 2.134582 -8.288415
v 3.800042 1.633739 -8.288415
v 4.964994 0.884173 -8.288415
v 5.374071 -0.000000 -8.288415
v 0.000000 0.000000 -32.179676
vt 0.609112 0.023638
vt 0.975194 0.023638
vt 0.609112 0.287990
vt 0.390888 0.023638
vt 0.390888 0.287990
vt 0.024806 0.023638
vt 0.608539 0.641496
vt 0.583072 0.641496
vt 0.608539 0.023603
vt 0.583072 0.023603
vt 0.544958 0.641496
vt 0.544958 0.023603
vt 0.500000 0.641496
vt 0.500000 0.023603
vt 0.455042 0.641496
vt 0.455042 0.023603
vt 0.416928 0.641496
vt 0.416928 0.023603
vt 0.391461 0.641496
vt 0.391461 0.023603
vt 0.382519 0.641496
vt 0.382519 0.023603
vt 0.617481 0.641496
vt 0.617481 0.023603
vt 0.518919 0.537667
vt 0.510923 0.537667
vt 0.534958 0.510360
vt 0.520183 0.510360
vt 0.500000 0.537667
vt 0.500000 0.510360
vt 0.489077 0.537667
vt 0.479817 0.510360
vt 0.481081 0.537667
vt 0.465042 0.510360
vt 0.478154 0.537667
vt 0.459634 0.510360
vt 0.521846 0.537667
vt 0.540366 0.510360
vt 0.545675 0.469491
vt 0.526370 0.469491
vt 0.500000 0.469491
vt 0.473630 0.469491
vt 0.454325 0.469491
vt 0.447259 0.469491
vt 0.552741 0.469491
vt 0.549438 0.421283
vt 0.528543 0.421283
vt 0.500000 0.421283
vt 0.471457 0.421283
vt 0.450562 0.421283
vt 0.442914 0.421283
vt 0.557086 0.421283
vt 0.545675 0.373076
vt 0.526370 0.373076
vt 0.500000 0.373076
vt 0.473630 0.373076
vt 0.454325 0.373076
vt 0.447259 0.373076
vt 0.552741 0.373076
vt 0.534958 0.332207
vt 0.520183 0.332207
vt 0.500000 0.332207
vt 0.479817 0.332207
vt 0.465042 0.332207
vt 0.459634 0.332207
vt 0.540366 0.332207
vt 0.518919 0.304900
vt 0.510923 0.304900
vt 0.500000 0.304900
vt 0.489077 0.304900
vt 0.481081 0.304900
vt 0.478154 0.304900
vt 0.521846 0.304900
vt 0.500000 0.547256
vt 0.500000 0.295310
vt 0.416030 0.629506
vt 0.422422 0.629506
vt 0.500000 1.002807
vt 0.440624 0.629506
vt 0.467866 0.629506
vt 0.500000 0.629506
vt 0.532134 0.629506
vt 0.559376 0.629506
vt 0.577578 0.629506
vt 0.583970 0.629506
vn 0.366413 0.930452 -0.000000
vn 0.366413 0.930452 -0.000000
vn 0.366413 0.930452 -0.000000
vn -0.366413 0.930452 -0.000000
vn -0.366413 0.930452 -0.000000
vn -0.366413 0.930452 -0.000000
vn 0.817658 0.575704 0.000000
vn 0.507060 0.861911 0.000000
vn 0.817658 0.575704 0.000000
vn 0.507060 0.861911 0.000000
vn 0.236753 0.971570 0.000000
vn 0.236753 0.971570 0.000000
vn 0.000000 1.000000 0.000000
vn 0.000000 1.000000 0.000000
vn -0.236752 0.971570 0.000000
vn -0.236752 0.971570 0.000000
vn -0.507059 0.861911 0.000000
vn -0.507059 0.861911 0.000000
vn -0.817658 0.575705 0.000000
vn -0.817658 0.575705 0.000000
vn -0.947315 0.320303 0.000000
vn -0.947315 0.320303 0.000000
vn 0.947316 0.320302 0.000000
vn 0.947316 0.320302 0.000000
vn 0.626939 0.338838 -0.701524
vn 0.373526 0.606912 -0.701524
vn 0.801578 0.447909 -0.396042
vn 0.470233 0.788690 -0.396042
vn 0.020027 0.712364 -0.701524
vn 0.012888 0.918142 -0.396042
vn -0.338838 0.626939 -0.701524
vn -0.447909 0.801578 -0.396042
vn -0.606912 0.373526 -0.701524
vn -0.788690 0.470233 -0.396042
vn -0.709755 0.190178 -0.678292
vn -0.891607 0.238905 -0.384658
vn 0.687831 0.184304 -0.702083
vn 0.891652 0.238917 -0.384547
vn 0.855136 0.486579 -0.178839
vn 0.497281 0.848958 -0.178839
vn 0.006179 0.983859 -0.178839
vn -0.486579 0.855136 -0.178839
vn -0.848958 0.497280 -0.178839
vn -0.951200 0.254873 -0.173950
vn 0.951553 0.254968 -0.171868
vn 0.866025 0.500000 -0.000000
vn 0.500000 0.866025 -0.000000
vn 0.000000 1.000000 -0.000000
vn -0.500000 0.866025 -0.000000
vn -0.866025 0.500000 0.000000
vn -0.965925 0.258819 -0.001101
vn 0.965925 0.258819 0.001101
vn 0.848958 0.497280 0.178839
vn 0.486579 0.855136 0.178839
vn -0.006179 0.983859 0.178839
vn -0.497281 0.848957 0.178839
vn -0.855136 0.486579 0.178839
vn -0.951553 0.254968 0.171868
vn 0.951200 0.254873 0.173950
vn 0.788690 0.470233 0.396042
vn 0.447909 0.801578 0.396042
vn -0.012888 0.918142 0.396042
vn -0.470233 0.788690 0.396042
vn -0.801578 0.447909 0.396042
vn -0.891651 0.238917 0.384547
vn 0.891607 0.238905 0.384659
vn 0.606912 0.373526 0.701524
vn 0.338838 0.626939 0.701524
vn -0.020027 0.712365 0.701524
vn -0.373526 0.606912 0.701524
vn -0.626939 0.338838 0.701524
vn -0.687832 0.184304 0.702083
vn 0.709755 0.190178 0.678292
vn 0.000000 0.280852 -0.959751
vn 0.000000 0.280852 0.959751
vn -0.889229 0.411415 -0.200022
vn -0.721999 0.669444 -0.174818
vn -0.000000 0.991486 -0.130213
vn -0.401560 0.907137 -0.125903
vn -0.178526 0.978551 -0.102797
vn 0.000000 0.995357 -0.096258
vn 0.178526 0.978551 -0.102797
vn 0.401560 0.907137 -0.125903
vn 0.721999 0.669445 -0.174818
vn 0.889229 0.411416 -0.200022
s off
g pPlane3
usemtl initialShadingGroup
f 1/1/1 2/2/2 3/3/3
f 4/4/4 6/5/5 5/6/6
s 1
f 7/7/7 8/8/8 16/9/9
f 16/9/9 8/8/8 17/10/10
f 8/8/8 9/11/11 17/10/10
f 17/10/10 9/11/11 18/12/12
f 9/11/11 10/13/13 18/12/12
f 18/12/12 10/13/13 19/14/14
f 10/13/13 11/15/15 19/14/14
f 19/14/14 11/15/15 20/16/16
f 11/15/15 12/17/17 20/16/16
f 20/16/16 12/17/17 21/18/18
f 12/17/17 13/19/19 21/18/18
f 21/18/18 13/19/19 22/20/20
f 13/19/19 14/21/21 22/20/20
f 22/20/20 14/21/21 23/22/22
f 15/23/23 7/7/7 24/24/24
f 24/24/24 7/7/7 16/9/9
s 2
f 25/25/25 26/26/26 32/27/27
f 32/27/27 26/26/26 33/28/28
f 26/26/26 27/29/29 33/28/28
f 33/28/28 27/29/29 34/30/30
f 27/29/29 28/31/31 34/30/30
f 34/30/30 28/31/31 35/32/32
f 28/31/31 29/33/33 35/32/32
f 35/32/32 29/33/33 36/34/34
f 29/33/33 30/35/35 36/34/34
f 36/34/34 30/35/35 37/36/36
f 31/37/37 25/25/25 38/38/38
f 38/38/38 25/25/25 32/27/27
f 32/27/27 33/28/28 39/39/39
f 39/39/39 33/28/28 40/40/40
f 33/28/28 34/30/30 40/40/40
f 40/40/40 34/30/30 41/41/41
f 34/30/30 35/32/32 41/41/41
f 41/41/41 35/32/32 42/42/42
f 35/32/32 36/34/34 42/42/42
f 42/42/42 36/34/34 43/43/43
f 36/34/34 37/36/36 43/43/43
f 43/43/43 37/36/36 44/44/44
f 38/38/38 32/27/27 45/45/45
f 45/45/45 32/27/27 39/39/39
f 39/39/39 40/40/40 46/46/46
f 46/46/46 40/40/40 47/47/47
f 40/40/40 41/41/41 47/47/47
f 47/47/47 41/41/41 48/48/48
f 41/41/41 42/42/42 48/48/48
f 48/48/48 42/42/42 49/49/49
f 42/42/42 43/43/43 49/49/49
f 49/49/49 43/43/43 50/50/50
f 43/43/43 44/44/44 50/50/50
f 50/50/50 44/44/44 51/51/51
f 45/45/45 39/39/39 52/52/52
f 52/52/52 39/39/39 46/46/46
f 46/46/46 47/47/47 53/53/53
f 53/53/53 47/47/47 54/54/54
f 47/47/47 48/48/48 54/54/54
f 54/54/54 48/48/48 55/55/55
f 48/48/48 49/49/49 55/55/55
f 55/55/55 49/49/49 56/56/56
f 49/49/49 50/50/50 56/56/56
f 56/56/56 50/50/50 57/57/57
f 50/50/50 51/51/51 57/57/57
f 57/57/57 51/51/51 58/58/58
f 52/52/52 46/46/46 59/59/59
f 59/59/59 46/46/46 53/53/53
f 53/53/53 54/54/54 60/60/60
f 60/60/60 54/54/54 61/61/61
f 54/54/54 55/55/55 61/61/61
f 61/61/61 55/55/55 62/62/62
f 55/55/55 56/56/56 62/62/62
f 62/62/62 56/56/56 63/63/63
f 56/56/56 57/57/57 63/63/63
f 63/63/63 57/57/57 64/64/64
f 57/57/57 58/58/58 64/64/64
f 64/64/64 58/58/58 65/65/65
f 59/59/59 53/53/53 66/66/66
f 66/66/66 53/53/53 60/60/60
f 60/60/60 61/61/61 67/67/67
f 67/67/67 61/61/61 68/68/68
f 61/61/61 62/62/62 68/68/68
f 68/68/68 62/62/62 69/69/69
f 62/62/62 63/63/63 69/69/69
f 69/69/69 63/63/63 70/70/70
f 63/63/63 64/64/64 70/70/70
f 70/70/70 64/64/64 71/71/71
f 64/64/64 65/65/65 71/71/71
f 71/71/71 65/65/65 72/72/72
f 66/66/66 60/60/60 73/73/73
f 73/73/73 60/60/60 67/67/67
f 26/26/26 25/25/25 74/74/74
f 27/29/29 26/26/26 74/74/74
f 28/31/31 27/29/29 74/74/74
f 29/33/33 28/31/31 74/74/74
f 30/35/35 29/33/33 74/74/74
f 25/25/25 31/37/37 74/74/74
f 67/67/67 68/68/68 75/75/75
f 68/68/68 69/69/69 75/75/75
f 69/69/69 70/70/70 75/75/75
f 70/70/70 71/71/71 75/75/75
f 71/71/71 72/72/72 75/75/75
f 73/73/73 67/67/67 75/75/75
s 4
f 76/76/76 77/77/77 85/78/78
f 77/77/77 78/79/79 85/78/78
f 78/79/79 79/80/80 85/78/78
f 79/80/80 80/81/81 85/78/78
f 80/81/81 81/82/82 85/78/78
f 81/82/82 82/83/83 85/78/78
f 82/83/83 83/84/84 85/78/78
f 83/84/84 84/85/85 85/78/78
