# This file uses centimeters as units for non-parametric coordinates.

mtllib neutral_5.mtl
g default
v -63.994675 -15.916358 63.980526
v -7.995626 0.000000 9.368046
v -8.001349 -0.000000 48.543522
v 64.763428 -15.916358 63.980526
v 8.764381 0.000000 9.368046
v 8.770104 -0.000000 48.543522
v 8.710794 1.909909 -27.630184
v 6.705029 3.529055 -27.630184
v 3.703190 4.610934 -27.630184
v 0.162278 4.990840 -27.630184
v -3.378635 4.610937 -27.630184
v -6.380477 3.529059 -27.630184
v -8.386245 1.909914 -27.630184
v -9.090577 0.000002 -27.630184
v 9.415124 -0.000000 -27.630184
v 8.710794 1.909909 50.521770
v 6.705029 3.529055 50.521770
v 3.703190 4.610934 50.521770
v 0.162278 4.990840 50.521770
v -3.378635 4.610937 50.521770
v -6.380477 3.529059 50.521770
v -8.386245 1.909914 50.521770
v -9.090577 0.000002 50.521770
v 9.415124 0.000000 50.521770
v 20.068241 0.000000 -47.616940
v 18.009630 0.000000 -52.586868
v 14.734853 0.000000 -56.854641
v 10.467078 0.000000 -60.129421
v 5.497150 0.000000 -62.188034
v 0.163760 0.000000 -62.890190
v -5.169631 0.000000 -62.188034
v -10.139562 0.000000 -60.129425
v -14.407338 0.000000 -56.854649
v -17.682117 0.000000 -52.586872
v -19.740730 0.000000 -47.616943
v -20.442886 0.000000 -42.283550
v -19.740732 0.000000 -36.950161
v -17.682121 0.000000 -31.980228
v -14.407342 0.000000 -27.712452
v -10.139566 0.000000 -24.437672
v -5.169635 0.000000 -22.379059
v 0.163757 0.000000 -21.676905
v 5.497149 0.000000 -22.379059
v 10.467080 0.000000 -24.437670
v 14.734858 0.000000 -27.712448
v 18.009640 0.000000 -31.980225
v 20.068253 0.000000 -36.950157
v 20.770407 0.000000 -42.283550
v 19.390013 5.333394 -47.435207
v 17.401546 5.333394 -52.235790
v 14.238354 5.333394 -56.358143
v 10.116001 5.333394 -59.521339
v 5.315419 5.333394 -61.509804
v 0.163760 5.333394 -62.188034
v -4.987900 5.333394 -61.509804
v -9.788484 5.333394 -59.521339
v -13.910839 5.333394 -56.358150
v -17.074034 5.333394 -52.235794
v -19.062502 5.333394 -47.435211
v -19.740730 5.333394 -42.283550
v -19.062502 5.333394 -37.131889
v -17.074036 5.333394 -32.331306
v -13.910843 5.333394 -28.208950
v -9.788488 5.333394 -25.045757
v -4.987905 5.333394 -23.057289
v 0.163757 5.333394 -22.379059
v 5.315418 5.333394 -23.057287
v 10.116003 5.333394 -25.045753
v 14.238358 5.333394 -28.208948
v 17.401554 5.333394 -32.331303
v 19.390022 5.333394 -37.131889
v 20.068253 5.333394 -42.283550
v 17.401546 10.303324 -46.902401
v 15.618737 10.303324 -51.206486
v 12.782697 10.303324 -54.902485
v 9.086696 10.303324 -57.738529
v 4.782611 10.303324 -59.521339
v 0.163760 10.303324 -60.129425
v -4.455093 10.303324 -59.521339
v -8.759178 10.303324 -57.738533
v -12.455182 10.303324 -54.902493
v -15.291224 10.303324 -51.206490
v -17.074036 10.303324 -46.902405
v -17.682121 10.303324 -42.283550
v -17.074038 10.303324 -37.664700
v -15.291227 10.303324 -33.360611
v -12.455185 10.303324 -29.664608
v -8.759183 10.303324 -26.828566
v -4.455096 10.303324 -25.045753
v 0.163757 10.303324 -24.437672
v 4.782611 10.303324 -25.045753
v 9.086697 10.303324 -26.828564
v 12.782701 10.303324 -29.664606
v 15.618744 10.303324 -33.360611
v 17.401556 10.303324 -37.664696
v 18.009640 10.303324 -42.283550
v 14.238354 14.571101 -46.054825
v 12.782695 14.571101 -49.569096
v 10.467077 14.571101 -52.586868
v 7.449306 14.571101 -54.902485
v 3.935035 14.571101 -56.358143
v 0.163759 14.571101 -56.854645
v -3.607518 14.571101 -56.358147
v -7.121789 14.571101 -54.902489
v -10.139563 14.571101 -52.586872
v -12.455182 14.571101 -49.569099
v -13.910842 14.571101 -46.054829
v -14.407339 14.571101 -42.283550
v -13.910842 14.571101 -38.512272
v -12.455184 14.571101 -34.998001
v -10.139565 14.571101 -31.980228
v -7.121793 14.571101 -29.664608
v -3.607521 14.571101 -28.208950
v 0.163757 14.571101 -27.712452
v 3.935035 14.571101 -28.208950
v 7.449307 14.571101 -29.664608
v 10.467081 14.571101 -31.980227
v 12.782701 14.571101 -34.998001
v 14.238359 14.571101 -38.512272
v 14.734859 14.571101 -42.283550
v 10.115999 17.845882 -44.950245
v 9.086694 17.845882 -47.435207
v 7.449305 17.845882 -49.569096
v 5.315418 17.845882 -51.206486
v 2.830454 17.845882 -52.235790
v 0.163759 17.845882 -52.586868
v -2.502937 17.845882 -52.235794
v -4.987902 17.845882 -51.206490
v -7.121790 17.845882 -49.569099
v -8.759180 17.845882 -47.435211
v -9.788486 17.845882 -44.950245
v -10.139565 17.845882 -42.283550
v -9.788487 17.845882 -39.616856
v -8.759182 17.845882 -37.131889
v -7.121792 17.845882 -34.998001
v -4.987905 17.845882 -33.360611
v -2.502939 17.845882 -32.331306
v 0.163757 17.845882 -31.980228
v 2.830453 17.845882 -32.331306
v 5.315419 17.845882 -33.360611
v 7.449307 17.845882 -34.998001
v 9.086699 17.845882 -37.131889
v 10.116005 17.845882 -39.616852
v 10.467082 17.845882 -42.283550
v 5.315417 19.904495 -43.663933
v 4.782609 19.904495 -44.950245
v 3.935034 19.904495 -46.054825
v 2.830453 19.904495 -46.902401
v 1.544141 19.904495 -47.435211
v 0.163758 19.904495 -47.616940
v -1.216625 19.904495 -47.435211
v -2.502938 19.904495 -46.902405
v -3.607520 19.904495 -46.054829
v -4.455095 19.904495 -44.950245
v -4.987903 19.904495 -43.663933
v -5.169634 19.904495 -42.283550
v -4.987904 19.904495 -40.903168
v -4.455096 19.904495 -39.616856
v -3.607521 19.904495 -38.512272
v -2.502939 19.904495 -37.664696
v -1.216626 19.904495 -37.131889
v 0.163757 19.904495 -36.950157
v 1.544141 19.904495 -37.131889
v 2.830453 19.904495 -37.664696
v 3.935035 19.904495 -38.512272
v 4.782611 19.904495 -39.616852
v 5.315420 19.904495 -40.903168
v 5.497150 19.904495 -42.283550
v 0.163757 20.606649 -42.283550
vt 0.437534 0.426812
vt 0.000042 0.000152
vt 0.437489 0.120754
vt 0.568472 0.426812
vt 0.568516 0.120754
vt 1.005964 0.000152
vt 0.568053 0.715861
vt 0.552383 0.715861
vt 0.568053 0.105299
vt 0.552383 0.105299
vt 0.528931 0.715861
vt 0.528931 0.105299
vt 0.501268 0.715861
vt 0.501268 0.105299
vt 0.473604 0.715861
vt 0.473604 0.105299
vt 0.450153 0.715861
vt 0.450153 0.105299
vt 0.434482 0.715861
vt 0.434482 0.105299
vt 0.428980 0.715861
vt 0.428980 0.105299
vt 0.573556 0.715861
vt 0.573556 0.105299
vt 0.656783 0.872007
vt 0.640700 0.910835
vt 0.651484 0.870588
vt 0.635950 0.908092
vt 0.615116 0.944177
vt 0.611237 0.940298
vt 0.581774 0.969761
vt 0.579031 0.965010
vt 0.542946 0.985844
vt 0.541527 0.980545
vt 0.501279 0.991330
vt 0.501279 0.985844
vt 0.459612 0.985844
vt 0.461032 0.980545
vt 0.420785 0.969761
vt 0.423527 0.965010
vt 0.387443 0.944177
vt 0.391322 0.940298
vt 0.361858 0.910835
vt 0.366609 0.908092
vt 0.345776 0.872007
vt 0.351074 0.870588
vt 0.340290 0.830340
vt 0.345776 0.830340
vt 0.345776 0.788673
vt 0.351074 0.790093
vt 0.361858 0.749846
vt 0.366609 0.752588
vt 0.387443 0.716504
vt 0.391322 0.720382
vt 0.420785 0.690919
vt 0.423527 0.695670
vt 0.459612 0.674836
vt 0.461032 0.680135
vt 0.501279 0.669351
vt 0.501279 0.674836
vt 0.542946 0.674836
vt 0.541527 0.680135
vt 0.581774 0.690919
vt 0.579031 0.695670
vt 0.615116 0.716504
vt 0.611237 0.720382
vt 0.640700 0.749846
vt 0.635950 0.752588
vt 0.656783 0.788673
vt 0.651484 0.790093
vt 0.662269 0.830340
vt 0.656783 0.830340
vt 0.635950 0.866425
vt 0.622021 0.900051
vt 0.599865 0.928926
vt 0.570990 0.951082
vt 0.537364 0.965010
vt 0.501279 0.969761
vt 0.465195 0.965010
vt 0.431569 0.951082
vt 0.402694 0.928926
vt 0.380537 0.900051
vt 0.366609 0.866425
vt 0.361858 0.830340
vt 0.366609 0.794255
vt 0.380537 0.760630
vt 0.402694 0.731755
vt 0.431569 0.709598
vt 0.465195 0.695670
vt 0.501279 0.690919
vt 0.537364 0.695670
vt 0.570990 0.709598
vt 0.599865 0.731755
vt 0.622021 0.760630
vt 0.635950 0.794255
vt 0.640700 0.830340
vt 0.611237 0.859803
vt 0.599865 0.887259
vt 0.581774 0.910835
vt 0.558198 0.928926
vt 0.530742 0.940298
vt 0.501279 0.944177
vt 0.471816 0.940298
vt 0.444361 0.928926
vt 0.420785 0.910835
vt 0.402694 0.887259
vt 0.391322 0.859803
vt 0.387443 0.830340
vt 0.391322 0.800877
vt 0.402694 0.773422
vt 0.420785 0.749846
vt 0.444361 0.731755
vt 0.471816 0.720382
vt 0.501279 0.716504
vt 0.530742 0.720382
vt 0.558198 0.731755
vt 0.581774 0.749846
vt 0.599865 0.773422
vt 0.611237 0.800877
vt 0.615116 0.830340
vt 0.579031 0.851174
vt 0.570990 0.870588
vt 0.558198 0.887259
vt 0.541527 0.900051
vt 0.522113 0.908092
vt 0.501279 0.910835
vt 0.480446 0.908092
vt 0.461032 0.900051
vt 0.444361 0.887259
vt 0.431569 0.870588
vt 0.423527 0.851174
vt 0.420785 0.830340
vt 0.423527 0.809507
vt 0.431569 0.790093
vt 0.444361 0.773422
vt 0.461032 0.760630
vt 0.480446 0.752588
vt 0.501279 0.749846
vt 0.522113 0.752588
vt 0.541527 0.760630
vt 0.558198 0.773422
vt 0.570990 0.790093
vt 0.579031 0.809507
vt 0.581774 0.830340
vt 0.541527 0.841125
vt 0.537364 0.851174
vt 0.530742 0.859803
vt 0.522113 0.866425
vt 0.512064 0.870588
vt 0.501279 0.872007
vt 0.490495 0.870588
vt 0.480446 0.866425
vt 0.471816 0.859803
vt 0.465195 0.851174
vt 0.461032 0.841125
vt 0.459612 0.830340
vt 0.461032 0.819556
vt 0.465195 0.809507
vt 0.471816 0.800877
vt 0.480446 0.794255
vt 0.490495 0.790093
vt 0.501279 0.788673
vt 0.512064 0.790093
vt 0.522113 0.794255
vt 0.530742 0.800877
vt 0.537364 0.809507
vt 0.541527 0.819556
vt 0.542946 0.830340
vt 0.501279 0.830340
vn -0.273433 0.961891 -0.000040
vn -0.273433 0.961891 -0.000040
vn -0.273433 0.961891 -0.000040
vn 0.273433 0.961891 -0.000040
vn 0.273433 0.961891 -0.000040
vn 0.273433 0.961891 -0.000040
vn 0.793119 0.609066 0.000000
vn 0.474729 0.880132 0.000000
vn 0.793119 0.609066 0.000000
vn 0.474730 0.880132 0.000000
vn 0.218045 0.975939 0.000000
vn 0.218045 0.975939 0.000000
vn 0.000000 1.000000 0.000000
vn 0.000000 1.000000 0.000000
vn -0.218044 0.975939 0.000000
vn -0.218044 0.975939 0.000000
vn -0.474729 0.880132 0.000000
vn -0.474729 0.880132 0.000000
vn -0.793119 0.609067 0.000000
vn -0.793119 0.609067 0.000000
vn -0.938235 0.346000 0.000000
vn -0.938235 0.346000 0.000000
vn 0.938235 0.345999 0.000000
vn 0.938235 0.345999 0.000000
vn 0.957378 0.130526 -0.257665
vn 0.858068 0.130527 -0.496672
vn 0.933722 0.254003 -0.252282
vn 0.836611 0.254003 -0.485350
vn 0.700282 0.130526 -0.701832
vn 0.682487 0.254003 -0.685343
vn 0.494772 0.130526 -0.859164
vn 0.481851 0.254003 -0.838631
vn 0.255545 0.130526 -0.957946
vn 0.248379 0.254003 -0.934767
vn -0.001097 0.130526 -0.991444
vn -0.002020 0.254003 -0.967201
vn -0.257664 0.130526 -0.957378
vn -0.252281 0.254003 -0.933722
vn -0.496671 0.130527 -0.858068
vn -0.485350 0.254003 -0.836611
vn -0.701832 0.130526 -0.700282
vn -0.685343 0.254003 -0.682487
vn -0.859164 0.130526 -0.494773
vn -0.838631 0.254003 -0.481851
vn -0.957945 0.130526 -0.255546
vn -0.934767 0.254003 -0.248379
vn -0.991444 0.130526 0.001097
vn -0.967201 0.254003 0.002020
vn -0.957378 0.130526 0.257664
vn -0.933722 0.254003 0.252281
vn -0.858068 0.130526 0.496672
vn -0.836611 0.254003 0.485350
vn -0.700282 0.130526 0.701832
vn -0.682486 0.254003 0.685343
vn -0.494773 0.130526 0.859164
vn -0.481851 0.254003 0.838631
vn -0.255545 0.130526 0.957945
vn -0.248379 0.254003 0.934767
vn 0.001097 0.130526 0.991444
vn 0.002020 0.254003 0.967201
vn 0.257664 0.130526 0.957378
vn 0.252281 0.254003 0.933722
vn 0.496672 0.130526 0.858068
vn 0.485350 0.254003 0.836611
vn 0.701832 0.130526 0.700282
vn 0.685343 0.254003 0.682486
vn 0.859164 0.130526 0.494772
vn 0.838631 0.254003 0.481851
vn 0.957945 0.130526 0.255545
vn 0.934767 0.254003 0.248379
vn 0.991444 0.130526 -0.001098
vn 0.967201 0.254003 -0.002021
vn 0.840225 0.491554 -0.228905
vn 0.752350 0.491554 -0.438571
vn 0.613204 0.491554 -0.618349
vn 0.432269 0.491554 -0.755988
vn 0.221876 0.491554 -0.842108
vn -0.003638 0.491554 -0.870840
vn -0.228904 0.491554 -0.840225
vn -0.438570 0.491554 -0.752350
vn -0.618349 0.491554 -0.613204
vn -0.755989 0.491554 -0.432269
vn -0.842108 0.491554 -0.221876
vn -0.870840 0.491554 0.003638
vn -0.840225 0.491554 0.228904
vn -0.752350 0.491554 0.438571
vn -0.613204 0.491554 0.618349
vn -0.432269 0.491554 0.755988
vn -0.221875 0.491554 0.842108
vn 0.003639 0.491554 0.870840
vn 0.228904 0.491554 0.840225
vn 0.438571 0.491554 0.752350
vn 0.618349 0.491554 0.613204
vn 0.755988 0.491554 0.432269
vn 0.842108 0.491554 0.221876
vn 0.870840 0.491554 -0.003639
vn 0.691294 0.697179 -0.189879
vn 0.618595 0.697179 -0.362328
vn 0.503739 0.697179 -0.510086
vn 0.354555 0.697179 -0.623082
vn 0.181208 0.697180 -0.693617
vn -0.004487 0.697180 -0.716883
vn -0.189878 0.697179 -0.691294
vn -0.362328 0.697180 -0.618595
vn -0.510086 0.697180 -0.503739
vn -0.623083 0.697179 -0.354555
vn -0.693617 0.697180 -0.181208
vn -0.716882 0.697180 0.004488
vn -0.691294 0.697180 0.189878
vn -0.618594 0.697180 0.362328
vn -0.503739 0.697180 0.510086
vn -0.354554 0.697180 0.623082
vn -0.181208 0.697180 0.693617
vn 0.004488 0.697180 0.716882
vn 0.189878 0.697180 0.691294
vn 0.362328 0.697180 0.618595
vn 0.510086 0.697180 0.503739
vn 0.623083 0.697179 0.354555
vn 0.693617 0.697179 0.181208
vn 0.716883 0.697179 -0.004489
vn 0.496148 0.857293 -0.137427
vn 0.443674 0.857293 -0.261156
vn 0.360964 0.857293 -0.367089
vn 0.253655 0.857293 -0.448005
vn 0.129059 0.857293 -0.498390
vn -0.004331 0.857293 -0.514811
vn -0.137426 0.857293 -0.496149
vn -0.261156 0.857293 -0.443674
vn -0.367089 0.857293 -0.360964
vn -0.448005 0.857293 -0.253655
vn -0.498390 0.857293 -0.129060
vn -0.514811 0.857293 0.004331
vn -0.496148 0.857293 0.137426
vn -0.443674 0.857293 0.261156
vn -0.360964 0.857293 0.367088
vn -0.253655 0.857293 0.448005
vn -0.129060 0.857293 0.498390
vn 0.004330 0.857293 0.514811
vn 0.137426 0.857293 0.496149
vn 0.261156 0.857293 0.443674
vn 0.367089 0.857293 0.360964
vn 0.448005 0.857293 0.253655
vn 0.498390 0.857293 0.129060
vn 0.514811 0.857293 -0.004331
vn 0.266511 0.960913 -0.074957
vn 0.238029 0.960913 -0.141381
vn 0.193327 0.960913 -0.198170
vn 0.135450 0.960913 -0.241454
vn 0.068341 0.960913 -0.268284
vn -0.003425 0.960913 -0.276830
vn -0.074956 0.960913 -0.266511
vn -0.141380 0.960913 -0.238029
vn -0.198170 0.960913 -0.193326
vn -0.241454 0.960913 -0.135449
vn -0.268283 0.960913 -0.068341
vn -0.276830 0.960913 0.003425
vn -0.266511 0.960913 0.074957
vn -0.238029 0.960913 0.141381
vn -0.193327 0.960913 0.198170
vn -0.135449 0.960913 0.241454
vn -0.068341 0.960913 0.268283
vn 0.003425 0.960913 0.276830
vn 0.074957 0.960913 0.266511
vn 0.141380 0.960913 0.238030
vn 0.198169 0.960913 0.193327
vn 0.241454 0.960913 0.135450
vn 0.268283 0.960913 0.068341
vn 0.276829 0.960913 -0.003425
vn 0.000000 1.000000 0.000000
s off
g pPlane10
usemtl initialShadingGroup
f 2/1/1 1/2/2 3/3/3
f 5/4/4 6/5/5 4/6/6
s 1
f 7/7/7 8/8/8 16/9/9
f 16/9/9 8/8/8 17/10/10
f 8/8/8 9/11/11 17/10/10
f 17/10/10 9/11/11 18/12/12
f 9/11/11 10/13/13 18/12/12
f 18/12/12 10/13/13 19/14/14
f 10/13/13 11/15/15 19/14/14
f 19/14/14 11/15/15 20/16/16
f 11/15/15 12/17/17 20/16/16
f 20/16/16 12/17/17 21/18/18
f 12/17/17 13/19/19 21/18/18
f 21/18/18 13/19/19 22/20/20
f 13/19/19 14/21/21 22/20/20
f 22/20/20 14/21/21 23/22/22
f 15/23/23 7/7/7 24/24/24
f 24/24/24 7/7/7 16/9/9
s 2
f 25/25/25 26/26/26 49/27/27
f 49/27/27 26/26/26 50/28/28
f 26/26/26 27/29/29 50/28/28
f 50/28/28 27/29/29 51/30/30
f 27/29/29 28/31/31 51/30/30
f 51/30/30 28/31/31 52/32/32
f 28/31/31 29/33/33 52/32/32
f 52/32/32 29/33/33 53/34/34
f 29/33/33 30/35/35 53/34/34
f 53/34/34 30/35/35 54/36/36
f 30/35/35 31/37/37 54/36/36
f 54/36/36 31/37/37 55/38/38
f 31/37/37 32/39/39 55/38/38
f 55/38/38 32/39/39 56/40/40
f 32/39/39 33/41/41 56/40/40
f 56/40/40 33/41/41 57/42/42
f 33/41/41 34/43/43 57/42/42
f 57/42/42 34/43/43 58/44/44
f 34/43/43 35/45/45 58/44/44
f 58/44/44 35/45/45 59/46/46
f 35/45/45 36/47/47 59/46/46
f 59/46/46 36/47/47 60/48/48
f 36/47/47 37/49/49 60/48/48
f 60/48/48 37/49/49 61/50/50
f 37/49/49 38/51/51 61/50/50
f 61/50/50 38/51/51 62/52/52
f 38/51/51 39/53/53 62/52/52
f 62/52/52 39/53/53 63/54/54
f 39/53/53 40/55/55 63/54/54
f 63/54/54 40/55/55 64/56/56
f 40/55/55 41/57/57 64/56/56
f 64/56/56 41/57/57 65/58/58
f 41/57/57 42/59/59 65/58/58
f 65/58/58 42/59/59 66/60/60
f 42/59/59 43/61/61 66/60/60
f 66/60/60 43/61/61 67/62/62
f 43/61/61 44/63/63 67/62/62
f 67/62/62 44/63/63 68/64/64
f 44/63/63 45/65/65 68/64/64
f 68/64/64 45/65/65 69/66/66
f 45/65/65 46/67/67 69/66/66
f 69/66/66 46/67/67 70/68/68
f 46/67/67 47/69/69 70/68/68
f 70/68/68 47/69/69 71/70/70
f 47/69/69 48/71/71 71/70/70
f 71/70/70 48/71/71 72/72/72
f 48/71/71 25/25/25 72/72/72
f 72/72/72 25/25/25 49/27/27
f 49/27/27 50/28/28 73/73/73
f 73/73/73 50/28/28 74/74/74
f 50/28/28 51/30/30 74/74/74
f 74/74/74 51/30/30 75/75/75
f 51/30/30 52/32/32 75/75/75
f 75/75/75 52/32/32 76/76/76
f 52/32/32 53/34/34 76/76/76
f 76/76/76 53/34/34 77/77/77
f 53/34/34 54/36/36 77/77/77
f 77/77/77 54/36/36 78/78/78
f 54/36/36 55/38/38 78/78/78
f 78/78/78 55/38/38 79/79/79
f 55/38/38 56/40/40 79/79/79
f 79/79/79 56/40/40 80/80/80
f 56/40/40 57/42/42 80/80/80
f 80/80/80 57/42/42 81/81/81
f 57/42/42 58/44/44 81/81/81
f 81/81/81 58/44/44 82/82/82
f 58/44/44 59/46/46 82/82/82
f 82/82/82 59/46/46 83/83/83
f 59/46/46 60/48/48 83/83/83
f 83/83/83 60/48/48 84/84/84
f 60/48/48 61/50/50 84/84/84
f 84/84/84 61/50/50 85/85/85
f 61/50/50 62/52/52 85/85/85
f 85/85/85 62/52/52 86/86/86
f 62/52/52 63/54/54 86/86/86
f 86/86/86 63/54/54 87/87/87
f 63/54/54 64/56/56 87/87/87
f 87/87/87 64/56/56 88/88/88
f 64/56/56 65/58/58 88/88/88
f 88/88/88 65/58/58 89/89/89
f 65/58/58 66/60/60 89/89/89
f 89/89/89 66/60/60 90/90/90
f 66/60/60 67/62/62 90/90/90
f 90/90/90 67/62/62 91/91/91
f 67/62/62 68/64/64 91/91/91
f 91/91/91 68/64/64 92/92/92
f 68/64/64 69/66/66 92/92/92
f 92/92/92 69/66/66 93/93/93
f 69/66/66 70/68/68 93/93/93
f 93/93/93 70/68/68 94/94/94
f 70/68/68 71/70/70 94/94/94
f 94/94/94 71/70/70 95/95/95
f 71/70/70 72/72/72 95/95/95
f 95/95/95 72/72/72 96/96/96
f 72/72/72 49/27/27 96/96/96
f 96/96/96 49/27/27 73/73/73
f 73/73/73 74/74/74 97/97/97
f 97/97/97 74/74/74 98/98/98
f 74/74/74 75/75/75 98/98/98
f 98/98/98 75/75/75 99/99/99
f 75/75/75 76/76/76 99/99/99
f 99/99/99 76/76/76 100/100/100
f 76/76/76 77/77/77 100/100/100
f 100/100/100 77/77/77 101/101/101
f 77/77/77 78/78/78 101/101/101
f 101/101/101 78/78/78 102/102/102
f 78/78/78 79/79/79 102/102/102
f 102/102/102 79/79/79 103/103/103
f 79/79/79 80/80/80 103/103/103
f 103/103/103 80/80/80 104/104/104
f 80/80/80 81/81/81 104/104/104
f 104/104/104 81/81/81 105/105/105
f 81/81/81 82/82/82 105/105/105
f 105/105/105 82/82/82 106/106/106
f 82/82/82 83/83/83 106/106/106
f 106/106/106 83/83/83 107/107/107
f 83/83/83 84/84/84 107/107/107
f 107/107/107 84/84/84 108/108/108
f 84/84/84 85/85/85 108/108/108
f 108/108/108 85/85/85 109/109/109
f 85/85/85 86/86/86 109/109/109
f 109/109/109 86/86/86 110/110/110
f 86/86/86 87/87/87 110/110/110
f 110/110/110 87/87/87 111/111/111
f 87/87/87 88/88/88 111/111/111
f 111/111/111 88/88/88 112/112/112
f 88/88/88 89/89/89 112/112/112
f 112/112/112 89/89/89 113/113/113
f 89/89/89 90/90/90 113/113/113
f 113/113/113 90/90/90 114/114/114
f 90/90/90 91/91/91 114/114/114
f 114/114/114 91/91/91 115/115/115
f 91/91/91 92/92/92 115/115/115
f 115/115/115 92/92/92 116/116/116
f 92/92/92 93/93/93 116/116/116
f 116/116/116 93/93/93 117/117/117
f 93/93/93 94/94/94 117/117/117
f 117/117/117 94/94/94 118/118/118
f 94/94/94 95/95/95 118/118/118
f 118/118/118 95/95/95 119/119/119
f 95/95/95 96/96/96 119/119/119
f 119/119/119 96/96/96 120/120/120
f 96/96/96 73/73/73 120/120/120
f 120/120/120 73/73/73 97/97/97
f 97/97/97 98/98/98 121/121/121
f 121/121/121 98/98/98 122/122/122
f 98/98/98 99/99/99 122/122/122
f 122/122/122 99/99/99 123/123/123
f 99/99/99 100/100/100 123/123/123
f 123/123/123 100/100/100 124/124/124
f 100/100/100 101/101/101 124/124/124
f 124/124/124 101/101/101 125/125/125
f 101/101/101 102/102/102 125/125/125
f 125/125/125 102/102/102 126/126/126
f 102/102/102 103/103/103 126/126/126
f 126/126/126 103/103/103 127/127/127
f 103/103/103 104/104/104 127/127/127
f 127/127/127 104/104/104 128/128/128
f 104/104/104 105/105/105 128/128/128
f 128/128/128 105/105/105 129/129/129
f 105/105/105 106/106/106 129/129/129
f 129/129/129 106/106/106 130/130/130
f 106/106/106 107/107/107 130/130/130
f 130/130/130 107/107/107 131/131/131
f 107/107/107 108/108/108 131/131/131
f 131/131/131 108/108/108 132/132/132
f 108/108/108 109/109/109 132/132/132
f 132/132/132 109/109/109 133/133/133
f 109/109/109 110/110/110 133/133/133
f 133/133/133 110/110/110 134/134/134
f 110/110/110 111/111/111 134/134/134
f 134/134/134 111/111/111 135/135/135
f 111/111/111 112/112/112 135/135/135
f 135/135/135 112/112/112 136/136/136
f 112/112/112 113/113/113 136/136/136
f 136/136/136 113/113/113 137/137/137
f 113/113/113 114/114/114 137/137/137
f 137/137/137 114/114/114 138/138/138
f 114/114/114 115/115/115 138/138/138
f 138/138/138 115/115/115 139/139/139
f 115/115/115 116/116/116 139/139/139
f 139/139/139 116/116/116 140/140/140
f 116/116/116 117/117/117 140/140/140
f 140/140/140 117/117/117 141/141/141
f 117/117/117 118/118/118 141/141/141
f 141/141/141 118/118/118 142/142/142
f 118/118/118 119/119/119 142/142/142
f 142/142/142 119/119/119 143/143/143
f 119/119/119 120/120/120 143/143/143
f 143/143/143 120/120/120 144/144/144
f 120/120/120 97/97/97 144/144/144
f 144/144/144 97/97/97 121/121/121
f 121/121/121 122/122/122 145/145/145
f 145/145/145 122/122/122 146/146/146
f 122/122/122 123/123/123 146/146/146
f 146/146/146 123/123/123 147/147/147
f 123/123/123 124/124/124 147/147/147
f 147/147/147 124/124/124 148/148/148
f 124/124/124 125/125/125 148/148/148
f 148/148/148 125/125/125 149/149/149
f 125/125/125 126/126/126 149/149/149
f 149/149/149 126/126/126 150/150/150
f 126/126/126 127/127/127 150/150/150
f 150/150/150 127/127/127 151/151/151
f 127/127/127 128/128/128 151/151/151
f 151/151/151 128/128/128 152/152/152
f 128/128/128 129/129/129 152/152/152
f 152/152/152 129/129/129 153/153/153
f 129/129/129 130/130/130 153/153/153
f 153/153/153 130/130/130 154/154/154
f 130/130/130 131/131/131 154/154/154
f 154/154/154 131/131/131 155/155/155
f 131/131/131 132/132/132 155/155/155
f 155/155/155 132/132/132 156/156/156
f 132/132/132 133/133/133 156/156/156
f 156/156/156 133/133/133 157/157/157
f 133/133/133 134/134/134 157/157/157
f 157/157/157 134/134/134 158/158/158
f 134/134/134 135/135/135 158/158/158
f 158/158/158 135/135/135 159/159/159
f 135/135/135 136/136/136 159/159/159
f 159/159/159 136/136/136 160/160/160
f 136/136/136 137/137/137 160/160/160
f 160/160/160 137/137/137 161/161/161
f 137/137/137 138/138/138 161/161/161
f 161/161/161 138/138/138 162/162/162
f 138/138/138 139/139/139 162/162/162
f 162/162/162 139/139/139 163/163/163
f 139/139/139 140/140/140 163/163/163
f 163/163/163 140/140/140 164/164/164
f 140/140/140 141/141/141 164/164/164
f 164/164/164 141/141/141 165/165/165
f 141/141/141 142/142/142 165/165/165
f 165/165/165 142/142/142 166/166/166
f 142/142/142 143/143/143 166/166/166
f 166/166/166 143/143/143 167/167/167
f 143/143/143 144/144/144 167/167/167
f 167/167/167 144/144/144 168/168/168
f 144/144/144 121/121/121 168/168/168
f 168/168/168 121/121/121 145/145/145
f 145/145/145 146/146/146 169/169/169
f 146/146/146 147/147/147 169/169/169
f 147/147/147 148/148/148 169/169/169
f 148/148/148 149/149/149 169/169/169
f 149/149/149 150/150/150 169/169/169
f 150/150/150 151/151/151 169/169/169
f 151/151/151 152/152/152 169/169/169
f 152/152/152 153/153/153 169/169/169
f 153/153/153 154/154/154 169/169/169
f 154/154/154 155/155/155 169/169/169
f 155/155/155 156/156/156 169/169/169
f 156/156/156 157/157/157 169/169/169
f 157/157/157 158/158/158 169/169/169
f 158/158/158 159/159/159 169/169/169
f 159/159/159 160/160/160 169/169/169
f 160/160/160 161/161/161 169/169/169
f 161/161/161 162/162/162 169/169/169
f 162/162/162 163/163/163 169/169/169
f 163/163/163 164/164/164 169/169/169
f 164/164/164 165/165/165 169/169/169
f 165/165/165 166/166/166 169/169/169
f 166/166/166 167/167/167 169/169/169
f 167/167/167 168/168/168 169/169/169
f 168/168/168 145/145/145 169/169/169
