# This file uses centimeters as units for non-parametric coordinates.

mtllib enemy_4.mtl
g default
v -12.419824 2.572230 1.340537
v -12.419824 4.455233 3.223540
v -12.419824 5.144460 5.795770
v -12.419824 4.455233 8.368000
v -12.419824 2.572230 10.251003
v -12.419824 -0.000000 10.940229
v -12.419824 -0.000000 0.651310
v -9.505722 4.752861 -2.436426
v -9.505722 8.232196 1.042909
v -9.505722 9.505722 5.795770
v -9.505722 8.232196 10.548632
v -9.505722 4.752861 14.027966
v -9.505722 -0.000000 15.301493
v -9.505722 -0.000000 -3.709952
v -5.144460 6.209912 -4.960113
v -5.144460 10.755883 -0.414142
v -5.144460 12.419824 5.795770
v -5.144460 10.755883 12.005682
v -5.144460 6.209912 16.551653
v -5.144460 -0.000000 18.215593
v -5.144460 -0.000000 -6.624053
v 0.000000 6.721560 -5.846314
v -0.000000 11.642084 -0.925790
v -0.000000 13.443121 5.795770
v -0.000000 11.642084 12.517330
v -0.000000 6.721560 17.437855
v -0.000000 0.000000 19.238892
v 0.000000 0.000000 -7.647351
v 5.144460 6.209912 -4.960113
v 5.144460 10.755883 -0.414142
v 5.144460 12.419824 5.795770
v 5.144460 10.755883 12.005682
v 5.144460 6.209912 16.551653
v 5.144460 0.000000 18.215593
v 5.144460 0.000000 -6.624053
v 9.505722 4.752861 -2.436426
v 9.505722 8.232196 1.042909
v 9.505722 9.505722 5.795770
v 9.505722 8.232196 10.548632
v 9.505722 4.752861 14.027966
v 9.505722 0.000000 15.301493
v 9.505722 0.000000 -3.709952
v 12.419824 2.572230 1.340537
v 12.419824 4.455233 3.223540
v 12.419824 5.144460 5.795770
v 12.419824 4.455233 8.368000
v 12.419824 2.572230 10.251003
v 12.419824 0.000000 10.940230
v 12.419824 0.000000 0.651310
v -13.443121 -0.000000 5.795770
v 13.443121 0.000000 5.795770
v -10.031898 6.635353 23.027395
v 9.492249 6.635353 23.027395
v -10.031898 6.635353 10.478296
v 9.492249 6.635353 10.478296
v 13.104433 3.684778 8.816429
v 18.989000 -0.001922 10.538990
v 13.104433 3.684778 2.737903
v 18.989002 -0.001924 0.064896
v 12.951463 3.780614 -18.021154
v 13.976892 3.138180 -18.024658
v 12.989944 3.756505 18.997969
v 13.951540 3.154063 18.985043
v -13.574188 3.684779 8.816429
v -20.127846 -0.001931 10.538990
v -13.574188 3.684779 2.737903
v -20.127848 -0.001933 0.064896
v -13.403826 3.780615 -18.021154
v -14.545849 3.138179 -18.024658
v -13.446683 3.756506 18.997969
v -14.517614 3.154062 18.985043
v -14.563368 2.510051 6.754780
v 14.563368 2.510051 6.754780
v -14.563368 2.510051 4.315890
v 14.563368 2.510051 4.315890
v -5.538707 3.358365 -4.119744
v -4.949818 3.358365 -4.119744
v -5.538707 3.358365 -12.517337
v -4.949818 3.358365 -12.517337
v -5.251949 3.606737 -12.517337
v -5.251949 3.606737 -4.119744
v 4.978972 3.358365 -3.392408
v 5.999714 3.358365 -3.392408
v 4.978972 3.358365 -9.518507
v 5.999714 3.358365 -9.518507
v 5.511971 3.358365 -9.518507
v 5.511971 3.358365 -3.392408
v 4.978972 3.358365 -16.520374
v 5.511971 3.358365 -16.520374
v 5.254370 3.596507 -16.520374
v 5.254370 3.596507 -9.518507
v 5.254370 3.596507 -3.392408
vt 0.305941 0.478023
vt 0.305941 0.448558
vt 0.351424 0.537125
vt 0.351424 0.482680
vt 0.305941 0.408308
vt 0.351424 0.408308
vt 0.305941 0.368058
vt 0.351424 0.333936
vt 0.305941 0.338593
vt 0.351424 0.279492
vt 0.305941 0.327808
vt 0.351424 0.259564
vt 0.305941 0.488808
vt 0.351424 0.557052
vt 0.419494 0.576615
vt 0.419494 0.505480
vt 0.419494 0.408308
vt 0.419494 0.311136
vt 0.419494 0.240002
vt 0.419494 0.213965
vt 0.419494 0.602652
vt 0.499788 0.590482
vt 0.499788 0.513486
vt 0.499788 0.408308
vt 0.499788 0.303130
vt 0.499788 0.226135
vt 0.499788 0.197952
vt 0.499788 0.618664
vt 0.580082 0.576615
vt 0.580082 0.505480
vt 0.580082 0.408308
vt 0.580082 0.311136
vt 0.580082 0.240002
vt 0.580082 0.213965
vt 0.580082 0.602652
vt 0.648152 0.537125
vt 0.648152 0.482680
vt 0.648152 0.408308
vt 0.648152 0.333936
vt 0.648152 0.279492
vt 0.648152 0.259564
vt 0.648152 0.557052
vt 0.693635 0.478023
vt 0.693635 0.448558
vt 0.693635 0.408308
vt 0.693635 0.368058
vt 0.693635 0.338593
vt 0.693635 0.327808
vt 0.693635 0.488808
vt 0.289969 0.408308
vt 0.709606 0.408308
vt 0.343211 0.138670
vt 0.647942 0.138670
vt 0.343211 0.335037
vt 0.647942 0.335037
vt 0.704320 0.361041
vt 0.796166 0.334087
vt 0.704320 0.456157
vt 0.796166 0.497984
vt 0.701933 0.780992
vt 0.717937 0.781047
vt 0.717542 0.201924
vt 0.702533 0.201722
vt 0.287923 0.361041
vt 0.287923 0.456157
vt 0.185635 0.334087
vt 0.185635 0.497984
vt 0.290582 0.780992
vt 0.272758 0.781047
vt 0.273199 0.201924
vt 0.289914 0.201722
vt 0.272484 0.393302
vt 0.727091 0.393302
vt 0.272484 0.431465
vt 0.727091 0.431465
vt 0.417816 0.563465
vt 0.422532 0.563465
vt 0.417816 0.694869
vt 0.422532 0.694869
vt 0.413340 0.563465
vt 0.413340 0.694869
vt 0.585818 0.552084
vt 0.593431 0.552084
vt 0.585818 0.647944
vt 0.593431 0.647944
vt 0.581797 0.552084
vt 0.581797 0.647944
vt 0.581797 0.757508
vt 0.585818 0.757508
vt 0.577499 0.647944
vt 0.577499 0.757508
vt 0.577499 0.552084
vn -0.822407 0.402273 -0.402273
vn -0.822407 0.402273 -0.402273
vn -0.822407 0.402273 -0.402273
vn -0.822407 0.402273 -0.402273
vn -0.822407 0.549515 -0.147242
vn -0.822407 0.549515 -0.147242
vn -0.822407 0.549515 -0.147242
vn -0.822407 0.549515 -0.147242
vn -0.822407 0.549515 0.147242
vn -0.822407 0.549515 0.147242
vn -0.822407 0.549515 0.147242
vn -0.822407 0.549515 0.147242
vn -0.822407 0.402273 0.402273
vn -0.822407 0.402273 0.402273
vn -0.822407 0.402273 0.402273
vn -0.822407 0.402273 0.402273
vn -0.822407 0.147241 0.549515
vn -0.822407 0.147242 0.549515
vn -0.822407 0.147242 0.549515
vn -0.822407 0.147242 0.549515
vn -0.822407 0.147242 -0.549515
vn -0.822407 0.147242 -0.549515
vn -0.822407 0.147242 -0.549515
vn -0.822407 0.147242 -0.549515
vn -0.542275 0.594112 -0.594112
vn -0.542275 0.594112 -0.594112
vn -0.542275 0.594112 -0.594112
vn -0.542275 0.594112 -0.594112
vn -0.542275 0.811572 -0.217460
vn -0.542275 0.811572 -0.217460
vn -0.542275 0.811572 -0.217460
vn -0.542275 0.811572 -0.217460
vn -0.542275 0.811572 0.217460
vn -0.542275 0.811572 0.217460
vn -0.542275 0.811572 0.217460
vn -0.542275 0.811572 0.217460
vn -0.542275 0.594112 0.594112
vn -0.542275 0.594112 0.594112
vn -0.542275 0.594112 0.594112
vn -0.542275 0.594112 0.594112
vn -0.542275 0.217460 0.811572
vn -0.542275 0.217460 0.811572
vn -0.542275 0.217460 0.811572
vn -0.542275 0.217460 0.811572
vn -0.542275 0.217460 -0.811572
vn -0.542275 0.217460 -0.811572
vn -0.542275 0.217460 -0.811572
vn -0.542275 0.217460 -0.811572
vn -0.188684 0.694406 -0.694406
vn -0.188684 0.694406 -0.694406
vn -0.188684 0.694406 -0.694406
vn -0.188684 0.694406 -0.694406
vn -0.188683 0.948576 -0.254170
vn -0.188684 0.948576 -0.254170
vn -0.188684 0.948576 -0.254170
vn -0.188684 0.948576 -0.254170
vn -0.188684 0.948576 0.254170
vn -0.188684 0.948576 0.254170
vn -0.188684 0.948576 0.254170
vn -0.188684 0.948576 0.254170
vn -0.188683 0.694406 0.694406
vn -0.188684 0.694406 0.694406
vn -0.188684 0.694406 0.694406
vn -0.188684 0.694406 0.694405
vn -0.188684 0.254170 0.948576
vn -0.188684 0.254170 0.948576
vn -0.188684 0.254170 0.948576
vn -0.188683 0.254170 0.948576
vn -0.188684 0.254170 -0.948576
vn -0.188684 0.254170 -0.948576
vn -0.188684 0.254170 -0.948576
vn -0.188684 0.254170 -0.948576
vn 0.188684 0.694406 -0.694406
vn 0.188684 0.694406 -0.694406
vn 0.188684 0.694406 -0.694406
vn 0.188684 0.694406 -0.694406
vn 0.188684 0.948576 -0.254170
vn 0.188684 0.948576 -0.254170
vn 0.188683 0.948576 -0.254170
vn 0.188684 0.948576 -0.254170
vn 0.188684 0.948576 0.254170
vn 0.188684 0.948576 0.254170
vn 0.188684 0.948576 0.254170
vn 0.188683 0.948576 0.254170
vn 0.188684 0.694406 0.694406
vn 0.188684 0.694406 0.694406
vn 0.188684 0.694406 0.694406
vn 0.188684 0.694406 0.694406
vn 0.188684 0.254170 0.948576
vn 0.188684 0.254170 0.948576
vn 0.188684 0.254170 0.948576
vn 0.188684 0.254170 0.948576
vn 0.188684 0.254170 -0.948576
vn 0.188684 0.254170 -0.948576
vn 0.188684 0.254170 -0.948576
vn 0.188683 0.254170 -0.948576
vn 0.542275 0.594112 -0.594112
vn 0.542275 0.594112 -0.594112
vn 0.542275 0.594112 -0.594112
vn 0.542275 0.594112 -0.594112
vn 0.542275 0.811572 -0.217460
vn 0.542275 0.811572 -0.217460
vn 0.542275 0.811572 -0.217460
vn 0.542275 0.811572 -0.217460
vn 0.542275 0.811572 0.217460
vn 0.542275 0.811572 0.217460
vn 0.542275 0.811572 0.217460
vn 0.542275 0.811572 0.217460
vn 0.542275 0.594112 0.594112
vn 0.542275 0.594112 0.594112
vn 0.542275 0.594112 0.594112
vn 0.542275 0.594112 0.594112
vn 0.542275 0.217460 0.811572
vn 0.542275 0.217460 0.811572
vn 0.542275 0.217460 0.811572
vn 0.542275 0.217460 0.811572
vn 0.542275 0.217460 -0.811572
vn 0.542275 0.217460 -0.811572
vn 0.542275 0.217460 -0.811572
vn 0.542275 0.217460 -0.811572
vn 0.822407 0.402273 -0.402273
vn 0.822407 0.402273 -0.402273
vn 0.822407 0.402273 -0.402273
vn 0.822407 0.402273 -0.402273
vn 0.822407 0.549515 -0.147242
vn 0.822407 0.549515 -0.147242
vn 0.822407 0.549515 -0.147242
vn 0.822407 0.549515 -0.147242
vn 0.822407 0.549515 0.147242
vn 0.822407 0.549515 0.147242
vn 0.822407 0.549515 0.147242
vn 0.822407 0.549515 0.147242
vn 0.822407 0.402272 0.402273
vn 0.822407 0.402273 0.402273
vn 0.822407 0.402273 0.402273
vn 0.822407 0.402273 0.402273
vn 0.822407 0.147242 0.549515
vn 0.822407 0.147242 0.549515
vn 0.822407 0.147242 0.549515
vn 0.822407 0.147242 0.549515
vn 0.822407 0.147242 -0.549515
vn 0.822407 0.147242 -0.549515
vn 0.822407 0.147242 -0.549515
vn 0.822407 0.147242 -0.549515
vn -0.979448 0.142621 -0.142621
vn -0.979448 0.142621 -0.142621
vn -0.979448 0.142621 -0.142621
vn -0.979448 0.194825 -0.052203
vn -0.979448 0.194825 -0.052203
vn -0.979448 0.194825 -0.052203
vn -0.979448 0.194825 0.052203
vn -0.979448 0.194825 0.052203
vn -0.979448 0.194825 0.052203
vn -0.979448 0.142621 0.142621
vn -0.979448 0.142621 0.142621
vn -0.979448 0.142621 0.142621
vn -0.979448 0.052204 0.194824
vn -0.979448 0.052204 0.194824
vn -0.979448 0.052204 0.194824
vn -0.979448 0.052203 -0.194824
vn -0.979448 0.052203 -0.194824
vn -0.979448 0.052203 -0.194824
vn 0.979448 0.142622 -0.142621
vn 0.979448 0.142622 -0.142621
vn 0.979448 0.142622 -0.142621
vn 0.979448 0.194824 -0.052203
vn 0.979448 0.194824 -0.052203
vn 0.979448 0.194824 -0.052203
vn 0.979448 0.194825 0.052203
vn 0.979448 0.194825 0.052203
vn 0.979448 0.194825 0.052203
vn 0.979448 0.142621 0.142621
vn 0.979448 0.142621 0.142621
vn 0.979448 0.142621 0.142621
vn 0.979448 0.052203 0.194824
vn 0.979448 0.052203 0.194824
vn 0.979448 0.052203 0.194824
vn 0.979448 0.052202 -0.194824
vn 0.979448 0.052202 -0.194824
vn 0.979448 0.052202 -0.194824
vn 0.000000 1.000000 0.000000
vn 0.000000 1.000000 0.000000
vn 0.000000 1.000000 0.000000
vn 0.000000 1.000000 0.000000
vn 0.530915 0.847425 0.000000
vn 0.530915 0.847425 0.000000
vn 0.530914 0.847425 0.000000
vn 0.530914 0.847426 0.000000
vn 0.530915 0.847425 -0.000000
vn 0.530915 0.847425 -0.000000
vn 0.530914 0.847426 0.000000
vn 0.530913 0.847426 0.000000
vn 0.530915 0.847425 0.000000
vn 0.530915 0.847425 0.000000
vn 0.530915 0.847425 0.000000
vn 0.530914 0.847426 0.000000
vn -0.490289 0.871560 0.000000
vn -0.490289 0.871560 -0.000000
vn -0.490289 0.871560 -0.000000
vn -0.490289 0.871560 -0.000000
vn -0.490289 0.871560 0.000000
vn -0.490289 0.871560 0.000000
vn -0.490289 0.871560 0.000000
vn -0.490287 0.871561 0.000000
vn -0.490289 0.871560 0.000000
vn -0.490289 0.871560 -0.000000
vn -0.490289 0.871560 -0.000000
vn -0.490287 0.871561 -0.000000
vn 0.000000 1.000000 0.000000
vn 0.000000 1.000000 0.000000
vn 0.000000 1.000000 0.000000
vn 0.000000 1.000000 0.000000
vn -0.000000 1.000000 0.000000
vn 0.635035 0.772484 0.000000
vn -0.000000 1.000000 0.000000
vn 0.635034 0.772484 0.000000
vn -0.654702 0.755887 0.000000
vn -0.654703 0.755886 0.000000
vn 0.304349 0.952560 0.000000
vn 0.000000 1.000000 0.000000
vn 0.304350 0.952560 0.000000
vn 0.000000 1.000000 0.000000
vn -0.000000 1.000000 0.000000
vn -0.000000 1.000000 0.000000
vn -0.000000 1.000000 0.000000
vn 0.678828 0.734297 0.000000
vn 0.000001 1.000000 0.000000
vn 0.678830 0.734296 0.000000
vn -0.654089 0.756418 0.000000
vn -0.654092 0.756415 0.000000
vn -0.654089 0.756417 0.000000
vn -0.654091 0.756416 0.000000
s 1
g pSphere2
usemtl initialShadingGroup
f 1/1/1 2/2/2 8/3/3
f 8/3/3 2/2/2 9/4/4
s 2
f 2/2/5 3/5/6 9/4/7
f 9/4/7 3/5/6 10/6/8
s 3
f 3/5/9 4/7/10 10/6/11
f 10/6/11 4/7/10 11/8/12
s 4
f 4/7/13 5/9/14 11/8/15
f 11/8/15 5/9/14 12/10/16
s 5
f 5/9/17 6/11/18 12/10/19
f 12/10/19 6/11/18 13/12/20
s 6
f 7/13/21 1/1/22 14/14/23
f 14/14/23 1/1/22 8/3/24
s 7
f 8/3/25 9/4/26 15/15/27
f 15/15/27 9/4/26 16/16/28
s 8
f 9/4/29 10/6/30 16/16/31
f 16/16/31 10/6/30 17/17/32
s 9
f 10/6/33 11/8/34 17/17/35
f 17/17/35 11/8/34 18/18/36
s 10
f 11/8/37 12/10/38 18/18/39
f 18/18/39 12/10/38 19/19/40
s 11
f 12/10/41 13/12/42 19/19/43
f 19/19/43 13/12/42 20/20/44
s 12
f 14/14/45 8/3/46 21/21/47
f 21/21/47 8/3/46 15/15/48
s 13
f 15/15/49 16/16/50 22/22/51
f 22/22/51 16/16/50 23/23/52
s 14
f 16/16/53 17/17/54 23/23/55
f 23/23/55 17/17/54 24/24/56
s 15
f 17/17/57 18/18/58 24/24/59
f 24/24/59 18/18/58 25/25/60
s 16
f 18/18/61 19/19/62 25/25/63
f 25/25/63 19/19/62 26/26/64
s 17
f 19/19/65 20/20/66 26/26/67
f 26/26/67 20/20/66 27/27/68
s 18
f 21/21/69 15/15/70 28/28/71
f 28/28/71 15/15/70 22/22/72
s 19
f 22/22/73 23/23/74 29/29/75
f 29/29/75 23/23/74 30/30/76
s 20
f 23/23/77 24/24/78 30/30/79
f 30/30/79 24/24/78 31/31/80
s 21
f 24/24/81 25/25/82 31/31/83
f 31/31/83 25/25/82 32/32/84
s 22
f 25/25/85 26/26/86 32/32/87
f 32/32/87 26/26/86 33/33/88
s 23
f 26/26/89 27/27/90 33/33/91
f 33/33/91 27/27/90 34/34/92
s 24
f 28/28/93 22/22/94 35/35/95
f 35/35/95 22/22/94 29/29/96
s 25
f 29/29/97 30/30/98 36/36/99
f 36/36/99 30/30/98 37/37/100
s 26
f 30/30/101 31/31/102 37/37/103
f 37/37/103 31/31/102 38/38/104
s 27
f 31/31/105 32/32/106 38/38/107
f 38/38/107 32/32/106 39/39/108
s 28
f 32/32/109 33/33/110 39/39/111
f 39/39/111 33/33/110 40/40/112
s 29
f 33/33/113 34/34/114 40/40/115
f 40/40/115 34/34/114 41/41/116
s 30
f 35/35/117 29/29/118 42/42/119
f 42/42/119 29/29/118 36/36/120
s 31
f 36/36/121 37/37/122 43/43/123
f 43/43/123 37/37/122 44/44/124
s 32
f 37/37/125 38/38/126 44/44/127
f 44/44/127 38/38/126 45/45/128
s 33
f 38/38/129 39/39/130 45/45/131
f 45/45/131 39/39/130 46/46/132
s 34
f 39/39/133 40/40/134 46/46/135
f 46/46/135 40/40/134 47/47/136
s 35
f 40/40/137 41/41/138 47/47/139
f 47/47/139 41/41/138 48/48/140
s 36
f 42/42/141 36/36/142 49/49/143
f 49/49/143 36/36/142 43/43/144
s off
f 2/2/145 1/1/146 50/50/147
f 3/5/148 2/2/149 50/50/150
f 4/7/151 3/5/152 50/50/153
f 5/9/154 4/7/155 50/50/156
f 6/11/157 5/9/158 50/50/159
f 1/1/160 7/13/161 50/50/162
f 43/43/163 44/44/164 51/51/165
f 44/44/166 45/45/167 51/51/168
f 45/45/169 46/46/170 51/51/171
f 46/46/172 47/47/173 51/51/174
f 47/47/175 48/48/176 51/51/177
f 49/49/178 43/43/179 51/51/180
s 37
f 52/52/181 53/53/182 54/54/183
f 54/54/183 53/53/182 55/55/184
s 38
f 56/56/185 57/57/186 58/58/187
f 58/58/187 57/57/186 59/59/188
s 39
f 58/58/189 59/59/190 60/60/191
f 60/60/191 59/59/190 61/61/192
s 40
f 57/57/193 56/56/194 63/62/195
f 63/62/195 56/56/194 62/63/196
s 41
f 64/64/197 66/65/198 65/66/199
f 65/66/199 66/65/198 67/67/200
s 42
f 66/65/201 68/68/202 67/67/203
f 67/67/203 68/68/202 69/69/204
s 43
f 65/66/205 71/70/206 64/64/207
f 64/64/207 71/70/206 70/71/208
s 44
f 72/72/209 73/73/210 74/74/211
f 74/74/211 73/73/210 75/75/212
s 45
f 81/76/213 77/77/214 80/78/215
f 80/78/215 77/77/214 79/79/216
f 76/80/217 81/76/213 78/81/218
f 78/81/218 81/76/213 80/78/215
s 46
f 87/82/219 83/83/220 86/84/221
f 86/84/221 83/83/220 85/85/222
f 92/86/223 87/82/219 91/87/224
f 91/87/224 87/82/219 86/84/221
s 47
f 91/87/225 86/84/226 90/88/227
f 90/88/227 86/84/226 89/89/228
f 84/90/229 91/87/225 88/91/230
f 88/91/230 91/87/225 90/88/227
s 46
f 82/92/231 92/86/223 84/90/232
f 84/90/232 92/86/223 91/87/224
