# This file uses centimeters as units for non-parametric coordinates.

g default1
v -0.000214 -996.196228 -317.321991
v 812.324219 -527.200684 -317.321991
v 812.324341 410.790619 -317.321991
v 0.000092 879.786438 -317.321991
v -812.324280 410.790771 -317.321991
v -812.324280 -527.200562 -317.321991
v -0.000214 -922.211914 -278.472046
v 748.251953 -490.208527 -278.472046
v 748.252014 373.798431 -278.472046
v 0.000092 805.802063 -278.472046
v -748.251953 373.798645 -278.472046
v -748.251953 -490.208344 -278.472046
v -0.000000 -58.204903 -24.883228
v 896.362976 970.269775 -294.739410
v 445.725372 429.613831 -294.739410
v 771.212097 250.375946 -294.739410
v 953.137024 688.662476 -294.182251
v 635.271484 110.967651 -294.182251
v 746.748779 -168.806732 -294.182251
v 468.757751 1024.352661 -311.556305
v 304.762054 410.246704 -311.556305
v 650.260132 361.404022 -311.556305
v -665.678040 1020.789795 -297.738770
v -776.723755 371.759247 -297.738770
v -487.555481 375.866547 -297.738770
v -947.242859 946.770142 -267.208313
v -798.494263 81.486359 -267.208313
v -660.267761 293.138794 -267.208282
vt 0.500000 0.986424
vt 0.103357 0.757422
vt 0.500000 0.950299
vt 0.134643 0.739360
vt 0.103357 0.299419
vt 0.134643 0.317481
vt 0.500000 0.070417
vt 0.500000 0.106542
vt 0.896643 0.299419
vt 0.865357 0.317481
vt 0.896643 0.757422
vt 0.865357 0.739359
vt 0.500000 0.528420
vt 0.062323 0.026235
vt 0.282361 0.290228
vt 0.123432 0.377746
vt 0.034601 0.163739
vt 0.189809 0.445817
vt 0.135377 0.582425
vt 0.271114 -0.000172
vt 0.351190 0.299684
vt 0.182490 0.323533
vt 0.825038 0.001567
vt 0.879260 0.318477
vt 0.738064 0.316471
vt 0.962521 0.037710
vt 0.889890 0.460212
vt 0.822396 0.356866
vn 0.259240 -0.449017 0.855090
vn 0.259240 -0.449017 0.855090
vn 0.259240 -0.449017 0.855090
vn 0.259240 -0.449017 0.855090
vn 0.259240 -0.449017 0.855090
vn 0.259240 -0.449017 0.855090
vn 0.518480 -0.000000 0.855090
vn 0.518479 -0.000000 0.855090
vn 0.518480 -0.000000 0.855090
vn 0.518480 -0.000000 0.855090
vn 0.518479 -0.000000 0.855090
vn 0.518479 -0.000000 0.855090
vn 0.259240 0.449016 0.855090
vn 0.259240 0.449017 0.855090
vn 0.259240 0.449016 0.855090
vn 0.259240 0.449016 0.855090
vn 0.259240 0.449017 0.855090
vn 0.259240 0.449017 0.855090
vn -0.259240 0.449017 0.855090
vn -0.259240 0.449017 0.855090
vn -0.259240 0.449017 0.855090
vn -0.259240 0.449017 0.855090
vn -0.259240 0.449017 0.855090
vn -0.259240 0.449017 0.855090
vn -0.518479 -0.000000 0.855090
vn -0.518479 -0.000000 0.855090
vn -0.518479 -0.000000 0.855090
vn -0.518479 -0.000000 0.855090
vn -0.518479 -0.000000 0.855090
vn -0.518479 -0.000000 0.855090
vn -0.259240 -0.449016 0.855090
vn -0.259240 -0.449017 0.855090
vn -0.259240 -0.449016 0.855090
vn -0.259240 -0.449016 0.855090
vn -0.259240 -0.449017 0.855090
vn -0.259240 -0.449017 0.855090
vn -0.000000 -0.281624 0.959525
vn 0.243893 -0.140812 0.959525
vn -0.000000 -0.000000 1.000000
vn 0.243893 -0.140812 0.959525
vn 0.243893 0.140812 0.959525
vn -0.000000 -0.000000 1.000000
vn 0.243893 0.140812 0.959525
vn 0.000000 0.281624 0.959525
vn -0.000000 -0.000000 1.000000
vn 0.000000 0.281624 0.959525
vn -0.243893 0.140812 0.959525
vn -0.000000 -0.000000 1.000000
vn -0.243893 0.140812 0.959525
vn -0.243893 -0.140812 0.959525
vn -0.000000 -0.000000 1.000000
vn -0.243893 -0.140812 0.959525
vn -0.000000 -0.281624 0.959525
vn -0.000000 -0.000000 1.000000
vn -0.000000 -0.000000 1.000000
vn -0.000000 -0.000000 1.000000
vn -0.000000 -0.000000 1.000000
vn -0.000000 -0.000000 1.000000
vn -0.000000 -0.000000 1.000000
vn -0.000000 -0.000000 1.000000
vn -0.000000 -0.000000 1.000000
vn -0.000000 -0.000000 1.000000
vn -0.000000 -0.000000 1.000000
vn -0.000000 -0.000000 1.000000
vn -0.000000 -0.000000 1.000000
vn -0.000000 -0.000000 1.000000
vn -0.000000 -0.000000 1.000000
vn -0.000000 -0.000000 1.000000
vn -0.000000 -0.000000 1.000000
s off
g initialShadingGroup initialShadingGroup1 pCylinder2 polySurface1
f 1/1/1 2/2/2 7/3/3
f 7/3/4 2/2/5 8/4/6
f 2/2/7 3/5/8 8/4/9
f 8/4/10 3/5/11 9/6/12
f 3/5/13 4/7/14 9/6/15
f 9/6/16 4/7/17 10/8/18
f 4/7/19 5/9/20 10/8/21
f 10/8/22 5/9/23 11/10/24
f 5/9/25 6/11/26 11/10/27
f 11/10/28 6/11/29 12/12/30
f 6/11/31 1/1/32 12/12/33
f 12/12/34 1/1/35 7/3/36
f 7/3/37 8/4/38 13/13/39
f 8/4/40 9/6/41 13/13/42
f 9/6/43 10/8/44 13/13/45
f 10/8/46 11/10/47 13/13/48
f 11/10/49 12/12/50 13/13/51
f 12/12/52 7/3/53 13/13/54
f 14/14/55 15/15/56 16/16/57
f 17/17/58 18/18/59 19/19/60
f 20/20/61 21/21/62 22/22/63
f 23/23/64 24/24/65 25/25/66
f 26/26/67 27/27/68 28/28/69
