# This file uses centimeters as units for non-parametric coordinates.

mtllib turret_1.mtl
g default
v -4.036109 2.889191 11.946091
v 4.036109 2.889191 11.946091
v -4.036109 2.889191 0.026994
v 4.036109 2.889191 0.026994
v 2.003106 2.889191 0.026994
v 2.003106 2.889191 11.946091
v -2.003106 2.889191 0.026994
v -2.003106 2.889191 11.946091
v -2.003106 2.889191 -1.987527
v 2.003106 2.889191 -1.987527
v -0.489648 2.889191 -8.014444
v 0.489648 2.889191 -8.014444
v -2.505738 2.889191 -1.987527
v -2.514222 2.889191 -8.014444
v 2.505737 2.889191 -1.987527
v 2.514221 2.889191 -8.014444
v 1.740251 6.820155 11.155172
v 3.506476 6.820155 11.155172
v 3.506476 6.820155 0.800144
v 1.536431 6.820155 0.682507
v -1.740251 6.820155 11.155172
v -1.536431 6.820155 0.682507
v -3.506476 6.820155 11.155172
v -3.506476 6.820155 0.800144
v 1.593786 6.820155 -2.149827
v -1.593787 6.820155 -2.149827
v 0.441275 6.820155 -7.716739
v -0.441275 6.820155 -7.716739
v -2.265837 6.820155 -7.716739
v -2.258191 6.820155 -2.285232
v 2.258191 6.820155 -2.285232
v 2.265837 6.820155 -7.716739
v -0.465462 4.544353 -7.984678
v 0.465461 4.544353 -7.984678
v -0.465461 5.164992 -7.984676
v 0.465461 5.164992 -7.984676
v -0.465462 4.544353 -12.994698
v 0.465461 4.544353 -12.994698
v -0.465461 5.164992 -12.994696
v 0.465461 5.164992 -12.994696
v -0.993558 4.192277 -12.994698
v 0.993557 4.192277 -12.994698
v -0.993557 5.517068 -12.994696
v 0.993556 5.517068 -12.994696
v -0.993558 4.192277 -15.007950
v 0.993557 4.192277 -15.007950
v -0.993557 5.517068 -15.007948
v 0.993556 5.517068 -15.007948
vt 0.554404 0.151279
vt 0.609620 0.151279
vt 0.609620 0.474987
vt 0.548032 0.478664
vt 0.445596 0.151279
vt 0.451968 0.478664
vt 0.390380 0.151279
vt 0.390380 0.474987
vt 0.549825 0.567205
vt 0.450175 0.567205
vt 0.513795 0.741232
vt 0.486205 0.741232
vt 0.429165 0.741232
vt 0.429404 0.571438
vt 0.570596 0.571438
vt 0.570835 0.741232
vt 0.562621 0.126555
vt 0.626177 0.126555
vt 0.626177 0.499156
vt 0.562621 0.499156
vt 0.437379 0.126555
vt 0.373823 0.126555
vt 0.437379 0.499156
vt 0.373823 0.499156
vt 0.562621 0.562132
vt 0.437379 0.562132
vt 0.531061 0.969162
vt 0.468939 0.969162
vt 0.468939 0.969162
vt 0.531061 0.969162
vt 0.484693 0.750539
vt 0.421400 0.750539
vt 0.421665 0.562132
vt 0.578335 0.562132
vt 0.578600 0.750539
vt 0.515307 0.750539
vt 0.485449 0.749608
vt 0.514551 0.749608
vt 0.485449 0.749608
vt 0.514551 0.749608
vt 0.485449 0.906226
vt 0.485449 0.906226
vt 0.514551 0.906226
vt 0.514551 0.906226
vt 0.468939 0.906226
vt 0.468939 0.906226
vt 0.531061 0.906226
vt 0.531061 0.906226
vn 0.000000 1.000000 0.000000
vn 0.000000 1.000000 0.000000
vn 0.000000 1.000000 0.000000
vn 0.000000 1.000000 0.000000
vn 0.000000 1.000000 0.000000
vn 0.000000 1.000000 0.000000
vn 0.000000 1.000000 0.000000
vn 0.000000 1.000000 0.000000
vn 0.000000 1.000000 -0.000000
vn 0.000000 1.000000 -0.000000
vn 0.000000 1.000000 -0.000000
vn 0.000000 1.000000 0.000000
vn 0.000000 1.000000 0.000000
vn 0.000000 1.000000 -0.000000
vn 0.000000 1.000000 -0.000000
vn 0.000000 1.000000 -0.000000
vn 0.000000 1.000000 0.000000
vn 0.000000 1.000000 0.000000
vn 0.000000 1.000000 0.000000
vn 0.000000 1.000000 0.000000
vn 0.000000 1.000000 0.000000
vn 0.000000 1.000000 0.000000
vn 0.000000 1.000000 0.000000
vn 0.000000 1.000000 0.000000
vn 0.000000 0.197249 0.980353
vn 0.000000 0.197249 0.980353
vn 0.000000 0.197249 0.980353
vn 0.000000 0.197249 0.980353
vn 0.991045 0.133527 0.000000
vn 0.991045 0.133527 0.000000
vn 0.991045 0.133527 0.000000
vn 0.991045 0.133527 0.000000
vn 0.000000 0.192985 -0.981202
vn 0.016180 0.186998 -0.982227
vn 0.041305 0.177588 -0.983238
vn 0.058729 0.170981 -0.983523
vn 0.000000 0.197249 0.980353
vn 0.000000 0.197249 0.980353
vn 0.000000 0.197249 0.980353
vn 0.000000 0.197249 0.980353
vn 0.000000 0.197249 0.980353
vn 0.000000 0.197249 0.980353
vn 0.000000 0.197249 0.980353
vn 0.000000 0.197249 0.980353
vn 0.000000 0.192985 -0.981202
vn -0.041305 0.177588 -0.983238
vn -0.016180 0.186998 -0.982227
vn -0.058729 0.170981 -0.983523
vn -0.991045 0.133527 0.000000
vn -0.991045 0.133527 0.000000
vn -0.991045 0.133527 0.000000
vn -0.991045 0.133527 0.000000
vn 0.994622 0.103567 0.000000
vn 0.993591 0.111981 0.015389
vn 0.994028 0.108721 0.009419
vn 0.993213 0.114558 0.020113
vn -0.994623 0.103567 0.000000
vn -0.994028 0.108721 0.009419
vn -0.993591 0.111981 0.015389
vn -0.993213 0.114558 0.020113
vn 0.000000 0.000001 -1.000000
vn 0.000000 0.000001 -1.000000
vn 0.000000 0.000001 -1.000000
vn 0.000000 0.000001 -1.000000
vn 0.000000 0.075517 -0.997145
vn 0.000000 0.075517 -0.997145
vn 0.000000 0.075517 -0.997145
vn 0.000000 0.075517 -0.997145
vn -0.998015 0.062955 0.001405
vn -0.998015 0.062955 0.001405
vn -0.998015 0.062955 0.001405
vn -0.998015 0.062955 0.001405
vn 0.000000 0.075517 0.997145
vn -0.026611 0.073773 0.996920
vn -0.187666 0.062061 0.980270
vn -0.199321 0.061135 0.978025
vn 0.000000 0.075517 0.997145
vn 0.187666 0.062061 0.980270
vn 0.026611 0.073773 0.996920
vn 0.199321 0.061135 0.978025
vn 0.998015 0.062955 0.001405
vn 0.998015 0.062955 0.001405
vn 0.998015 0.062955 0.001405
vn 0.998015 0.062955 0.001405
vn 0.000000 0.075517 -0.997145
vn 0.000000 0.075517 -0.997145
vn 0.000000 0.075517 -0.997145
vn 0.000000 0.075517 -0.997145
vn 0.000000 0.017981 -0.999838
vn 0.000000 0.017981 -0.999838
vn 0.000000 0.017981 -0.999838
vn 0.000000 0.017981 -0.999838
vn -0.999086 0.015317 -0.039912
vn -0.999944 0.010486 0.001197
vn -0.999175 0.015061 -0.037726
vn -0.995951 0.000000 0.089902
vn 0.000000 0.159799 -0.987150
vn 0.000000 0.159799 -0.987150
vn 0.000000 0.159799 -0.987150
vn 0.000000 0.159799 -0.987150
vn 0.999086 0.015317 -0.039913
vn 0.999175 0.015061 -0.037727
vn 0.999944 0.010486 0.001196
vn 0.995951 0.000000 0.089901
vn -1.000000 0.000001 0.000000
vn -1.000000 0.000001 0.000000
vn -1.000000 0.000001 0.000000
vn -1.000000 0.000001 0.000000
vn 0.000000 1.000000 0.000000
vn 0.000000 1.000000 0.000000
vn 0.000000 1.000000 0.000000
vn 0.000000 1.000000 0.000000
vn 1.000000 0.000001 0.000000
vn 1.000000 0.000001 0.000000
vn 1.000000 0.000001 0.000000
vn 1.000000 0.000001 0.000000
vn 0.000000 -0.000003 1.000000
vn 0.000000 -0.000002 1.000000
vn 0.000000 -0.000002 1.000000
vn 0.000000 -0.000001 1.000000
vn 0.000000 0.000000 1.000000
vn 0.000000 0.000000 1.000000
vn 0.000000 0.000000 1.000000
vn 0.000000 0.000000 1.000000
vn 0.000000 -0.000003 1.000000
vn 0.000000 -0.000002 1.000000
vn 0.000000 -0.000002 1.000000
vn 0.000000 -0.000001 1.000000
vn -1.000000 0.000001 0.000000
vn -1.000000 0.000001 0.000000
vn -1.000000 0.000001 0.000000
vn -1.000000 0.000001 0.000000
vn 0.000000 1.000000 0.000000
vn 0.000000 1.000000 0.000000
vn 0.000000 1.000000 0.000000
vn 0.000000 1.000000 0.000000
vn 1.000000 0.000001 0.000000
vn 1.000000 0.000001 0.000000
vn 1.000000 0.000001 0.000000
vn 1.000000 0.000001 0.000000
s 1
g pPlane59
usemtl initialShadingGroup
f 18/2/1 19/3/2 17/1/3
f 17/1/3 19/3/2 20/4/4
f 21/5/5 17/1/3 22/6/6
f 22/6/6 17/1/3 20/4/4
f 23/7/7 21/5/5 24/8/8
f 24/8/8 21/5/5 22/6/6
s 2
f 22/6/9 20/4/10 26/10/11
f 26/10/11 20/4/10 25/9/12
s 3
f 26/10/13 25/9/14 28/12/15
f 28/12/15 25/9/14 27/11/16
s 4
f 28/12/17 29/13/18 26/10/19
f 26/10/19 29/13/18 30/14/20
s 5
f 27/11/21 25/9/22 32/16/23
f 32/16/23 25/9/22 31/15/24
s 6
f 2/18/25 18/2/26 6/17/27
f 6/17/27 18/2/26 17/1/28
s 7
f 2/18/29 4/19/30 18/2/31
f 18/2/31 4/19/30 19/3/32
s 8
f 4/19/33 5/20/34 19/3/35
f 19/3/35 5/20/34 20/4/36
s 9
f 8/21/37 6/17/38 21/5/39
f 21/5/39 6/17/38 17/1/40
s 10
f 1/22/41 8/21/42 23/7/43
f 23/7/43 8/21/42 21/5/44
s 11
f 3/24/45 24/8/46 7/23/47
f 7/23/47 24/8/46 22/6/48
s 12
f 1/22/49 23/7/50 3/24/51
f 3/24/51 23/7/50 24/8/52
s 13
f 10/25/53 25/9/54 5/20/55
f 5/20/55 25/9/54 20/4/56
s 14
f 9/26/57 7/23/58 26/10/59
f 26/10/59 7/23/58 22/6/60
s 15
f 46/27/61 45/28/62 48/30/63
f 48/30/63 45/28/62 47/29/64
s 16
f 14/32/65 29/13/66 11/31/67
f 11/31/67 29/13/66 28/12/68
s 17
f 14/32/69 13/33/70 29/13/71
f 29/13/71 13/33/70 30/14/72
s 18
f 13/33/73 9/26/74 30/14/75
f 30/14/75 9/26/74 26/10/76
s 19
f 15/34/77 31/15/78 10/25/79
f 10/25/79 31/15/78 25/9/80
s 20
f 15/34/81 16/35/82 31/15/83
f 31/15/83 16/35/82 32/16/84
s 21
f 16/35/85 12/36/86 32/16/87
f 32/16/87 12/36/86 27/11/88
s 22
f 12/36/89 11/31/90 34/38/91
f 34/38/91 11/31/90 33/37/92
s 23
f 11/31/93 28/12/94 33/37/95
f 28/12/94 35/39/96 33/37/95
s 24
f 28/12/97 27/11/98 35/39/99
f 35/39/99 27/11/98 36/40/100
s 25
f 12/36/101 34/38/102 27/11/103
f 27/11/103 34/38/102 36/40/104
s 26
f 33/37/105 35/39/106 37/42/107
f 37/42/107 35/39/106 39/41/108
s 27
f 35/39/109 36/40/110 39/41/111
f 39/41/111 36/40/110 40/43/112
s 28
f 36/40/113 34/38/114 40/43/115
f 40/43/115 34/38/114 38/44/116
s 29
f 37/42/117 39/41/118 41/46/119
f 41/46/119 39/41/118 43/45/120
s 30
f 39/41/121 40/43/122 43/45/123
f 43/45/123 40/43/122 44/47/124
s 31
f 40/43/125 38/44/126 44/47/127
f 44/47/127 38/44/126 42/48/128
s 32
f 41/46/129 43/45/130 45/28/131
f 45/28/131 43/45/130 47/29/132
s 33
f 43/45/133 44/47/134 47/29/135
f 47/29/135 44/47/134 48/30/136
s 34
f 44/47/137 42/48/138 48/30/139
f 48/30/139 42/48/138 46/27/140
