# This file uses centimeters as units for non-parametric coordinates.

mtllib wingman_2.mtl
g default
v -29.872028 1.453812 15.830128
v 0.000000 1.453812 15.987122
v 29.401903 1.453812 15.830128
v -29.872028 1.453812 9.086504
v 0.000000 1.453812 2.112691
v 29.401903 1.453812 9.086504
v -31.024578 1.453812 15.830128
v -31.024578 1.453812 9.086504
v 30.554451 1.453812 15.830128
v 30.554451 1.453812 9.086504
v -29.872028 1.453812 6.422463
v -31.024578 1.453812 6.422463
v 29.401903 1.453812 6.422463
v 30.554451 1.453812 6.422463
v 29.978176 1.828294 15.830128
v 29.978176 1.828294 9.086504
v 29.978176 1.828294 6.422463
v -30.448301 1.828294 6.422463
v -30.448301 1.828294 9.086504
v -30.448301 1.828294 15.830128
v -14.156452 4.147410 3.019097
v -14.156455 4.147410 19.365562
v -0.000002 4.147410 27.538797
v 14.156453 4.147410 19.365566
v 14.156454 4.147410 3.019102
v 0.000000 4.147410 -5.154131
v 0.000000 5.644079 11.192333
v 3.848244 0.982555 -28.912861
v 2.221786 1.701837 -28.912861
v 0.000000 1.965110 -28.912861
v -2.221786 1.701837 -28.912861
v -3.848244 0.982555 -28.912861
v -4.443572 0.000000 -28.912861
v 4.443572 0.000000 -28.912861
v 6.951871 1.774991 12.370560
v 4.013667 3.074377 12.370560
v 0.000000 3.549981 12.370560
v -4.013667 3.074377 12.370560
v -6.951871 1.774991 12.370560
v -8.027334 0.000000 12.370560
v 8.027334 0.000000 12.370560
v 0.000000 0.000000 -29.789927
v -7.141142 0.163335 -26.699339
v -6.184407 1.742372 -26.699339
v -3.570571 2.898310 -26.699339
v 0.000000 3.321409 -26.699339
v 3.570571 2.898310 -26.699339
v 6.184407 1.742372 -26.699339
v 7.141142 0.163335 -26.699339
v -8.027334 -0.000000 -22.852285
v -6.951871 1.774990 -22.852285
v -4.013667 3.074377 -22.852285
v 0.000000 3.549981 -22.852285
v 4.013667 3.074377 -22.852285
v 6.951871 1.774990 -22.852285
v 8.027334 -0.000000 -22.852285
v 1.093995 3.421661 -18.283085
v 0.631618 3.635329 -18.283085
v 0.000000 3.713536 -18.283085
v -0.631618 3.635329 -18.283085
v -1.093995 3.421661 -18.283085
v -1.263237 3.129787 -18.283085
v 1.263237 3.129787 -18.283085
v 2.021439 3.669101 -16.929771
v 1.167079 4.063906 -16.929771
v 0.000000 4.208415 -16.929771
v -1.167079 4.063906 -16.929771
v -2.021439 3.669101 -16.929771
v -2.334157 3.129787 -16.929771
v 2.334157 3.129787 -16.929771
v 2.641138 3.834434 -14.904399
v 1.524862 4.350272 -14.904399
v 0.000000 4.539082 -14.904399
v -1.524862 4.350272 -14.904399
v -2.641138 3.834434 -14.904399
v -3.049724 3.129787 -14.904399
v 3.049724 3.129787 -14.904399
v 2.858747 3.892492 -12.515306
v 1.650498 4.450830 -12.515306
v 0.000000 4.655197 -12.515306
v -1.650498 4.450830 -12.515306
v -2.858747 3.892492 -12.515306
v -3.300996 3.129787 -12.515306
v 3.300996 3.129787 -12.515306
v 2.641138 3.834434 -10.126213
v 1.524862 4.350272 -10.126213
v 0.000000 4.539082 -10.126213
v -1.524862 4.350272 -10.126213
v -2.641138 3.834434 -10.126213
v -3.049724 3.129787 -10.126213
v 3.049724 3.129787 -10.126213
v 2.021439 3.669101 -8.100840
v 1.167079 4.063906 -8.100840
v 0.000000 4.208415 -8.100840
v -1.167079 4.063906 -8.100840
v -2.021439 3.669101 -8.100840
v -2.334157 3.129787 -8.100840
v 2.334157 3.129787 -8.100840
v 1.093995 3.421661 -6.747528
v 0.631618 3.635329 -6.747528
v 0.000000 3.713536 -6.747528
v -0.631618 3.635329 -6.747528
v -1.093995 3.421661 -6.747528
v -1.263237 3.129787 -6.747528
v 1.263237 3.129787 -6.747528
v 0.000000 3.129787 -18.758307
v 0.000000 3.129787 -6.272305
vt 0.033250 0.252654
vt 0.500000 0.250201
vt 0.033250 0.358023
vt 0.500000 0.466989
vt 0.959405 0.252654
vt 0.959405 0.358023
vt 0.024245 0.252654
vt 0.024245 0.358023
vt 0.968409 0.358023
vt 0.968409 0.252654
vt 0.024245 0.399649
vt 0.033250 0.399649
vt 0.959405 0.399649
vt 0.968409 0.399649
vt 0.977413 0.358023
vt 0.977413 0.252654
vt 0.977413 0.399649
vt 0.015241 0.358023
vt 0.015241 0.399649
vt 0.015241 0.252654
vt 0.278805 0.452827
vt 0.278805 0.197413
vt 0.500000 0.325120
vt 0.500000 0.069706
vt 0.721195 0.197413
vt 0.721195 0.452826
vt 0.500000 0.580533
vt 0.534715 0.951763
vt 0.555790 0.917177
vt 0.560129 0.951763
vt 0.596631 0.917177
vt 0.500000 0.951763
vt 0.500000 0.917177
vt 0.465285 0.951763
vt 0.444210 0.917177
vt 0.439871 0.951763
vt 0.403369 0.917177
vt 0.430569 0.951763
vt 0.388420 0.917177
vt 0.569431 0.951763
vt 0.611580 0.917177
vt 0.500000 0.965468
vt 0.391377 0.857067
vt 0.374573 0.857067
vt 0.437286 0.857067
vt 0.500000 0.857067
vt 0.562714 0.857067
vt 0.608623 0.857067
vt 0.625427 0.857067
vt 0.391377 0.306710
vt 0.374573 0.306710
vt 0.437286 0.306710
vt 0.500000 0.306710
vt 0.562714 0.306710
vt 0.608623 0.306710
vt 0.625427 0.306710
vt 0.509869 0.785673
vt 0.518236 0.764528
vt 0.517094 0.785673
vt 0.531585 0.764528
vt 0.500000 0.785673
vt 0.500000 0.764528
vt 0.490131 0.785673
vt 0.481764 0.764528
vt 0.482906 0.785673
vt 0.468415 0.764528
vt 0.480262 0.785673
vt 0.463529 0.764528
vt 0.519738 0.785673
vt 0.536471 0.764528
vt 0.523826 0.732881
vt 0.541268 0.732881
vt 0.500000 0.732881
vt 0.476174 0.732881
vt 0.458732 0.732881
vt 0.452348 0.732881
vt 0.547652 0.732881
vt 0.525789 0.695552
vt 0.544668 0.695552
vt 0.500000 0.695552
vt 0.474211 0.695552
vt 0.455332 0.695552
vt 0.448422 0.695552
vt 0.551578 0.695552
vt 0.541268 0.658222
vt 0.523826 0.658222
vt 0.500000 0.658222
vt 0.476174 0.658222
vt 0.458732 0.658222
vt 0.452348 0.658222
vt 0.547652 0.658222
vt 0.531585 0.626576
vt 0.518236 0.626576
vt 0.500000 0.626576
vt 0.481764 0.626576
vt 0.468415 0.626576
vt 0.463529 0.626576
vt 0.536471 0.626576
vt 0.517094 0.605430
vt 0.509869 0.605430
vt 0.500000 0.605430
vt 0.490131 0.605430
vt 0.482906 0.605430
vt 0.480262 0.605430
vt 0.519738 0.605430
vt 0.500000 0.793099
vt 0.500000 0.598005
vn 0.012258 0.999925 0.000000
vn 0.000000 1.000000 0.000000
vn 0.011815 0.999930 0.000000
vn 0.000000 1.000000 0.000000
vn -0.012449 0.999923 0.000000
vn -0.011944 0.999929 0.000000
vn 0.544893 0.838506 0.000000
vn 0.544888 0.838509 0.000000
vn -0.544890 0.838507 0.000000
vn -0.544890 0.838507 0.000000
vn 0.544890 0.838508 0.000000
vn 0.544890 0.838508 0.000000
vn -0.544893 0.838506 0.000000
vn -0.544894 0.838505 0.000000
vn 0.544889 0.838508 0.000000
vn 0.544890 0.838507 0.000000
vn 0.544889 0.838508 0.000000
vn 0.544890 0.838507 0.000000
vn 0.544890 0.838508 0.000000
vn 0.544889 0.838508 0.000000
vn -0.544887 0.838510 0.000000
vn -0.544887 0.838509 0.000000
vn -0.544889 0.838508 0.000000
vn -0.544890 0.838508 0.000000
vn -0.544890 0.838507 0.000000
vn -0.544890 0.838507 0.000000
vn -0.078962 0.995835 -0.045589
vn -0.078962 0.995835 0.045589
vn 0.000000 1.000000 0.000000
vn -0.000000 0.995835 0.091178
vn 0.078962 0.995835 0.045589
vn 0.078962 0.995835 -0.045589
vn 0.000000 0.995835 -0.091178
vn 0.152499 0.669806 -0.726707
vn 0.238002 0.936328 -0.258159
vn 0.333054 0.481483 -0.810709
vn 0.570304 0.745036 -0.345940
vn -0.000000 0.693332 -0.720618
vn -0.000000 0.973974 -0.226661
vn -0.152499 0.669806 -0.726707
vn -0.238002 0.936328 -0.258159
vn -0.333054 0.481483 -0.810709
vn -0.570304 0.745036 -0.345940
vn -0.457601 0.277259 -0.844825
vn -0.786338 0.476441 -0.393290
vn 0.457600 0.277259 -0.844825
vn 0.786338 0.476441 -0.393290
vn 0.000000 0.339805 -0.940496
vn -0.609688 0.792547 -0.012254
vn -0.855154 0.518136 -0.015711
vn -0.247931 0.968752 -0.007002
vn -0.000000 0.999985 -0.005548
vn 0.247931 0.968752 -0.007002
vn 0.609688 0.792547 -0.012254
vn 0.855154 0.518136 -0.015711
vn -0.608087 0.793871 -0.000000
vn -0.855260 0.518200 0.000000
vn -0.247389 0.968916 0.000000
vn 0.000000 1.000000 -0.000000
vn 0.247389 0.968916 -0.000000
vn 0.608087 0.793871 -0.000000
vn 0.855260 0.518200 -0.000000
vn 0.200753 0.835653 -0.511256
vn 0.243464 0.936164 -0.253619
vn 0.460956 0.632664 -0.622298
vn 0.581636 0.738887 -0.340213
vn -0.000000 0.866755 -0.498734
vn 0.000000 0.973220 -0.229876
vn -0.200754 0.835653 -0.511256
vn -0.243464 0.936164 -0.253619
vn -0.460956 0.632664 -0.622298
vn -0.581636 0.738887 -0.340213
vn -0.635881 0.368712 -0.678017
vn -0.796582 0.461894 -0.390014
vn 0.635881 0.368712 -0.678017
vn 0.796582 0.461894 -0.390014
vn 0.256189 0.960357 -0.109915
vn 0.620384 0.769404 -0.152123
vn 0.000000 0.995190 -0.097968
vn -0.256189 0.960357 -0.109915
vn -0.620384 0.769404 -0.152123
vn -0.851286 0.493614 -0.177926
vn 0.851286 0.493614 -0.177926
vn 0.259729 0.965682 0.000000
vn 0.630400 0.776270 -0.000000
vn -0.000000 1.000000 -0.000000
vn -0.259729 0.965682 0.000000
vn -0.630400 0.776270 0.000000
vn -0.865091 0.501616 0.000000
vn 0.865091 0.501616 0.000000
vn 0.620384 0.769404 0.152123
vn 0.256189 0.960357 0.109915
vn -0.000000 0.995190 0.097968
vn -0.256189 0.960357 0.109915
vn -0.620384 0.769404 0.152123
vn -0.851286 0.493614 0.177926
vn 0.851286 0.493614 0.177926
vn 0.581637 0.738887 0.340212
vn 0.243465 0.936164 0.253619
vn -0.000000 0.973220 0.229876
vn -0.243465 0.936164 0.253619
vn -0.581637 0.738887 0.340213
vn -0.796582 0.461894 0.390014
vn 0.796582 0.461894 0.390014
vn 0.460957 0.632664 0.622298
vn 0.200754 0.835652 0.511256
vn 0.000000 0.866755 0.498734
vn -0.200754 0.835652 0.511256
vn -0.460957 0.632664 0.622299
vn -0.635882 0.368712 0.678017
vn 0.635882 0.368712 0.678016
vn -0.000000 0.542663 -0.839950
vn 0.000000 0.542664 0.839950
s 1
g pPlane61
usemtl initialShadingGroup
f 1/1/1 2/2/2 4/3/3
f 4/3/3 2/2/2 5/4/4
f 3/5/5 6/6/6 2/2/2
f 2/2/2 6/6/6 5/4/4
f 1/1/1 4/3/3 20/7/7
f 20/7/7 4/3/3 19/8/8
f 6/6/6 3/5/5 16/9/9
f 16/9/9 3/5/5 15/10/10
f 19/8/8 4/3/3 18/11/11
f 18/11/11 4/3/3 11/12/12
f 6/6/6 16/9/9 13/13/13
f 13/13/13 16/9/9 17/14/14
s 3
f 16/9/15 15/10/16 10/15/17
f 10/15/17 15/10/16 9/16/18
f 17/14/19 16/9/15 14/17/20
f 14/17/20 16/9/15 10/15/17
s 4
f 8/18/21 19/8/22 12/19/23
f 12/19/23 19/8/22 18/11/24
f 20/7/25 19/8/22 7/20/26
f 7/20/26 19/8/22 8/18/21
s 5
f 21/21/27 22/22/28 27/23/29
f 22/22/28 23/24/30 27/23/29
f 23/24/30 24/25/31 27/23/29
f 24/25/31 25/26/32 27/23/29
f 25/26/32 26/27/33 27/23/29
f 26/27/33 21/21/27 27/23/29
s 6
f 29/28/34 47/29/35 28/30/36
f 28/30/36 47/29/35 48/31/37
f 30/32/38 46/33/39 29/28/34
f 29/28/34 46/33/39 47/29/35
f 30/32/38 31/34/40 46/33/39
f 46/33/39 31/34/40 45/35/41
f 31/34/40 32/36/42 45/35/41
f 45/35/41 32/36/42 44/37/43
f 32/36/42 33/38/44 44/37/43
f 44/37/43 33/38/44 43/39/45
f 28/30/36 48/31/37 34/40/46
f 34/40/46 48/31/37 49/41/47
f 29/28/34 28/30/36 42/42/48
f 30/32/38 29/28/34 42/42/48
f 31/34/40 30/32/38 42/42/48
f 32/36/42 31/34/40 42/42/48
f 33/38/44 32/36/42 42/42/48
f 28/30/36 34/40/46 42/42/48
f 44/37/43 43/39/45 51/43/49
f 51/43/49 43/39/45 50/44/50
f 45/35/41 44/37/43 52/45/51
f 52/45/51 44/37/43 51/43/49
f 46/33/39 45/35/41 53/46/52
f 53/46/52 45/35/41 52/45/51
f 46/33/39 53/46/52 47/29/35
f 47/29/35 53/46/52 54/47/53
f 47/29/35 54/47/53 48/31/37
f 48/31/37 54/47/53 55/48/54
f 48/31/37 55/48/54 49/41/47
f 49/41/47 55/48/54 56/49/55
f 51/43/49 50/44/50 39/50/56
f 39/50/56 50/44/50 40/51/57
f 52/45/51 51/43/49 38/52/58
f 38/52/58 51/43/49 39/50/56
f 53/46/52 52/45/51 37/53/59
f 37/53/59 52/45/51 38/52/58
f 54/47/53 53/46/52 36/54/60
f 36/54/60 53/46/52 37/53/59
f 55/48/54 54/47/53 35/55/61
f 35/55/61 54/47/53 36/54/60
f 56/49/55 55/48/54 41/56/62
f 41/56/62 55/48/54 35/55/61
s 8
f 58/57/63 65/58/64 57/59/65
f 57/59/65 65/58/64 64/60/66
f 59/61/67 66/62/68 58/57/63
f 58/57/63 66/62/68 65/58/64
f 59/61/67 60/63/69 66/62/68
f 66/62/68 60/63/69 67/64/70
f 60/63/69 61/65/71 67/64/70
f 67/64/70 61/65/71 68/66/72
f 61/65/71 62/67/73 68/66/72
f 68/66/72 62/67/73 69/68/74
f 57/59/65 64/60/66 63/69/75
f 63/69/75 64/60/66 70/70/76
f 65/58/64 72/71/77 64/60/66
f 64/60/66 72/71/77 71/72/78
f 66/62/68 73/73/79 65/58/64
f 65/58/64 73/73/79 72/71/77
f 66/62/68 67/64/70 73/73/79
f 73/73/79 67/64/70 74/74/80
f 67/64/70 68/66/72 74/74/80
f 74/74/80 68/66/72 75/75/81
f 68/66/72 69/68/74 75/75/81
f 75/75/81 69/68/74 76/76/82
f 64/60/66 71/72/78 70/70/76
f 70/70/76 71/72/78 77/77/83
f 72/71/77 79/78/84 71/72/78
f 71/72/78 79/78/84 78/79/85
f 73/73/79 80/80/86 72/71/77
f 72/71/77 80/80/86 79/78/84
f 73/73/79 74/74/80 80/80/86
f 80/80/86 74/74/80 81/81/87
f 74/74/80 75/75/81 81/81/87
f 81/81/87 75/75/81 82/82/88
f 75/75/81 76/76/82 82/82/88
f 82/82/88 76/76/82 83/83/89
f 71/72/78 78/79/85 77/77/83
f 77/77/83 78/79/85 84/84/90
f 78/79/85 79/78/84 85/85/91
f 85/85/91 79/78/84 86/86/92
f 79/78/84 80/80/86 86/86/92
f 86/86/92 80/80/86 87/87/93
f 81/81/87 88/88/94 80/80/86
f 80/80/86 88/88/94 87/87/93
f 82/82/88 89/89/95 81/81/87
f 81/81/87 89/89/95 88/88/94
f 83/83/89 90/90/96 82/82/88
f 82/82/88 90/90/96 89/89/95
f 84/84/90 78/79/85 91/91/97
f 91/91/97 78/79/85 85/85/91
f 85/85/91 86/86/92 92/92/98
f 92/92/98 86/86/92 93/93/99
f 86/86/92 87/87/93 93/93/99
f 93/93/99 87/87/93 94/94/100
f 88/88/94 95/95/101 87/87/93
f 87/87/93 95/95/101 94/94/100
f 89/89/95 96/96/102 88/88/94
f 88/88/94 96/96/102 95/95/101
f 90/90/96 97/97/103 89/89/95
f 89/89/95 97/97/103 96/96/102
f 91/91/97 85/85/91 98/98/104
f 98/98/104 85/85/91 92/92/98
f 92/92/98 93/93/99 99/99/105
f 99/99/105 93/93/99 100/100/106
f 93/93/99 94/94/100 100/100/106
f 100/100/106 94/94/100 101/101/107
f 95/95/101 102/102/108 94/94/100
f 94/94/100 102/102/108 101/101/107
f 96/96/102 103/103/109 95/95/101
f 95/95/101 103/103/109 102/102/108
f 97/97/103 104/104/110 96/96/102
f 96/96/102 104/104/110 103/103/109
f 98/98/104 92/92/98 105/105/111
f 105/105/111 92/92/98 99/99/105
f 58/57/63 57/59/65 106/106/112
f 59/61/67 58/57/63 106/106/112
f 60/63/69 59/61/67 106/106/112
f 61/65/71 60/63/69 106/106/112
f 62/67/73 61/65/71 106/106/112
f 57/59/65 63/69/75 106/106/112
f 99/99/105 100/100/106 107/107/113
f 100/100/106 101/101/107 107/107/113
f 101/101/107 102/102/108 107/107/113
f 102/102/108 103/103/109 107/107/113
f 103/103/109 104/104/110 107/107/113
f 105/105/111 99/99/105 107/107/113
