# This file uses centimeters as units for non-parametric coordinates.

mtllib wingman_1.mtl
g default
v 3.848244 0.982555 -27.621315
v 2.221786 1.701837 -27.621315
v 0.000000 1.965110 -27.621315
v -2.221786 1.701837 -27.621315
v -3.848244 0.982555 -27.621315
v -4.443572 0.000000 -27.621315
v 4.443572 0.000000 -27.621315
v 6.951871 1.774991 18.971512
v 4.013667 3.074377 18.971512
v 0.000000 3.549981 18.971512
v -4.013667 3.074377 18.971512
v -6.951871 1.774991 18.971512
v -8.027334 0.000000 18.971512
v 8.027334 0.000000 18.971512
v 0.000000 0.000000 -29.284592
v -7.141142 0.163335 -23.423584
v -6.184407 1.742372 -23.423584
v -3.570571 2.898310 -23.423584
v 0.000000 3.321409 -23.423584
v 3.570571 2.898310 -23.423584
v 6.184407 1.742372 -23.423584
v 7.141142 0.163335 -23.423584
v -8.027334 -0.000000 -16.128000
v -6.951871 1.774990 -16.128000
v -4.013667 3.074377 -16.128000
v 0.000000 3.549981 -16.128000
v 4.013667 3.074377 -16.128000
v 6.951871 1.774990 -16.128000
v 8.027334 -0.000000 -16.128000
v -25.458858 -0.000000 18.938330
v 25.458858 -0.000000 18.938330
v 0.000000 0.000000 -12.406791
v 1.093995 3.421661 -12.712130
v 0.631618 3.635329 -12.712130
v 0.000000 3.713536 -12.712130
v -0.631618 3.635329 -12.712130
v -1.093995 3.421661 -12.712130
v -1.263237 3.129787 -12.712130
v 1.263237 3.129787 -12.712130
v 2.021439 3.669101 -11.358818
v 1.167079 4.063906 -11.358818
v 0.000000 4.208415 -11.358818
v -1.167079 4.063906 -11.358818
v -2.021439 3.669101 -11.358818
v -2.334157 3.129787 -11.358818
v 2.334157 3.129787 -11.358818
v 2.641138 3.834434 -9.333445
v 1.524862 4.350272 -9.333445
v 0.000000 4.539082 -9.333445
v -1.524862 4.350272 -9.333445
v -2.641138 3.834434 -9.333445
v -3.049724 3.129787 -9.333445
v 3.049724 3.129787 -9.333445
v 2.858747 3.892492 -6.944352
v 1.650498 4.450830 -6.944352
v 0.000000 4.655197 -6.944352
v -1.650498 4.450830 -6.944352
v -2.858747 3.892492 -6.944352
v -3.300996 3.129787 -6.944352
v 3.300996 3.129787 -6.944352
v 2.641138 3.834434 -4.555259
v 1.524862 4.350272 -4.555259
v 0.000000 4.539082 -4.555259
v -1.524862 4.350272 -4.555259
v -2.641138 3.834434 -4.555259
v -3.049724 3.129787 -4.555259
v 3.049724 3.129787 -4.555259
v 2.021439 3.669101 -2.529885
v 1.167079 4.063906 -2.529885
v 0.000000 4.208415 -2.529885
v -1.167079 4.063906 -2.529885
v -2.021439 3.669101 -2.529885
v -2.334157 3.129787 -2.529885
v 2.334157 3.129787 -2.529885
v 1.093995 3.421661 -1.176574
v 0.631618 3.635329 -1.176574
v 0.000000 3.713536 -1.176574
v -0.631618 3.635329 -1.176574
v -1.093995 3.421661 -1.176574
v -1.263237 3.129787 -1.176574
v 1.263237 3.129787 -1.176574
v 0.000000 3.129787 -13.187352
v 0.000000 3.129787 -0.701351
vt 0.534715 0.931583
vt 0.555790 0.865993
vt 0.560129 0.931583
vt 0.596631 0.865993
vt 0.500000 0.931583
vt 0.500000 0.865993
vt 0.465285 0.931583
vt 0.444210 0.865993
vt 0.439871 0.931583
vt 0.403369 0.865993
vt 0.430569 0.931583
vt 0.388420 0.865993
vt 0.569431 0.931583
vt 0.611580 0.865993
vt 0.500000 0.957572
vt 0.391377 0.752000
vt 0.374573 0.752000
vt 0.437286 0.752000
vt 0.500000 0.752000
vt 0.562714 0.752000
vt 0.608623 0.752000
vt 0.625427 0.752000
vt 0.391377 0.203570
vt 0.374573 0.203570
vt 0.437286 0.203570
vt 0.500000 0.203570
vt 0.562714 0.203570
vt 0.608623 0.203570
vt 0.625427 0.203570
vt 0.102205 0.204089
vt 0.897795 0.204089
vt 0.500000 0.693856
vt 0.509869 0.698627
vt 0.518236 0.677482
vt 0.517094 0.698627
vt 0.531585 0.677482
vt 0.500000 0.698627
vt 0.500000 0.677482
vt 0.490131 0.698627
vt 0.481764 0.677482
vt 0.482906 0.698627
vt 0.468415 0.677482
vt 0.480262 0.698627
vt 0.463529 0.677482
vt 0.519738 0.698627
vt 0.536471 0.677482
vt 0.523826 0.645835
vt 0.541268 0.645835
vt 0.500000 0.645835
vt 0.476174 0.645835
vt 0.458732 0.645835
vt 0.452348 0.645835
vt 0.547652 0.645835
vt 0.525789 0.608505
vt 0.544668 0.608505
vt 0.500000 0.608505
vt 0.474211 0.608505
vt 0.455332 0.608505
vt 0.448422 0.608505
vt 0.551578 0.608505
vt 0.541268 0.571176
vt 0.523826 0.571176
vt 0.500000 0.571176
vt 0.476174 0.571176
vt 0.458732 0.571176
vt 0.452348 0.571176
vt 0.547652 0.571176
vt 0.531585 0.539529
vt 0.518236 0.539529
vt 0.500000 0.539529
vt 0.481764 0.539529
vt 0.468415 0.539529
vt 0.463529 0.539529
vt 0.536471 0.539529
vt 0.517094 0.518384
vt 0.509869 0.518384
vt 0.500000 0.518384
vt 0.490131 0.518384
vt 0.482906 0.518384
vt 0.480262 0.518384
vt 0.519738 0.518384
vt 0.500000 0.706052
vt 0.500000 0.510959
vn 0.202357 0.841374 -0.501140
vn 0.244656 0.958747 -0.144732
vn 0.465537 0.642852 -0.608290
vn 0.597710 0.776389 -0.199907
vn 0.000000 0.875220 -0.483726
vn 0.000000 0.991882 -0.127165
vn -0.202356 0.841374 -0.501140
vn -0.244656 0.958747 -0.144732
vn -0.465537 0.642852 -0.608290
vn -0.597710 0.776389 -0.199907
vn -0.647835 0.392522 -0.652868
vn -0.831605 0.503868 -0.233559
vn 0.647835 0.392522 -0.652868
vn 0.831605 0.503868 -0.233559
vn 0.000000 0.560432 -0.828201
vn -0.609572 0.792647 -0.011470
vn -0.855161 0.518141 -0.015191
vn -0.247868 0.968772 -0.006530
vn -0.000000 0.999986 -0.005237
vn 0.247868 0.968772 -0.006530
vn 0.609573 0.792647 -0.011470
vn 0.855161 0.518140 -0.015191
vn -0.608087 0.793871 -0.000000
vn -0.855260 0.518199 0.000000
vn -0.247389 0.968916 0.000000
vn 0.000000 1.000000 -0.000000
vn 0.247389 0.968916 -0.000000
vn 0.608087 0.793871 -0.000000
vn 0.855260 0.518200 -0.000000
vn 0.000000 1.000000 0.000000
vn 0.000000 1.000000 0.000000
vn 0.000000 1.000000 0.000000
vn 0.200754 0.835652 -0.511256
vn 0.243464 0.936164 -0.253619
vn 0.460957 0.632664 -0.622298
vn 0.581637 0.738887 -0.340213
vn 0.000000 0.866755 -0.498734
vn 0.000000 0.973220 -0.229876
vn -0.200754 0.835652 -0.511256
vn -0.243464 0.936164 -0.253619
vn -0.460957 0.632664 -0.622298
vn -0.581637 0.738887 -0.340213
vn -0.635882 0.368711 -0.678017
vn -0.796582 0.461894 -0.390014
vn 0.635882 0.368711 -0.678016
vn 0.796582 0.461894 -0.390014
vn 0.256189 0.960357 -0.109915
vn 0.620384 0.769404 -0.152123
vn -0.000000 0.995190 -0.097968
vn -0.256189 0.960357 -0.109915
vn -0.620384 0.769404 -0.152123
vn -0.851286 0.493614 -0.177926
vn 0.851286 0.493614 -0.177926
vn 0.259729 0.965682 0.000000
vn 0.630400 0.776270 -0.000000
vn -0.000000 1.000000 0.000000
vn -0.259729 0.965682 -0.000000
vn -0.630400 0.776270 -0.000000
vn -0.865091 0.501616 0.000000
vn 0.865091 0.501616 0.000000
vn 0.620384 0.769404 0.152123
vn 0.256189 0.960357 0.109915
vn 0.000000 0.995190 0.097968
vn -0.256189 0.960357 0.109915
vn -0.620384 0.769404 0.152123
vn -0.851286 0.493614 0.177926
vn 0.851286 0.493614 0.177926
vn 0.581637 0.738887 0.340212
vn 0.243465 0.936164 0.253619
vn -0.000000 0.973220 0.229876
vn -0.243465 0.936164 0.253619
vn -0.581637 0.738887 0.340213
vn -0.796582 0.461894 0.390014
vn 0.796582 0.461894 0.390014
vn 0.460957 0.632664 0.622299
vn 0.200754 0.835652 0.511256
vn 0.000000 0.866755 0.498734
vn -0.200754 0.835652 0.511256
vn -0.460957 0.632664 0.622299
vn -0.635881 0.368711 0.678017
vn 0.635882 0.368711 0.678017
vn -0.000000 0.542664 -0.839950
vn -0.000000 0.542664 0.839950
s 1
g pCylinder3
usemtl initialShadingGroup
f 2/1/1 20/2/2 1/3/3
f 1/3/3 20/2/2 21/4/4
f 3/5/5 19/6/6 2/1/1
f 2/1/1 19/6/6 20/2/2
f 3/5/5 4/7/7 19/6/6
f 19/6/6 4/7/7 18/8/8
f 4/7/7 5/9/9 18/8/8
f 18/8/8 5/9/9 17/10/10
f 5/9/9 6/11/11 17/10/10
f 17/10/10 6/11/11 16/12/12
f 1/3/3 21/4/4 7/13/13
f 7/13/13 21/4/4 22/14/14
f 2/1/1 1/3/3 15/15/15
f 3/5/5 2/1/1 15/15/15
f 4/7/7 3/5/5 15/15/15
f 5/9/9 4/7/7 15/15/15
f 6/11/11 5/9/9 15/15/15
f 1/3/3 7/13/13 15/15/15
f 17/10/10 16/12/12 24/16/16
f 24/16/16 16/12/12 23/17/17
f 18/8/8 17/10/10 25/18/18
f 25/18/18 17/10/10 24/16/16
f 19/6/6 18/8/8 26/19/19
f 26/19/19 18/8/8 25/18/18
f 19/6/6 26/19/19 20/2/2
f 20/2/2 26/19/19 27/20/20
f 20/2/2 27/20/20 21/4/4
f 21/4/4 27/20/20 28/21/21
f 21/4/4 28/21/21 22/14/14
f 22/14/14 28/21/21 29/22/22
f 24/16/16 23/17/17 12/23/23
f 12/23/23 23/17/17 13/24/24
f 25/18/18 24/16/16 11/25/25
f 11/25/25 24/16/16 12/23/23
f 26/19/19 25/18/18 10/26/26
f 10/26/26 25/18/18 11/25/25
f 27/20/20 26/19/19 9/27/27
f 9/27/27 26/19/19 10/26/26
f 28/21/21 27/20/20 8/28/28
f 8/28/28 27/20/20 9/27/27
f 29/22/22 28/21/21 14/29/29
f 14/29/29 28/21/21 8/28/28
s off
f 30/30/30 31/31/31 32/32/32
s 3
f 34/33/33 41/34/34 33/35/35
f 33/35/35 41/34/34 40/36/36
f 35/37/37 42/38/38 34/33/33
f 34/33/33 42/38/38 41/34/34
f 35/37/37 36/39/39 42/38/38
f 42/38/38 36/39/39 43/40/40
f 36/39/39 37/41/41 43/40/40
f 43/40/40 37/41/41 44/42/42
f 37/41/41 38/43/43 44/42/42
f 44/42/42 38/43/43 45/44/44
f 33/35/35 40/36/36 39/45/45
f 39/45/45 40/36/36 46/46/46
f 41/34/34 48/47/47 40/36/36
f 40/36/36 48/47/47 47/48/48
f 42/38/38 49/49/49 41/34/34
f 41/34/34 49/49/49 48/47/47
f 42/38/38 43/40/40 49/49/49
f 49/49/49 43/40/40 50/50/50
f 43/40/40 44/42/42 50/50/50
f 50/50/50 44/42/42 51/51/51
f 44/42/42 45/44/44 51/51/51
f 51/51/51 45/44/44 52/52/52
f 40/36/36 47/48/48 46/46/46
f 46/46/46 47/48/48 53/53/53
f 48/47/47 55/54/54 47/48/48
f 47/48/48 55/54/54 54/55/55
f 49/49/49 56/56/56 48/47/47
f 48/47/47 56/56/56 55/54/54
f 49/49/49 50/50/50 56/56/56
f 56/56/56 50/50/50 57/57/57
f 50/50/50 51/51/51 57/57/57
f 57/57/57 51/51/51 58/58/58
f 51/51/51 52/52/52 58/58/58
f 58/58/58 52/52/52 59/59/59
f 47/48/48 54/55/55 53/53/53
f 53/53/53 54/55/55 60/60/60
f 54/55/55 55/54/54 61/61/61
f 61/61/61 55/54/54 62/62/62
f 55/54/54 56/56/56 62/62/62
f 62/62/62 56/56/56 63/63/63
f 57/57/57 64/64/64 56/56/56
f 56/56/56 64/64/64 63/63/63
f 58/58/58 65/65/65 57/57/57
f 57/57/57 65/65/65 64/64/64
f 59/59/59 66/66/66 58/58/58
f 58/58/58 66/66/66 65/65/65
f 60/60/60 54/55/55 67/67/67
f 67/67/67 54/55/55 61/61/61
f 61/61/61 62/62/62 68/68/68
f 68/68/68 62/62/62 69/69/69
f 62/62/62 63/63/63 69/69/69
f 69/69/69 63/63/63 70/70/70
f 64/64/64 71/71/71 63/63/63
f 63/63/63 71/71/71 70/70/70
f 65/65/65 72/72/72 64/64/64
f 64/64/64 72/72/72 71/71/71
f 66/66/66 73/73/73 65/65/65
f 65/65/65 73/73/73 72/72/72
f 67/67/67 61/61/61 74/74/74
f 74/74/74 61/61/61 68/68/68
f 68/68/68 69/69/69 75/75/75
f 75/75/75 69/69/69 76/76/76
f 69/69/69 70/70/70 76/76/76
f 76/76/76 70/70/70 77/77/77
f 71/71/71 78/78/78 70/70/70
f 70/70/70 78/78/78 77/77/77
f 72/72/72 79/79/79 71/71/71
f 71/71/71 79/79/79 78/78/78
f 73/73/73 80/80/80 72/72/72
f 72/72/72 80/80/80 79/79/79
f 74/74/74 68/68/68 81/81/81
f 81/81/81 68/68/68 75/75/75
f 34/33/33 33/35/35 82/82/82
f 35/37/37 34/33/33 82/82/82
f 36/39/39 35/37/37 82/82/82
f 37/41/41 36/39/39 82/82/82
f 38/43/43 37/41/41 82/82/82
f 33/35/35 39/45/45 82/82/82
f 75/75/75 76/76/76 83/83/83
f 76/76/76 77/77/77 83/83/83
f 77/77/77 78/78/78 83/83/83
f 78/78/78 79/79/79 83/83/83
f 79/79/79 80/80/80 83/83/83
f 81/81/81 75/75/75 83/83/83
